<?xml version="1.0" encoding="UTF-8"?><!DOCTYPE svg PUBLIC "-//W3C//DTD SVG 1.1//EN" "http://www.w3.org/Graphics/SVG/1.1/DTD/svg11.dtd"><svg xmlns="http://www.w3.org/2000/svg" xmlns:xlink="http://www.w3.org/1999/xlink" style="display:none"><symbol id="fg-add" fill="currentColor" viewBox="0 0 100 100" aria-hidden="true"><path data-name="Combined Shape" d="M0 15a15 15 0 1115 15A15.017 15.017 0 010 15zm2.727 0A12.273 12.273 0 1015 2.727 12.286 12.286 0 002.727 15zm10.91 5.453v-4.09h-4.09a1.364 1.364 0 010-2.727h4.09v-4.09a1.364 1.364 0 012.727 0v4.091h4.09a1.364 1.364 0 010 2.727h-4.091v4.09a1.364 1.364 0 01-2.727 0z"/></symbol><symbol id="fg-delete" fill="currentColor" viewBox="0 0 100 100" aria-hidden="true"><path data-name="Combined Shape" d="M8.182 30a4.09 4.09 0 01-4.091-4.09V8.181H2.727a1.364 1.364 0 110-2.727h5.455V4.09A4.09 4.09 0 0112.272 0h5.455a4.09 4.09 0 014.091 4.09v1.365h5.455a1.364 1.364 0 110 2.727h-1.364v17.727A4.09 4.09 0 0121.82 30zm-1.364-4.09a1.364 1.364 0 001.364 1.363h13.636a1.364 1.364 0 001.364-1.364V8.182H6.818zM19.091 5.454V4.09a1.364 1.364 0 00-1.364-1.364h-5.454a1.364 1.364 0 00-1.364 1.364v1.364zm-2.727 16.363v-8.182a1.364 1.364 0 112.727 0v8.182a1.364 1.364 0 11-2.727 0zm-5.455 0v-8.182a1.364 1.364 0 012.727 0v8.182a1.364 1.364 0 11-2.727 0z"/></symbol><symbol id="fg-delivery" fill="currentColor" viewBox="0 0 100 100" aria-hidden="true"><path data-name="Combined Shape" d="M13.282 29.597L3.079 24.495A3.844 3.844 0 01.975 21.06V8.922A3.802 3.802 0 013.094 5.5l4.853-2.426a1.28 1.28 0 01.217-.109L13.297.4a3.826 3.826 0 013.405 0l10.204 5.099a3.802 3.802 0 012.12 3.424v12.152a3.8 3.8 0 01-2.12 3.422l-10.2 5.099a3.829 3.829 0 01-3.423 0zM3.524 21.07a1.28 1.28 0 00.698 1.144l9.503 4.751V14.497l-10.2-5.093zm12.75 5.89l9.492-4.747a1.267 1.267 0 00.709-1.14V9.405l-4.518 2.259-.02.008-5.662 2.832zM15 12.292l3.524-1.762-9.892-4.947-3.525 1.763zM21.376 9.1l3.517-1.758-9.332-4.66a1.272 1.272 0 00-1.13 0l-2.95 1.476z"/></symbol><symbol id="fg-gallery" fill="currentColor" viewBox="0 0 100 100" aria-hidden="true"><path d="M28.5 30H18a1.5 1.5 0 01-1.5-1.5V18a1.5 1.5 0 011.5-1.5h10.5A1.5 1.5 0 0130 18v10.5a1.5 1.5 0 01-1.5 1.5zm-9-10.5V27H27v-7.5zM12 30H1.5A1.5 1.5 0 010 28.5V18a1.5 1.5 0 011.5-1.5H12a1.5 1.5 0 011.5 1.5v10.5A1.5 1.5 0 0112 30zM3 19.5V27h7.5v-7.5zm25.5-6H18a1.5 1.5 0 01-1.5-1.5V1.5A1.5 1.5 0 0118 0h10.5A1.5 1.5 0 0130 1.5V12a1.5 1.5 0 01-1.5 1.5zM19.5 3v7.5H27V3zM12 13.5H1.5A1.5 1.5 0 010 12V1.5A1.5 1.5 0 011.5 0H12a1.5 1.5 0 011.5 1.5V12a1.5 1.5 0 01-1.5 1.5zM3 3v7.5h7.5V3z"/></symbol><symbol id="fg-arrow-down-right" fill="currentColor" viewBox="0 0 100 100" aria-hidden="true"><path d="M15.99 29.632a1.25 1.25 0 010-1.767l4.116-4.116h-8.231a6.25 6.25 0 01-6.25-6.25V1.25a1.25 1.25 0 012.5 0V17.5a3.75 3.75 0 003.75 3.75h8.232l-4.117-4.116a1.25 1.25 0 011.768-1.768l6.25 6.25a1.25 1.25 0 010 1.769l-6.25 6.25a1.25 1.25 0 01-1.768 0z"/></symbol><symbol id="fg-cart" fill="currentColor" viewBox="0 0 100 100" aria-hidden="true"><path data-name="Combined Shape" d="M18.759 25.23a3.923 3.923 0 113.923 3.924 3.927 3.927 0 01-3.923-3.923zm2.615.01a1.304 1.304 0 001.307 1.299h.065a1.264 1.264 0 00.89-.39 1.278 1.278 0 00.355-.908 1.315 1.315 0 00-1.31-1.318 1.336 1.336 0 00-1.306 1.315zM8.916 27.979a3.88 3.88 0 01-1.13-2.783 3.935 3.935 0 013.925-3.892h.033a3.928 3.928 0 013.892 3.958 3.916 3.916 0 01-6.72 2.717zm1.845-3.653a1.283 1.283 0 00-.365.932v.01a1.274 1.274 0 001.273 1.272h.063a1.308 1.308 0 10-.97-2.213zm.284-3.252a4.483 4.483 0 01-4.341-3.575L4.094 4.353l-3.031-.569A1.507 1.507 0 01.026 2.068 1.544 1.544 0 011.543.838a1.528 1.528 0 01.277.024l3.831.729a1.622 1.622 0 011.2 1.178l.778 3.988h20.873a1.544 1.544 0 011.199.553v.01a1.554 1.554 0 01.25 1.302l-2.7 9.272a4.448 4.448 0 01-4.245 3.177zm-1.38-4.103a1.41 1.41 0 001.38 1.13h11.978a1.31 1.31 0 001.328-1.005l2.142-7.32H8.228z"/></symbol><symbol id="fg-credit-card" fill="currentColor" viewBox="0 0 100 100" aria-hidden="true"><path data-name="Combined Shape" d="M3.75 26.4A3.78 3.78 0 010 22.6V7.4a3.78 3.78 0 013.75-3.8h22.5A3.78 3.78 0 0130 7.4v15.2a3.78 3.78 0 01-3.75 3.8zM2.5 22.6a1.259 1.259 0 001.251 1.267H26.25A1.259 1.259 0 0027.5 22.6v-8.867h-25zm25-11.4V7.4a1.259 1.259 0 00-1.25-1.267H3.75A1.259 1.259 0 002.5 7.4v3.8z"/></symbol><symbol id="fg-flag" fill="currentColor" viewBox="0 0 100 100" aria-hidden="true"><path data-name="Combined Shape" d="M2.732 28.632v-25.9a1.373 1.373 0 01.4-.964A5.033 5.033 0 014.782.784a12.888 12.888 0 014.766-.78 14.33 14.33 0 015.958 1.462 12.265 12.265 0 004.947 1.266 10.285 10.285 0 003.754-.585 2.904 2.904 0 00.736-.379 1.342 1.342 0 01.952-.404 1.359 1.359 0 011.373 1.359V19.09a1.367 1.367 0 01-.399.964 4.876 4.876 0 01-1.649.983 12.905 12.905 0 01-4.767.779 14.365 14.365 0 01-5.96-1.46 12.22 12.22 0 00-4.947-1.266 10.285 10.285 0 00-3.752.583c-.13.051-.242.101-.337.151v8.813a1.364 1.364 0 01-2.727 0zm12.775-10.809a12.231 12.231 0 004.947 1.267 10.317 10.317 0 003.754-.584q.194-.079.337-.151V4.915a14.009 14.009 0 01-4.09.54 14.365 14.365 0 01-5.96-1.458A12.252 12.252 0 009.55 2.732a10.268 10.268 0 00-3.753.584c-.124.05-.238.097-.336.151v13.44a13.98 13.98 0 014.089-.541 14.362 14.362 0 015.958 1.457z"/></symbol><symbol id="fg-compass" fill="currentColor" viewBox="0 0 100 100" aria-hidden="true"><path data-name="Combined Shape" d="M15 30a15 15 0 1115-15 15.017 15.017 0 01-15 15zm0-27.273A12.273 12.273 0 1027.273 15 12.287 12.287 0 0015 2.727zm-5.789 19.42a1.368 1.368 0 01-1.105-.574 1.341 1.341 0 01-.183-1.223l2.892-8.673a1.377 1.377 0 01.863-.862l8.672-2.89a1.38 1.38 0 01.438-.072 1.367 1.367 0 011.101.571 1.35 1.35 0 01.185 1.226l-2.889 8.672a1.377 1.377 0 01-.863.863l-8.673 2.89a1.397 1.397 0 01-.438.072zm9.413-10.774l-5.436 1.815-1.815 5.436 5.439-1.812z"/></symbol><symbol id="fg-configuration" fill="currentColor" viewBox="0 0 100 100" aria-hidden="true"><path data-name="Combined Shape" d="M15.099 30a3.75 3.75 0 01-3.75-3.75.872.872 0 00-.6-.857.824.824 0 00-.33-.069.801.801 0 00-.556.222l-.074.074a3.75 3.75 0 01-5.306 0 3.771 3.771 0 01-1.098-2.652 3.728 3.728 0 011.098-2.652l.062-.066a.825.825 0 00.15-.909.811.811 0 00-.74-.492H3.75a3.75 3.75 0 010-7.5.872.872 0 00.857-.6.813.813 0 00-.15-.888l-.074-.074A3.75 3.75 0 017.032 3.38a3.777 3.777 0 012.652 1.098l.066.068a.813.813 0 00.9.162 1.2 1.2 0 01.249-.08.811.811 0 00.351-.666V3.75a3.75 3.75 0 017.5 0v.108a.839.839 0 00.836.819.793.793 0 00.555-.222l.076-.074a3.75 3.75 0 015.304 0 3.724 3.724 0 011.1 2.655 3.777 3.777 0 01-1.098 2.653l-.068.061a.808.808 0 00-.162.9 1.215 1.215 0 01.08.249.811.811 0 00.664.356h.213a3.75 3.75 0 010 7.5h-.108a.828.828 0 00-.6 1.39l.073.076a3.771 3.771 0 011.098 2.652 3.719 3.719 0 01-1.098 2.651 3.767 3.767 0 01-2.652 1.1 3.728 3.728 0 01-2.652-1.098l-.061-.071a.804.804 0 00-.566-.231.852.852 0 00-.343.073.811.811 0 00-.492.74v.213a3.75 3.75 0 01-3.75 3.75zm-4.668-7.184a3.075 3.075 0 011.251.26 3.315 3.315 0 012.169 3.061v.113a1.251 1.251 0 002.5 0v-.217a3.325 3.325 0 015.659-2.354l.076.076a1.258 1.258 0 00.884.366 1.245 1.245 0 00.886-.367 1.258 1.258 0 00.366-.884 1.245 1.245 0 00-.367-.886l-.085-.084a3.329 3.329 0 012.369-5.647h.111a1.251 1.251 0 000-2.501h-.217a3.309 3.309 0 01-3.034-2.009 1.173 1.173 0 01-.09-.328 3.3 3.3 0 01.768-3.422l.077-.073a1.258 1.258 0 00.366-.883 1.245 1.245 0 00-.367-.887 1.252 1.252 0 00-1.77 0l-.084.084a3.292 3.292 0 01-2.32.947 3.241 3.241 0 01-1.322-.28 3.312 3.312 0 01-2.007-3.035V3.75a1.251 1.251 0 10-2.501 0v.217A3.312 3.312 0 0111.742 7a1.298 1.298 0 01-.329.09 3.318 3.318 0 01-3.421-.768l-.074-.076a1.258 1.258 0 00-.883-.367 1.251 1.251 0 00-.885 2.138l.084.086a3.27 3.27 0 01.693 3.578 3.318 3.318 0 01-3.064 2.17H3.75a1.251 1.251 0 000 2.5h.217a3.329 3.329 0 012.354 5.658l-.076.077a1.258 1.258 0 00-.367.883 1.251 1.251 0 002.136.884l.086-.085a3.353 3.353 0 012.331-.95zM15 20a5 5 0 115-5 5.005 5.005 0 01-5 5zm0-7.5a2.5 2.5 0 102.499 2.5A2.503 2.503 0 0015 12.5z"/></symbol><symbol id="fg-drag-n-drop" fill="currentColor" viewBox="0 0 100 100" aria-hidden="true"><path data-name="Combined Shape" d="M15.032 30H14.627l-.028-.009a1.363 1.363 0 01-.53-.33L9.967 25.5a1.367 1.367 0 011.933-1.934l1.766 1.774v-9.005H4.66l1.767 1.768A1.366 1.366 0 114.5 20.034L.428 15.961a1.374 1.374 0 01-.237-.301l-.015-.027-.014-.026-.012-.037-.012-.026-.012-.027-.012-.028-.012-.03a1.353 1.353 0 01-.102-.36v-.03-.039-.02-.042V14.924 14.555l.07-.023a1.363 1.363 0 01.328-.528L4.5 9.903a1.366 1.366 0 111.932 1.931L4.66 13.602h9.005V4.597l-1.768 1.772a1.366 1.366 0 01-1.931-1.932L14.065.338a1.363 1.363 0 01.528-.329L14.62 0h.546a1.353 1.353 0 01.352.081l.03.012.028.012.027.012.029-.04.031.01.026.014.027.015a1.374 1.374 0 01.3.237l4.074 4.072a1.367 1.367 0 11-1.933 1.933l-1.76-1.761v9.005h9.005l-1.772-1.768a1.366 1.366 0 011.932-1.931l4.099 4.099a1.363 1.363 0 01.329.529l.009.029V15.129a1.353 1.353 0 01-.068.289l-.01.031-.012.03-.012.029-.012.026-.012.024-.012.022-.012.024-.014.024-.016.027a1.374 1.374 0 01-.221.27l-4.072 4.073a1.367 1.367 0 01-1.933-1.933l1.81-1.73h-9.006v9.005l1.768-1.768a1.367 1.367 0 011.933 1.934l-4.074 4.072a1.374 1.374 0 01-.269.22l-.027.017-.024.014-.024.012-.048.009-.024.012-.026.012-.028.012-.03.012-.032.01a1.353 1.353 0 01-.289.068h-.172z"/></symbol><symbol id="fg-export" fill="currentColor" viewBox="0 0 100 100" aria-hidden="true"><path data-name="Fill 1" d="M2.96 9.438a2.071 2.071 0 00-.33 2.944 2.173 2.173 0 003.008.328l7.222-5.66v20.81a2.14 2.14 0 004.28 0V7.048l7.223 5.666a2.173 2.173 0 003.006-.332 2.073 2.073 0 00-.334-2.95L15 0z"/></symbol><symbol id="fg-filter" fill="currentColor" viewBox="0 0 100 100" aria-hidden="true"><path data-name="Combined Shape" d="M10.304 25.418H1.3A1.286 1.286 0 01.001 24.12a1.257 1.257 0 011.3-1.3h8.964a4.081 4.081 0 017.735 0h10.7a1.3 1.3 0 010 2.6H18.045a4.097 4.097 0 01-3.898 2.778 4.003 4.003 0 01-3.844-2.779zm2.369-1.289a1.48 1.48 0 101.475-1.491 1.519 1.519 0 00-1.475 1.49zm5.448-8.266H1.3A1.285 1.285 0 010 14.564a1.257 1.257 0 011.3-1.3h16.824a4.081 4.081 0 017.735 0h2.84a1.3 1.3 0 010 2.6h-2.84a4.103 4.103 0 01-3.89 2.778 4 4 0 01-3.85-2.779zm2.413-1.299a1.48 1.48 0 101.482-1.481 1.444 1.444 0 00-1.483 1.481zM5.093 7.18H1.3a1.285 1.285 0 01-1.299-1.3 1.249 1.249 0 011.253-1.298h3.8a4.129 4.129 0 013.845-2.78 4.21 4.21 0 013.93 2.78H28.7a1.3 1.3 0 010 2.598H12.833a4.103 4.103 0 01-3.89 2.779 4.054 4.054 0 01-3.85-2.779zm2.37-1.3a1.48 1.48 0 101.48-1.479 1.481 1.481 0 00-1.48 1.48z"/></symbol><symbol id="fg-fullscreen-alt" fill="currentColor" viewBox="0 0 100 100" aria-hidden="true"><path data-name="Combined Shape" d="M29.249 29.998H19.5a1.418 1.418 0 01-1.5-1.5v-.15a1.595 1.595 0 011.5-1.35h5.4l-6-5.999a1.45 1.45 0 010-2.1l.15-.15a1.413 1.413 0 011.95.15l6 6v-5.4a1.5 1.5 0 112.999 0v9.897l-.15.15c-.15.15-.15.302-.302.302l.15-.15-.15.15a.147.147 0 01-.15.15zm-27.595 0H.604l-.15-.15c-.149-.15-.299-.15-.299-.302a.147.147 0 01-.15-.15v-9.897a1.416 1.416 0 011.5-1.5 1.418 1.418 0 011.5 1.5v5.4l5.999-6a1.403 1.403 0 011.95-.15l.15.15a1.45 1.45 0 010 2.1l-6 5.999h5.398a1.595 1.595 0 011.5 1.35v.15a1.418 1.418 0 01-1.5 1.5zm-1.2-.15zM26.999 10.5V5.1L21 11.098a1.401 1.401 0 01-1.95.148l-.15-.148a1.45 1.45 0 010-2.1L24.9 3h-5.4A1.596 1.596 0 0118 1.65v-.148a1.416 1.416 0 011.5-1.5h9.897l.15.15c.15.15.302.15.302.299a.147.147 0 01.15.152V10.5a1.5 1.5 0 11-3 0zm-26.995 0V.603l.15-.15c.151-.149.151-.3.3-.3a.147.147 0 01.15-.15h9.898a1.416 1.416 0 011.5 1.5v.15a1.596 1.596 0 01-1.5 1.35h-5.4L11.1 9a1.45 1.45 0 010 2.1l-.15.148a1.411 1.411 0 01-1.948-.148l-5.999-6v5.4a1.418 1.418 0 01-1.5 1.5 1.416 1.416 0 01-1.5-1.5z"/></symbol><symbol id="fg-geolocation" fill="currentColor" viewBox="0 0 100 100" aria-hidden="true"><path data-name="Combined Shape" d="M13.848 28.848v-1.206A12.715 12.715 0 012.36 16.155H1.154a1.154 1.154 0 110-2.307h1.205A12.715 12.715 0 0113.847 2.36V1.154a1.154 1.154 0 112.307 0v1.205a12.715 12.715 0 0111.487 11.487h1.206a1.154 1.154 0 110 2.308H27.64A12.715 12.715 0 0116.154 27.64v1.205a1.154 1.154 0 11-2.307 0zm0-3.522v-3.403a1.154 1.154 0 112.307 0v3.398a10.406 10.406 0 009.167-9.167h-3.399a1.154 1.154 0 110-2.308h3.398a10.406 10.406 0 00-9.167-9.167v3.4a1.154 1.154 0 11-2.307 0v-3.4a10.406 10.406 0 00-9.167 9.167h3.399a1.154 1.154 0 110 2.308h-3.4a10.406 10.406 0 009.169 9.168z"/></symbol><symbol id="fg-heart-full" fill="currentColor" viewBox="0 0 100 100" aria-hidden="true"><path data-name="Shape" d="M15.295 4.333a8.517 8.517 0 1112.04 12.041L15.76 27.951a1.31 1.31 0 01-1.846 0L2.33 16.374a8.517 8.517 0 0112.04-12.04l.463.462z"/></symbol><symbol id="fg-help" fill="currentColor" viewBox="0 0 100 100" aria-hidden="true"><path data-name="Combined Shape" d="M0 15a15 15 0 1115 15A15.018 15.018 0 010 15zm2.728 0A12.273 12.273 0 1015 2.727 12.286 12.286 0 002.727 15zm10.675 6.407c0-1.085.486-1.625 1.454-1.655a1.346 1.346 0 011.51 1.484 1.331 1.331 0 01-1.435 1.49 1.364 1.364 0 01-1.53-1.319zM13.874 18a1.221 1.221 0 01-.172-.602A4.043 4.043 0 0115.354 14a12.268 12.268 0 001.317-1.163 1.459 1.459 0 00.34-.817 1.259 1.259 0 00-1.315-1.409 2.536 2.536 0 00-2.5 1.111 1.22 1.22 0 01-1.266.583 1.116 1.116 0 01-.89-1.673 3.737 3.737 0 011.821-1.804 6.325 6.325 0 012.638-.645 12.985 12.985 0 011.538.25 3.509 3.509 0 012.587 3.327 3.025 3.025 0 01-1.224 2.763c-.412.32-.846.612-1.262.925a2.051 2.051 0 00-.924 1.832 1.164 1.164 0 01-.839 1.163 1.288 1.288 0 01-1.5-.45z"/></symbol><symbol id="fg-import" fill="currentColor" viewBox="0 0 100 100" aria-hidden="true"><path d="M15.176.89a1.665 1.665 0 00-1.598 1.613v16.18l-5.614-4.401a1.69 1.69 0 00-2.338.255 1.609 1.609 0 00.255 2.286l9.359 7.34 9.362-7.34a1.612 1.612 0 00.257-2.292 1.69 1.69 0 00-2.338-.255l-5.616 4.406V2.502A1.665 1.665 0 0015.175.89zM1.65 19.021A1.647 1.647 0 000 20.672v6.793a1.647 1.647 0 001.647 1.647h26.71A1.647 1.647 0 0030 27.462v-6.505a1.646 1.646 0 00-1.65-1.65 1.647 1.647 0 00-1.65 1.65v4.858H3.3v-5.143a1.649 1.649 0 00-1.65-1.65z"/></symbol><symbol id="fg-info" fill="currentColor" viewBox="0 0 100 100" aria-hidden="true"><path data-name="Combined Shape" d="M0 15a15 15 0 1115 15A15.017 15.017 0 010 15zm2.727 0A12.273 12.273 0 1015 2.727 12.286 12.286 0 002.727 15zm10.674 6.183V14.15a1.484 1.484 0 012.967 0v7.033a1.484 1.484 0 11-2.967 0zm0-11.348c0-1.087.486-1.627 1.456-1.657a1.346 1.346 0 011.509 1.483 1.332 1.332 0 01-1.435 1.49 1.363 1.363 0 01-1.529-1.312z"/></symbol><symbol id="fg-layers" fill="currentColor" viewBox="0 0 100 100" aria-hidden="true"><path data-name="Combined Shape" d="M14.385 29.828L.764 23.027a1.361 1.361 0 111.218-2.436l13.01 6.502 13.01-6.502a1.361 1.361 0 111.215 2.436l-13.615 6.801a1.37 1.37 0 01-1.217 0zm0-6.809L.764 16.22a1.362 1.362 0 111.218-2.437l13.01 6.504 13.01-6.505a1.362 1.362 0 011.215 2.437l-13.615 6.807a1.36 1.36 0 01-1.217 0zm0-6.807L.764 9.409a1.36 1.36 0 010-2.435L14.384.172a1.367 1.367 0 011.218 0l13.62 6.803a1.36 1.36 0 010 2.435l-13.615 6.81a1.367 1.367 0 01-1.218 0zM4.42 8.192l10.572 5.285 10.571-5.284-10.571-5.286z"/></symbol><symbol id="fg-legend" fill="currentColor" viewBox="0 0 100 100" aria-hidden="true"><path d="M11.376 8.375c-.277 0-.5.223-.5.5v1c0 .277.223.5.5.5h1c.277 0 .5-.223.5-.5v-1c0-.277-.223-.5-.5-.5zm3.498 0c-.554 0-1 .446-1 1s.446 1 1 1h3.25c.554 0 1-.446 1-1s-.446-1-1-1zm-3.498 3.75c-.277 0-.5.223-.5.5v1c0 .277.223.5.5.5h1c.277 0 .5-.223.5-.5v-1c0-.277-.223-.5-.5-.5zm3.498 0c-.554 0-1 .446-1 1s.446 1 1 1h3.25c.554 0 1-.446 1-1s-.446-1-1-1zm-3.498 3.75c-.277 0-.5.223-.5.5v1c0 .277.223.5.5.5h1c.277 0 .5-.223.5-.5v-1c0-.277-.223-.5-.5-.5zm3.498 0c-.554 0-1 .446-1 1s.446 1 1 1h3.25c.554 0 1-.446 1-1s-.446-1-1-1zm-3.498 3.75c-.277 0-.5.223-.5.5v1c0 .277.223.5.5.5h1c.277 0 .5-.223.5-.5v-1c0-.277-.223-.5-.5-.5zm3.498 0c-.554 0-1 .446-1 1s.446 1 1 1h3.25c.554 0 1-.446 1-1s-.446-1-1-1z"/></symbol><symbol id="fg-like" fill="currentColor" viewBox="0 0 100 100" aria-hidden="true"><path data-name="Combined Shape" d="M23.824 29.997H4.307a4.095 4.095 0 01-4.09-4.09V16.36a4.095 4.095 0 014.09-4.09h3.205L12.606.81A1.364 1.364 0 0113.852 0a5.462 5.462 0 015.454 5.454v4.09h6.386a4.088 4.088 0 014.043 4.71l-1.88 12.27A4.104 4.104 0 0123.826 30zm-.028-2.725h.015a1.356 1.356 0 001.35-1.162l1.88-12.269a1.359 1.359 0 00-.32-1.1 1.379 1.379 0 00-1.042-.47h-7.735a1.364 1.364 0 01-1.364-1.362V5.447a2.716 2.716 0 00-1.898-2.599l-4.92 11.076v13.348zm-20.85-10.91v9.544a1.364 1.364 0 001.361 1.364h2.728V15H4.307a1.364 1.364 0 00-1.361 1.362z"/></symbol><symbol id="fg-line" fill="currentColor" viewBox="0 0 100 100" aria-hidden="true"><g><path data-name="Trac&#xE9; 29" d="M3.502 30a3.5 3.5 0 113.5-3.498A3.501 3.501 0 013.502 30zm0-4.333a.835.835 0 10.836.835.835.835 0 00-.836-.835z"/><path data-name="Trac&#xE9; 28" d="M9.38 11.635a3.5 3.5 0 113.499-3.498 3.501 3.501 0 01-3.5 3.498zm0-4.333a.835.835 0 10.835.835.835.835 0 00-.836-.835z"/><path data-name="Trac&#xE9; 31" d="M26.498 7a3.5 3.5 0 113.5-3.499 3.501 3.501 0 01-3.5 3.498zm0-4.334a.835.835 0 10.836.835.835.835 0 00-.836-.835z"/><path data-name="Trac&#xE9; 30" d="M21.325 26.836a3.5 3.5 0 113.5-3.498 3.501 3.501 0 01-3.5 3.498zm0-4.333a.835.835 0 10.836.835.835.835 0 00-.836-.835z"/><path data-name="Trac&#xE9; 24" d="M5.332 25.496l-2.548-.784L7.666 8.883l2.548.784z"/><path data-name="Trac&#xE9; 25" d="M19.198 22.803L9.231 10.1l2.096-1.646 9.967 12.701z"/><path data-name="Trac&#xE9; 26" d="M23.151 21.986l-2.587-.644 4.25-17.026 2.586.644z"/></g></symbol><symbol id="fg-lock" fill="currentColor" viewBox="0 0 100 100" aria-hidden="true"><path data-name="Combined Shape" d="M5.455 30a4.09 4.09 0 01-4.091-4.09v-9.546a4.09 4.09 0 014.09-4.09h1.364V8.181a8.182 8.182 0 1116.364 0v4.091h1.363a4.09 4.09 0 014.091 4.091v9.546a4.09 4.09 0 01-4.09 4.09zM4.09 16.364v9.546a1.364 1.364 0 001.364 1.363h19.09a1.364 1.364 0 001.364-1.363v-9.546A1.364 1.364 0 0024.545 15H5.455a1.364 1.364 0 00-1.364 1.364zm16.364-4.09V8.181a5.455 5.455 0 00-10.91 0v4.091z"/></symbol><symbol id="fg-map-alt" fill="currentColor" viewBox="0 0 100 100" aria-hidden="true"><path d="M.381 28.398a1.233 1.233 0 01-.381-.9V7.5a1.252 1.252 0 01.63-1.084l8.732-4.991a1.242 1.242 0 01.555-.177h.19a1.242 1.242 0 01.45.126h.008l9.391 4.697 8.175-4.656a1.239 1.239 0 01.618-.167A1.254 1.254 0 0130 2.501V22.5a1.254 1.254 0 01-.63 1.084l-8.748 4.998-.027.015H20.567a1.231 1.231 0 01-.9.087h-.024a1.242 1.242 0 01-.222-.09l-9.381-4.677-8.17 4.668a1.243 1.243 0 01-.617.167 1.273 1.273 0 01-.872-.354zm18.369-2.92V8.27l-7.5-3.75v17.205zm2.5-.131l6.25-3.572V4.653l-6.25 3.572zM2.5 8.226v17.12l6.25-3.57V4.654z"/></symbol><symbol id="fg-map-background" fill="currentColor" viewBox="0 0 100 100" aria-hidden="true"><path d="M16.616.09a1.508 1.508 0 011.524 1.019 1.88 1.88 0 01.904.472 1.528 1.528 0 01.358.572 3.59 3.59 0 011.388 1.128 1.553 1.553 0 01.679-.164c.32 0 1.359.124 1.474 1.774a5.544 5.544 0 00.898.189 3.895 3.895 0 012.324.916h.031a1.277 1.277 0 01.731.213c1.078.072 2.639.201 3.005 1.379.218.7-.09 1.39-.916 2.053a4.85 4.85 0 00-.22 1.254 6.878 6.878 0 01-.288 1.628 1.838 1.838 0 01-1.475 1.308c-.208.282-.497.681-.813 1.109a1.616 1.616 0 01.621.497 2.514 2.514 0 01.519 2.407 2.347 2.347 0 01.373.395 1.376 1.376 0 01.052 1.626 1.088 1.088 0 01-.337.32 1.322 1.322 0 01.138.186 1.492 1.492 0 01.05 1.35 4.337 4.337 0 00.535.125 1.287 1.287 0 011.035.877c.297.938-.425 1.865-2.27 3.706l-.193.194a1.84 1.84 0 01-1.816 1.018 10.897 10.897 0 01-3.418-.908c-.33-.124-.781-.297-.913-.324a5.535 5.535 0 00-1.044-.116c-.273 0-.755.035-.934.269-.094.124-.279.52.01 1.582a1.144 1.144 0 01-.192 1.083 2.106 2.106 0 01-1.703.682 7.46 7.46 0 01-2.399-.515 2.476 2.476 0 01-.726.124 1.401 1.401 0 01-1.401-1.08c-.16.01-.358.038-.567.07a7.833 7.833 0 01-1.128.105 2.677 2.677 0 01-1.763-.573l-.038-.007a4.885 4.885 0 01-1.98-.812h-.045a1.31 1.31 0 01-1.11-.692 1.172 1.172 0 01-.118-.42 1.288 1.288 0 01-.67-1.359 1.175 1.175 0 01.87-.896 13.323 13.323 0 00.962-3.697 27.505 27.505 0 00.373-3.514 3.638 3.638 0 01-1.682-3.07c-.112-.155-.258-.363-.46-.647l-.226-.32a7.46 7.46 0 00-2.682-.987l-.16-.019-.147-.063C.467 11.03-.08 10.393.009 9.643a1.243 1.243 0 01.24-.602 1.461 1.461 0 01-.133-1.165A1.774 1.774 0 011.54 6.757a3.074 3.074 0 01.737-.088 4.58 4.58 0 01.647.053l.065.01a1.64 1.64 0 011.252-.623 2.104 2.104 0 011.74 1.316 8.636 8.636 0 01.858-.167c-.13-.61-.307-1.36-.476-2.024l-.29-1.14 1.16-.2a3.335 3.335 0 01.57-.052 2.29 2.29 0 011.99 1.152c.24.342.27.386.643.386a2.697 2.697 0 00.327-.023 5.252 5.252 0 012.97-1.977q-.017-.038-.032-.078a2.177 2.177 0 01.474-2.162 3.762 3.762 0 012.44-1.05zm.695 3.04a1.917 1.917 0 01-.844-.562l-.235.932a2.64 2.64 0 01-1.435 1.811 8.018 8.018 0 00-1.89.88l-.182.482-.202.524-.545.138a6.284 6.284 0 01-1.533.214 2.893 2.893 0 01-1.38-.313c.23 1.144.214 1.562-.09 1.952a1.104 1.104 0 01-.876.43 1.129 1.129 0 01-.687-.233 6.038 6.038 0 00-1.21.228 2.974 2.974 0 01-.735.137h-.044c-.7-.022-.995-.59-1.205-1.003l-.068-.13a1.767 1.767 0 01-1.011.295 2.918 2.918 0 01-.343-.022 1.176 1.176 0 01.074.677 9.325 9.325 0 011.956.677 4.916 4.916 0 011.415.87l.011.014c.065.084.182.248.383.534.162.23.42.596.524.731a1.197 1.197 0 01.313.795c.055.956.325 1.508.8 1.639a1.383 1.383 0 01.899 1.416 10.831 10.831 0 01-.027 1.146 35.063 35.063 0 01-.695 4.825 9.895 9.895 0 01-.93 2.77 1.302 1.302 0 01.14.249 1.71 1.71 0 01.312.189 2.72 2.72 0 001.183.472 1.681 1.681 0 01.969.448.576.576 0 00.392.088 6.126 6.126 0 00.814-.083 6.944 6.944 0 01.989-.096 1.902 1.902 0 011.773.946 1.492 1.492 0 01.307-.034 1.199 1.199 0 01.53.125 7.031 7.031 0 001.403.408 3.309 3.309 0 01.56-2.457 3.14 3.14 0 012.663-1.12 7.691 7.691 0 011.463.157 8.926 8.926 0 011.27.427 10.77 10.77 0 002.594.765 3.958 3.958 0 01.52-.575q.745-.746 1.182-1.243a2.078 2.078 0 01-1.025-.87 1.662 1.662 0 01-.184-1.096 1.337 1.337 0 01-.894-.987 1.756 1.756 0 01.86-1.734 1.417 1.417 0 01-.357-.792 1.379 1.379 0 01.238-.882.84.84 0 00.079-.15.566.566 0 00-.104-.25 1.99 1.99 0 00-.262-.014 3.979 3.979 0 00-.545.04l-2.592.408 1.54-2.122 1.135-1.555c.284-.39.57-.78.785-1.072l.268-.36a1.174 1.174 0 01.96-.562h.022a8.886 8.886 0 00.124-.963 4.965 4.965 0 01.588-2.27q-.228-.022-.51-.04a8.348 8.348 0 01-.343-.026 1.383 1.383 0 01-.512-.15 1.403 1.403 0 01-1.268-.7 3.704 3.704 0 00-1.082-.27 5.642 5.642 0 01-1.52-.385 2.048 2.048 0 01-1.024-.982 1.149 1.149 0 01-.563.145 1.119 1.119 0 01-1.083-.825 2.129 2.129 0 00-.191-.44l-.038-.061-.026-.061a1.635 1.635 0 00-.917-.63l-.886-.216z"/></symbol><symbol id="fg-mesure" fill="currentColor" viewBox="0 0 100 100" aria-hidden="true"><path d="M20.35 29.003L.998 9.649a3.418 3.418 0 010-4.82L4.83.996a3.414 3.414 0 014.82 0L29.004 20.35a3.42 3.42 0 010 4.82l-3.833 3.833a3.414 3.414 0 01-4.82 0zM6.463 2.627L2.628 6.461a1.144 1.144 0 000 1.593l19.318 19.317a1.177 1.177 0 001.593 0l3.871-3.794-.037-.038a1.142 1.142 0 000-1.631l-4.556-4.555-1.935 1.935-1.593-1.594 1.935-1.935-2.43-2.391-1.972 1.897-1.593-1.593 1.935-1.933-2.43-2.428-1.936 1.932-1.596-1.594 1.94-1.936-2.43-2.429L8.773 7.22l-1.59-1.595 1.934-1.934-1.062-1.064a1.136 1.136 0 00-1.593 0zm14.364 20.879l2.682-2.684 1.611 1.61-2.684 2.685z"/></symbol><symbol id="fg-model" fill="currentColor" viewBox="0 0 100 100" aria-hidden="true"><path d="M3.75 3.261A3.839 3.839 0 000 7.174v15.652a3.839 3.839 0 003.75 3.913h22.5A3.839 3.839 0 0030 22.826V7.174a3.839 3.839 0 00-3.75-3.913zm0 2.609h22.5a1.28 1.28 0 011.248 1.304v2.122H2.502V7.174A1.28 1.28 0 013.751 5.87zm-1.248 6.035h6.792V24.13H3.75a1.28 1.28 0 01-1.249-1.304zm9.4 0h15.596v10.92a1.28 1.28 0 01-1.249 1.305H11.902z"/></symbol><symbol id="fg-new" fill="currentColor" viewBox="0 0 100 100" aria-hidden="true"><path d="M22.454 4.021a.962.962 0 00-.503.133l-6.373 3.635-7.33-3.665h-.01a1.037 1.037 0 00-.352-.1h-.15a.977.977 0 00-.433.139L.49 8.055a.982.982 0 00-.489.85v15.606a.979.979 0 001.457.853l6.375-3.647 7.321 3.663.014.007c.05.027.105.052.16.069h.018c.085.022.173.033.261.034a.987.987 0 00.45-.133h.01a.008.008 0 01.006 0h.014a.011.011 0 01.01 0l2.528-1.445c.002-.002.001-.004.003-.007a6.569 6.569 0 004.788 2.074c3.63 0 6.585-2.956 6.585-6.59a6.593 6.593 0 00-6.585-6.585V5.002a.977.977 0 00-.96-.981zM8.78 6.582l5.854 2.927v13.427L8.78 20.009zm12.684.1v6.414l.002.003c-2.686.831-4.641 3.336-4.641 6.29 0 1.05.252 2.04.69 2.922l-.009-.006-.921.525V9.465zm-14.636.003v13.358L1.95 22.83V9.472zm16.587 7.582a5.128 5.128 0 015.122 5.122 5.13 5.13 0 01-5.122 5.127 5.13 5.13 0 01-5.122-5.127 5.128 5.128 0 015.122-5.122zm-.021 2.127a.6.6 0 00-.025.002.6.6 0 00-.556.6v1.794h-1.795a.6.6 0 000 1.198h1.795v1.793a.6.6 0 001.198 0v-1.793h1.793a.6.6 0 000-1.198h-1.793v-1.795a.6.6 0 00-.617-.601z"/></symbol><symbol id="fg-notification" fill="currentColor" viewBox="0 0 100 100" aria-hidden="true"><path data-name="Shape" d="M15 29.405a4.159 4.159 0 01-3.553-1.964 1.247 1.247 0 010-1.31 1.367 1.367 0 011.187-.654h4.737a1.367 1.367 0 011.187.655 1.247 1.247 0 010 1.309A4.159 4.159 0 0115 29.405zm13.69-6.547H1.31a1.31 1.31 0 110-2.619 2.683 2.683 0 002.738-2.619v-6.547A10.738 10.738 0 0115 .597a10.738 10.738 0 0110.952 10.476v6.547a2.683 2.683 0 002.739 2.619 1.31 1.31 0 110 2.619zM15 3.216a8.052 8.052 0 00-8.214 7.857v6.547a5.061 5.061 0 01-.732 2.619h17.892a5.062 5.062 0 01-.732-2.619v-6.547A8.052 8.052 0 0015 3.216z"/></symbol><symbol id="fg-open" fill="currentColor" viewBox="0 0 100 100" aria-hidden="true"><path d="M1.6 3.018a1.602 1.602 0 00-1.6 1.6v20.734a1.597 1.597 0 001.6 1.593h16.372l6.367.037h.007a1.276 1.276 0 001.192-.825l4.38-11.516a1.276 1.276 0 00-.145-1.179 1.276 1.276 0 00-1.05-.55h-3.198V7.805a1.6 1.6 0 00-1.595-1.598H12.763v-1.59a1.597 1.597 0 00-1.59-1.6zm.953 2.552h7.657v3.2h12.763v4.141H7.25a1.276 1.276 0 00-1.184.803L2.553 22.5zm5.553 9.896h18.76l-3.407 8.959-18.89-.11z"/></symbol><symbol id="fg-pencil" fill="currentColor" viewBox="0 0 100 100" aria-hidden="true"><path d="M22.469.027a1.199 1.199 0 00-.865.352L1.592 20.39a1.205 1.205 0 00-.336.652L.016 28.58a1.2 1.2 0 00.334 1.041 1.201 1.201 0 001.03.338l7.593-1.186a1.195 1.195 0 00.664-.337L29.648 8.424a1.199 1.199 0 000-1.695l-6.35-6.35a1.199 1.199 0 00-.83-.352zm-.018 2.895l4.654 4.654-1.82 1.819-4.654-4.655 1.82-1.818zm-3.515 3.514l4.654 4.654L9.25 25.432l-4.654-4.655 14.34-14.341zM3.375 22.947l3.695 3.694-4.416.69.721-4.384z"/></symbol><symbol id="fg-point" fill="currentColor" viewBox="0 0 100 100" aria-hidden="true"><path data-name="Trac&#xE9; 27" d="M14.998 18.75a3.75 3.75 0 113.752-3.749 3.753 3.753 0 01-3.752 3.749zm0-5.5a1.749 1.749 0 101.75 1.75 1.752 1.752 0 00-1.75-1.75z"/></symbol><symbol id="fg-polygon" fill="currentColor" viewBox="0 0 100 100" aria-hidden="true"><path d="M34.382 5.473a11.69 11.69 0 00-8.611 19.022L11.289 63.381a11.69 11.69 0 00.202 23.373 11.695 11.695 0 0010.477-6.53l55.285 6.373a11.69 11.69 0 0011.057 7.94A11.695 11.695 0 00100 82.852 11.69 11.69 0 0091.461 71.6l-4.508-44.28a11.695 11.695 0 005.95-10.157 11.69 11.69 0 00-22.767-3.731L45.7 12.799a11.69 11.69 0 00-11.318-7.326zm.483 8.898a2.788 2.788 0 012.792 2.785 2.788 2.788 0 11-2.792-2.785zm46.348.006a2.788 2.788 0 012.792 2.786 2.788 2.788 0 11-2.792-2.786zm-35.585 7.326l25.128.665a11.69 11.69 0 007.358 6.048l4.508 44.234a11.69 11.69 0 00-4.795 5.043l-55.265-6.367a11.69 11.69 0 00-2.975-4.69l14.097-37.848a11.69 11.69 0 001.18.058 11.695 11.695 0 0010.764-7.143zM11.491 72.279a2.788 2.788 0 012.792 2.785 2.788 2.788 0 11-2.792-2.785zm76.82 7.788a2.788 2.788 0 012.791 2.786 2.788 2.788 0 11-2.792-2.786z"/></symbol><symbol id="fg-print" fill="currentColor" viewBox="0 0 100 100" aria-hidden="true"><path data-name="Combined Shape" d="M23.182 30H6.818a1.366 1.366 0 01-1.363-1.363v-4.09H4.09A4.096 4.096 0 010 20.453v-6.816a4.096 4.096 0 014.09-4.09h1.363V1.363A1.366 1.366 0 016.818 0h16.364a1.366 1.366 0 011.363 1.363v8.184h1.363A4.096 4.096 0 0130 13.637v6.818a4.096 4.096 0 01-4.09 4.092h-1.363v4.09A1.366 1.366 0 0123.182 30zm-15-10.91v8.183h13.636V19.09zm-1.364-2.727h16.364a1.366 1.366 0 011.363 1.363v4.09h1.363a1.366 1.366 0 001.363-1.363v-6.816a1.366 1.366 0 00-1.363-1.363H4.09a1.366 1.366 0 00-1.363 1.363v6.818a1.366 1.366 0 001.363 1.363h1.363v-4.09a1.366 1.366 0 011.365-1.365zM8.182 2.727v6.82h13.636v-6.82z"/></symbol><symbol id="fg-user-alt" fill="currentColor" viewBox="0 0 100 100" aria-hidden="true"><path d="M10.372 2.487a6.253 6.253 0 00.262 12.5 6.26 6.26 0 006.252-6.252 6.253 6.253 0 00-6.514-6.248zm.262 2.496a3.756 3.756 0 013.751 3.752 3.752 3.752 0 11-3.751-3.752zM28.676 10a1.25 1.25 0 00-.8.352l-4.115 4.116-1.619-1.615a1.25 1.25 0 00-1.768 1.769l2.5 2.5a1.25 1.25 0 001.77 0l5.001-5.001a1.25 1.25 0 00-.969-2.121zM6.253 17.488A6.26 6.26 0 000 23.74v2.501a1.25 1.25 0 102.501 0v-2.5a3.756 3.756 0 013.752-3.752h8.75a3.756 3.756 0 013.752 3.751v2.501a1.258 1.258 0 001.253 1.25 1.258 1.258 0 001.252-1.25v-2.5a6.26 6.26 0 00-6.252-6.253z"/></symbol><symbol id="fg-properties" fill="currentColor" viewBox="0 0 100 100" aria-hidden="true"><path d="M4.09 0a1.364 1.364 0 00-1.363 1.364v27.272A1.364 1.364 0 004.091 30h21.818a1.364 1.364 0 001.364-1.364V1.364A1.364 1.364 0 0025.909 0zm1.442 2.663h18.934v24.671H5.532zm5.21 3.303A1.36 1.36 0 009.377 7.33a1.36 1.36 0 001.363 1.363h8.523a1.36 1.36 0 001.364-1.363 1.36 1.36 0 00-1.364-1.364zm0 5.114a1.36 1.36 0 00-1.364 1.363 1.36 1.36 0 001.363 1.364h8.523a1.36 1.36 0 001.364-1.364 1.36 1.36 0 00-1.364-1.363zm0 5.113a1.36 1.36 0 00-1.364 1.364 1.36 1.36 0 001.363 1.363h8.523a1.36 1.36 0 001.364-1.363 1.36 1.36 0 00-1.364-1.364zm0 5.114a1.36 1.36 0 00-1.364 1.363 1.36 1.36 0 001.363 1.364h8.523a1.36 1.36 0 001.364-1.364 1.36 1.36 0 00-1.364-1.363z"/></symbol><symbol id="fg-reset" fill="currentColor" viewBox="0 0 100 100" aria-hidden="true"><path d="M15.859.651a13.051 13.051 0 00-9.423 3.815L2.609 8.064V3.253a1.305 1.305 0 10-2.608 0v7.823a1.32 1.32 0 00.094.478v.014a1.305 1.305 0 001.21.818h7.83a1.305 1.305 0 000-2.608H4.597L8.252 6.35a10.435 10.435 0 0117.252 3.862 1.304 1.304 0 102.455-.87 13.051 13.051 0 00-12.1-8.69zm5.001 16.956a1.305 1.305 0 10.012 2.61h4.532l-3.65 3.432A10.435 10.435 0 014.502 19.78a1.305 1.305 0 00-2.458.867 13.051 13.051 0 009.42 8.371l-.006.01a13.042 13.042 0 0012.106-3.502l3.827-3.601v4.814a1.305 1.305 0 102.608 0v-7.826a1.328 1.328 0 00-.088-.475v-.014a1.307 1.307 0 00-1.21-.818h-7.83a1.305 1.305 0 00-.011 0z"/></symbol><symbol id="fg-save" fill="currentColor" viewBox="0 0 100 100" aria-hidden="true"><path d="M1.364 0A1.364 1.364 0 000 1.364v27.272A1.364 1.364 0 001.364 30h27.272A1.364 1.364 0 0030 28.636V7.615a1.364 1.364 0 00-.485-1.047L22.042.32a1.364 1.364 0 00-.876-.32zm1.363 2.727h2.866v7.57a1.364 1.364 0 001.364 1.363h11.077a1.364 1.364 0 001.363-1.363v-7.57h1.276l6.6 5.527v19.019H24.46V18.72a1.364 1.364 0 00-1.363-1.364H6.903a1.364 1.364 0 00-1.363 1.364v8.552H2.727zm5.59.461h8.353v5.745H8.318zm-.053 16.894h13.469v7.188H8.264z"/></symbol><symbol id="fg-share-alt" fill="currentColor" viewBox="0 0 100 100" aria-hidden="true"><path d="M17.715 24.542a5.436 5.436 0 01.206-1.486l-7.234-4.222a5.448 5.448 0 110-7.665l7.232-4.223a5.46 5.46 0 111.376 2.358l-7.233 4.223a5.463 5.463 0 010 2.961l7.237 4.223a5.448 5.448 0 11-1.584 3.831zm2.724 0a2.724 2.724 0 10.458-1.51 1.362 1.362 0 01-.162.272 2.707 2.707 0 00-.296 1.238zM4.094 15.007a2.724 2.724 0 005.048 1.42l.027-.05.031-.051a2.724 2.724 0 000-2.638l-.03-.05-.03-.051a2.724 2.724 0 00-5.046 1.42zm19.07-6.81a2.724 2.724 0 10-2.388-1.413l.036.059.033.061a2.724 2.724 0 002.318 1.293z" data-name="Combined Shape"/></symbol><symbol id="fg-star-full" fill="currentColor" viewBox="0 0 100 100" aria-hidden="true"><path d="M9.88 9.323l3.898-7.894a1.363 1.363 0 012.444 0l3.9 7.894 8.715 1.273a1.363 1.363 0 01.75 2.327l-6.3 6.14 1.488 8.674a1.363 1.363 0 01-1.978 1.437l-7.799-4.097-7.8 4.097a1.363 1.363 0 01-1.978-1.437l1.488-8.674-6.295-6.14a1.363 1.363 0 01.75-2.327z" data-name="Shape"/></symbol><symbol id="fg-star" fill="currentColor" viewBox="0 0 100 100" aria-hidden="true"><path d="M23.427 29.334a1.35 1.35 0 01-.635-.16l-7.794-4.099-7.8 4.1a1.35 1.35 0 01-.634.159 1.37 1.37 0 01-1.05-.492 1.335 1.335 0 01-.3-1.104l1.488-8.676-6.29-6.14a1.365 1.365 0 01.75-2.327L9.88 9.32l3.895-7.895a1.365 1.365 0 012.446 0l3.9 7.895 8.715 1.272a1.363 1.363 0 01.75 2.327l-6.3 6.14 1.488 8.676a1.335 1.335 0 01-.3 1.104 1.372 1.372 0 01-1.048.494zm-8.429-7.163a1.365 1.365 0 01.635.15l5.982 3.15-1.14-6.655a1.359 1.359 0 01.393-1.2l4.838-4.714-6.69-.986a1.35 1.35 0 01-1.018-.75l-3-6.055-2.987 6.055a1.363 1.363 0 01-1.026.75l-6.692.98 4.84 4.72a1.359 1.359 0 01.392 1.2l-1.141 6.658 5.981-3.15a1.365 1.365 0 01.633-.153z" data-name="Shape"/></symbol><symbol id="fg-support" fill="currentColor" viewBox="0 0 100 100" aria-hidden="true"><path data-name="Fill 1" d="M13.698 30c-.164 0-.296 0-.42-.013a3.111 3.111 0 01-2.403-4.877 3.153 3.153 0 012.579-1.344H15.894a3.165 3.165 0 012.642 1.46 2.573 2.573 0 01.237.464h2.996a12.002 12.002 0 001.21-.043 5.396 5.396 0 001.05-.288 5.118 5.118 0 00.819-.449l.236-.175a4.906 4.906 0 00.363-.33 4.529 4.529 0 00.337-.367c.088-.114.136-.184.181-.251a5.032 5.032 0 00.338-.59h-2.306a4.128 4.128 0 01-.99-.089 2.726 2.726 0 01-2.025-2.61v-6.517a3.145 3.145 0 01.343-1.557 2.741 2.741 0 012.437-1.373H26.321a12.967 12.967 0 00-.503-1.518 12.606 12.606 0 00-.937-1.761 12.562 12.562 0 00-.541-.783l-.078-.1-.095-.117a8.774 8.774 0 00-.302-.356 13.398 13.398 0 00-1.348-1.33l-.262-.212-.325-.251c-.294-.206-.542-.37-.78-.515a12.348 12.348 0 00-1.615-.835 12.719 12.719 0 00-2.954-.805A13.052 13.052 0 0015 2.372a13.296 13.296 0 00-1.593.096 12.89 12.89 0 00-2.979.82 12.84 12.84 0 00-1.761.935c-.252.158-.504.33-.783.54a.073.073 0 01-.014.013l-.084.06-.126.104a6.34 6.34 0 00-.354.3 13.36 13.36 0 00-1.328 1.348c-.113.135-.201.244-.276.342l-.213-.067.166.126-.04.058-.093.126c-.187.262-.356.516-.521.779a13.102 13.102 0 00-.836 1.619 12.492 12.492 0 00-.496 1.482h2.64a2.729 2.729 0 012.61 1.977 4.026 4.026 0 01.094 1.053v5.97a5.795 5.795 0 01-.056.97 2.693 2.693 0 01-2.628 2.174H3.885a4.13 4.13 0 01-.991-.089 2.688 2.688 0 01-2.004-2.39.87.87 0 01-.024-.21v-6.52c0-.144.009-.297.025-.47.03-.605.08-1.133.151-1.612A14.07 14.07 0 018.634 1.502 14.467 14.467 0 0117.75.254a14.108 14.108 0 0110.11 8.012 14.623 14.623 0 011.211 4.586c.023.232.034.469.045.7v.008c.01.147.012.3.012.486v6.462a10.754 10.754 0 01-.168 2.299 6.76 6.76 0 01-6.653 5.266h-3.54a3.067 3.067 0 01-.143.31 3.153 3.153 0 01-2.718 1.604h-1.957zm.14-3.85c-.193 0-.359.007-.504.02-.025 0-.115.028-.216.065a2.187 2.187 0 00-.126.076l-.137.136a2.145 2.145 0 00-.1.202v.01c-.01.031-.023.078-.033.125-.01.048 0 .135 0 .22.007.03.029.108.059.193a1.258 1.258 0 00.075.126l.14.14a1.73 1.73 0 00.177.091h.014c.037.013.09.026.149.038.14.013.29.019.473.019H15.962a1.613 1.613 0 00.252-.068 1.403 1.403 0 00.126-.074l.069-.068c.018-.015.048-.044.073-.07.036-.065.064-.126.093-.184a1.232 1.232 0 00.04-.156 1.896 1.896 0 000-.215 3.873 3.873 0 00-.059-.197l-.019-.031c-.016-.026-.035-.06-.058-.09l-.031-.033-.032-.033-.075-.076-.107-.056-.046-.023-.048-.024-.156-.036a5.482 5.482 0 00-.47-.017h-1.251a7.761 7.761 0 00-.42-.01zm-7.311-5.423l.199.084-.162-.134.04-.07a.112.112 0 01.006-.033c0-.013.008-.028.01-.042.008-.126 0-.28 0-.44V14.18v-.494a.108.108 0 01-.014-.031v-.016l-.055-.091.085-.2-.125.164-.144-.057H3.886c-.125 0-.251 0-.357.013l-.02.008-.05.016a.56.56 0 01-.07.043l-.093.126c-.008.191-.013.41-.015.665V20.363c0 .065 0 .136.01.224l.022.057a.268.268 0 01.026.039l.027.042.125.076a.148.148 0 01.042.01l.024.007h2.759a.897.897 0 00.125-.028l.077-.05zm17.059.065h.019l.043.012h2.787a.897.897 0 00.126-.028l.126-.126.028-.049a.107.107 0 01.006-.036l.009-.036v-.56-5.861c0-.144-.008-.295-.013-.445l-.102-.145-.157-.067H23.98c-.126 0-.252 0-.359.013l-.023.008-.047.016-.033.022-.05.031-.077.126s0 .006-.018.073V20.09c0 .16 0 .33.008.503l.021.051c.008.013.03.052.054.088l.126.078z"/></symbol><symbol id="fg-tag" fill="currentColor" viewBox="0 0 100 100" aria-hidden="true"><path d="M17.068-.184a1.316 1.316 0 00-.95.386L.387 15.933a1.316 1.316 0 000 1.863l11.64 11.639a1.316 1.316 0 001.856-.005l15.729-15.726a1.316 1.316 0 00.388-.969l-.348-11.299A1.32 1.32 0 0028.377.16L17.081-.184a1.316 1.316 0 00-.013 0zm.508 2.655l9.487.288.29 9.487-14.396 14.396-9.777-9.778zm5.18 2.16a2.47 2.47 0 00-1.783.724 2.47 2.47 0 000 3.493 2.47 2.47 0 101.783-4.216zm-.054 1.65a.817.817 0 01.591.24.817.817 0 11-1.155 0 .817.817 0 01.564-.24z"/></symbol><symbol id="fg-text" fill="currentColor" viewBox="0 0 100 100" aria-hidden="true"><path d="M22.884 3.269a1.346 1.346 0 00.056 2.69h1.51v18.079h-1.51a1.345 1.345 0 000 2.69l5.715.003a1.345 1.345 0 000-2.69H27.14V5.96h1.514a1.345 1.345 0 000-2.691H22.94a1.345 1.345 0 00-.056 0zM6.93 3.356L0 26.73H6.46l1.04-4.777h6.191l1.04 4.777h6.594l-6.93-23.375zm3.666 4.438l2.118 9.722H8.477z"/></symbol><symbol id="fg-transparency" fill="currentColor" viewBox="0 0 100 100" aria-hidden="true"><path data-name="Fill 1" d="M11.069 29.319A11.07 11.07 0 018.745 7.424 11.067 11.067 0 1121.257 22.57a11.07 11.07 0 01-10.188 6.75zM8.013 10.023a8.778 8.778 0 003.055 17.009 8.734 8.734 0 007.497-4.23 10.98 10.98 0 01-10.552-12.78zm11.802 7.492l-2.8 2.8a8.839 8.839 0 001.922.218c.178 0 .356-.013.527-.026l.085-.005a8.868 8.868 0 00.302-2.254 8.378 8.378 0 00-.036-.733zm-.878-14.551a8.726 8.726 0 00-7.498 4.23 10.98 10.98 0 0110.552 12.78 8.778 8.778 0 00-3.054-17.009zm-.668 10.272l-5.112 5.112a8.841 8.841 0 001.565 1.106l4.482-4.483a8.734 8.734 0 00-.939-1.732zm-3.034-2.718l-4.46 4.463a8.856 8.856 0 00.9 1.703l5.1-5.1a8.88 8.88 0 00-1.538-1.065zm-4.166-1.056c-.17 0-.345.012-.504.024l-.111.01a8.72 8.72 0 00-.305 2.253c0 .214.016.427.033.633v.038l2.75-2.751a8.764 8.764 0 00-1.863-.207z"/></symbol><symbol id="fg-visible" fill="currentColor" viewBox="0 0 100 100" aria-hidden="true"><path data-name="Combined Shape" d="M15 26.25c-3.99 0-7.714-1.814-11.07-5.394a25.762 25.762 0 01-2.813-3.62 18.4 18.4 0 01-.986-1.682 1.257 1.257 0 010-1.119 18.767 18.767 0 01.986-1.676A25.762 25.762 0 013.93 9.144C7.287 5.564 11.01 3.749 15 3.749c3.988 0 7.71 1.815 11.067 5.395a25.7 25.7 0 012.815 3.614 19.2 19.2 0 01.987 1.68 1.257 1.257 0 010 1.12 19.2 19.2 0 01-.987 1.681 25.7 25.7 0 01-2.815 3.614C22.712 24.436 18.988 26.25 15 26.25zm0-20c-3.27 0-6.38 1.55-9.246 4.606a23.126 23.126 0 00-2.537 3.26c-.194.3-.376.597-.543.884.168.29.351.587.543.885a23.126 23.126 0 002.539 3.26C8.62 22.201 11.73 23.751 15 23.751c3.27 0 6.378-1.55 9.245-4.606a23.035 23.035 0 002.537-3.26c.2-.309.383-.607.543-.885a23.47 23.47 0 00-.543-.885 23.035 23.035 0 00-2.537-3.26c-2.867-3.056-5.978-4.606-9.247-4.606zM15 20A5 5 0 1120 15a5.006 5.006 0 01-5 5zm0-7.5a2.5 2.5 0 102.499 2.5 2.503 2.503 0 00-2.5-2.5z"/></symbol><symbol id="fg-access" fill="currentColor" viewBox="0 0 100 100" aria-hidden="true"><path d="M14.838 21.832l-2.327 2.393-.117-.027c-.606-.14-1.223-.33-1.835-.561l-.317-.12 2.156-2.218.132.052a6.544 6.544 0 001.844.44l.464.041zm-3.636-1.208l-2.239 2.302-.14-.073a19.941 19.941 0 01-1.52-.877l-.229-.148 2.59-2.665.153.187c.344.422.74.8 1.177 1.12zm-3.709-1.098L5.99 21.071l-.149-.114a23.57 23.57 0 01-1.319-1.072l-.187-.157 1.498-1.534.152.133a21.7 21.7 0 001.303 1.046l.02.015-.025-.047a8.91 8.91 0 01-.72-1.732l-.039-.126 1.773-1.823.07.424c.1.617.283 1.217.54 1.782l.064.143-1.478 1.518h.001zM4.875 17.32L3.39 18.846l-.154-.152a32.273 32.273 0 01-1.175-1.222l-.144-.158 1.484-1.526.154.168c.383.422.773.828 1.158 1.206l.16.157zm18.838-2.363c0-1.69-.467-3.347-1.333-4.773 2.37 1.693 4.171 3.728 4.975 4.711-.785.966-2.544 2.961-4.86 4.638a9.08 9.08 0 001.218-4.576zm-5.156-.066c0-2.049-1.622-3.718-3.617-3.718-.593 0-1.178.155-1.707.445l-2.17-2.228a6.472 6.472 0 013.882-1.29c3.685 0 6.68 3.078 6.68 6.865a6.886 6.886 0 01-1.259 3.99l-2.242-2.307c.286-.54.433-1.144.433-1.756zm10.975-.632l-.009-.014c-.282-.385-1.814-2.406-4.173-4.435-3.433-2.954-7.011-4.515-10.353-4.515-2.019 0-4.126.572-6.264 1.696L5.249 3.41 3.77 4.93l3.095 3.185c-.759.51-1.507 1.08-2.225 1.698C2.281 11.842.75 13.863.456 14.26L0 14.898l.475.66c.048.068.2.275.449.581l.15.188 6.868-7.063.908.933-2.34 2.404-.039.045-.016.057a9.454 9.454 0 00-.265 2.749l.032.49 2.159-2.22.014-.068a6.904 6.904 0 011.183-2.753l2.175 2.24a3.767 3.767 0 00-.433 1.848l.004.596 1.384-1.423.907.933-1.742 1.791.107.155c.349.5.811.91 1.343 1.181l.14.072 1.632-1.679.93.953-1.088 1.118.702-.145c.35-.073.686-.198 1.005-.376l2.254 2.32a6.61 6.61 0 01-1.875 1.003l-2.939 2.988.489.025c.818.04 1.683-.03 2.586-.201l.065-.015 2.662-2.735 1.17 1.203.137.091 3.644 3.747 1.479-1.522-3.24-3.331a24.054 24.054 0 002.28-1.741c2.358-2.03 3.89-4.05 4.183-4.45l.461-.639-.468-.65z"/></symbol><symbol id="fg-external-link" fill="currentColor" viewBox="0 0 100 100" aria-hidden="true"><path d="M3.018 0A3 3 0 00.023 3v24a3 3 0 002.994 3h23.965a3 3 0 002.995-3v-9h-2.995v9H3.017V3H12l.006-3H3.017zm14.976 0v3h6.868L6.885 21l2.127 2.121 1.06-1.06 16.91-16.94V12h2.995V3a3 3 0 00-3-3z"/></symbol><symbol id="fg-close" fill="currentColor" viewBox="0 0 100 100" aria-hidden="true"><path d="M2.586 30L0 27.414l1.292-1.294L12.41 15 0 2.586 2.586 0l12.413 12.413L27.414 0 30 2.586 17.587 15 30 27.414 27.414 30l-1.294-1.292-11.121-11.12L2.586 30z"/></symbol><symbol id="fg-plus" fill="currentColor" viewBox="0 0 100 100" aria-hidden="true"><path d="M13 30h4V0h-4zm17-13v-4H0v4z"/></symbol><symbol id="fg-minus" fill="currentColor" viewBox="0 0 100 100" aria-hidden="true"><path d="M30 17v-4H0v4z"/></symbol><symbol id="fg-check" fill="currentColor" viewBox="0 0 100 100" aria-hidden="true"><path d="M28.034 3.34a1.87 1.87 0 00-1.276.59l-.001.002-16.68 17.33-6.845-7.112a1.873 1.873 0 10-2.7 2.598l9.545 9.915L29.457 6.53a1.873 1.873 0 00-1.428-3.19l.004-.001z"/></symbol><symbol id="fg-angle-up" fill="currentColor" viewBox="0 0 100 100" aria-hidden="true"><path d="M3.163 23.75L0 20.703 15 6.25l15 14.453-3.163 3.047L15 12.345z"/></symbol><symbol id="fg-angle-right" fill="currentColor" viewBox="0 0 100 100" aria-hidden="true"><path d="M6.25 3.163L9.297 0 23.75 15 9.297 30 6.25 26.837 17.655 15z"/></symbol><symbol id="fg-angle-down" fill="currentColor" viewBox="0 0 100 100" aria-hidden="true"><path d="M26.837 6.25L30 9.297 15 23.75 0 9.297 3.163 6.25 15 17.655z"/></symbol><symbol id="fg-angle-left" fill="currentColor" viewBox="0 0 100 100" aria-hidden="true"><path d="M23.75 26.837L20.703 30 6.25 15 20.703 0l3.047 3.163L12.345 15z"/></symbol><symbol id="fg-download" fill="currentColor" viewBox="0 0 100 100" aria-hidden="true"><path d="M50.196.001A7.065 7.065 0 0043.24 7.17v-.007 54.635l-16.638-13.31a7.023 7.023 0 00-4.573-1.61h.004a7.064 7.064 0 00-4.271 12.629l.017.013L50 85.296l32.222-25.777a7.063 7.063 0 10-8.836-11.02l.014-.01-16.033 12.825V7.164l.001-.1A7.063 7.063 0 0050.193 0h.006zM18.537 85.874h-.1a7.063 7.063 0 10.106 14.125h63.02a7.063 7.063 0 10-.106-14.125z"/></symbol><symbol id="fg-ecosystem" fill="currentColor" viewBox="0 0 100 100" aria-hidden="true"><path d="M14.95 3.809c2.678 0 4.85 2.198 4.85 4.91-.001.463-.065.912-.185 1.338l.043.036 5.45 5.12a3.378 3.378 0 013.916.62 3.387 3.387 0 01.21 4.525c-1.096 1.35-3.021 1.672-4.47.747-1.448-.925-1.955-2.8-1.176-4.352l-5.046-4.74a4.84 4.84 0 01-2.524 1.494v6.035c1.568.53 2.524 2.134 2.259 3.785-.266 1.651-1.675 2.865-3.328 2.865-1.652 0-3.061-1.214-3.327-2.865-.265-1.651.69-3.254 2.258-3.785V13.51a4.835 4.835 0 01-2.556-1.53l-4.887 4.725c.733 1.484.276 3.293-1.08 4.273-1.355.98-3.21.842-4.378-.327C-.19 19.48-.328 17.627.652 16.272c.98-1.356 2.79-1.813 4.273-1.08l5.347-5.171a4.972 4.972 0 01-.173-1.303c0-2.711 2.172-4.91 4.85-4.91zm0 17.717a1.24 1.24 0 00-1.234 1.249c0 .689.552 1.248 1.233 1.248a1.24 1.24 0 001.233-1.248 1.24 1.24 0 00-1.233-1.249zm12.543-4.163a1.24 1.24 0 00-1.754.011 1.24 1.24 0 00-.011 1.754 1.24 1.24 0 001.754-.01 1.24 1.24 0 00.011-1.755zm-23.215-.012a1.24 1.24 0 00-1.755.01 1.24 1.24 0 00-.01 1.755 1.24 1.24 0 001.754-.01 1.24 1.24 0 00.01-1.755zM14.949 5.973c-1.497 0-2.711 1.23-2.711 2.745 0 1.517 1.214 2.746 2.711 2.746 1.497-.002 2.71-1.23 2.712-2.746 0-1.516-1.214-2.745-2.712-2.745z"/></symbol><symbol id="fg-facebook" fill="currentColor" viewBox="0 0 100 100" aria-hidden="true"><path d="M17.813 5.625H22.5V0h-4.688a6.57 6.57 0 00-6.562 6.563v2.812H7.5V15h3.75v15h5.625V15h4.688l.937-5.625h-5.625V6.562a.95.95 0 01.938-.937z"/></symbol><symbol id="fg-twitter" fill="currentColor" viewBox="0 0 100 100" aria-hidden="true"><path d="M9.434 27.353c11.321 0 17.513-9.506 17.513-17.75 0-.27 0-.538-.018-.806A12.619 12.619 0 0030 5.568a12.158 12.158 0 01-3.535.982A6.246 6.246 0 0029.17 3.1a12.235 12.235 0 01-3.909 1.514 6.101 6.101 0 00-7.395-1.228c-2.455 1.332-3.723 4.168-3.094 6.917-4.949-.251-9.56-2.62-12.685-6.518-1.634 2.85-.8 6.497 1.906 8.328a6.047 6.047 0 01-2.794-.781v.079c0 2.97 2.066 5.527 4.938 6.115a6.066 6.066 0 01-2.78.107c.807 2.541 3.118 4.282 5.751 4.332A12.246 12.246 0 010 24.551a17.256 17.256 0 009.434 2.797z"/></symbol><symbol id="fg-instagram" fill="currentColor" viewBox="0 0 100 100" aria-hidden="true"><path d="M16.173 0c3.02.004 3.58.024 5.012.09 1.596.072 2.687.326 3.64.697a7.353 7.353 0 012.658 1.73 7.354 7.354 0 011.73 2.657c.37.954.624 2.044.697 3.641.065 1.432.086 1.991.09 5.011v2.347c-.004 3.02-.025 3.58-.09 5.011-.073 1.597-.326 2.687-.697 3.641a7.354 7.354 0 01-1.73 2.657 7.354 7.354 0 01-2.657 1.73c-.954.371-2.045.625-3.641.698-1.6.073-2.111.09-6.185.09s-4.585-.017-6.185-.09c-1.596-.073-2.687-.327-3.64-.697a7.354 7.354 0 01-2.658-1.73 7.352 7.352 0 01-1.73-2.658c-.37-.954-.624-2.044-.697-3.64-.065-1.432-.086-1.992-.09-5.012v-2.347c.004-3.02.025-3.58.09-5.01.073-1.598.326-2.688.697-3.642a7.353 7.353 0 011.73-2.657A7.352 7.352 0 015.174.787C6.128.417 7.22.162 8.815.09 10.247.024 10.807.004 13.827 0zm.008 2.703H13.82c-2.94.003-3.47.022-4.88.087-1.463.066-2.257.31-2.786.516-.7.272-1.2.597-1.725 1.122a4.647 4.647 0 00-1.122 1.725c-.205.528-.45 1.323-.516 2.785-.064 1.41-.084 1.94-.087 4.88v2.363c.003 2.94.023 3.47.087 4.88.067 1.463.311 2.257.516 2.785.273.7.598 1.2 1.122 1.725.525.525 1.025.85 1.725 1.122.529.206 1.323.45 2.786.517 1.41.064 1.94.083 4.88.087h2.362c2.94-.003 3.47-.023 4.88-.087 1.463-.067 2.257-.311 2.786-.517.7-.272 1.2-.597 1.724-1.122a4.647 4.647 0 001.123-1.725c.205-.528.45-1.322.516-2.785.064-1.41.083-1.94.087-4.88v-2.362c-.004-2.94-.023-3.47-.087-4.88-.067-1.463-.311-2.258-.516-2.786-.273-.7-.598-1.2-1.123-1.725a4.647 4.647 0 00-1.724-1.122c-.529-.205-1.323-.45-2.786-.516-1.41-.065-1.94-.084-4.88-.087zM15 7.297a7.703 7.703 0 110 15.405 7.703 7.703 0 010-15.405zM15 10a5 5 0 100 10 5 5 0 000-10zm8.007-4.808a1.8 1.8 0 110 3.6 1.8 1.8 0 010-3.6z"/></symbol><symbol id="fg-linkedin" fill="currentColor" viewBox="0 0 100 100" aria-hidden="true"><path d="M10.714 9.643h5.93v3.04h.085c.825-1.48 2.845-3.04 5.854-3.04 6.26 0 7.417 3.896 7.417 8.964V28.93h-6.181v-9.15c0-2.183-.045-4.99-3.215-4.99-3.22 0-3.71 2.377-3.71 4.831v9.309h-6.18zM0 9.643h6.429v19.286H0zm6.429-5.357a3.214 3.214 0 11-6.429 0 3.214 3.214 0 016.429 0z"/></symbol><symbol id="fg-double-angle-left" fill="currentColor" viewBox="0 0 100 100" aria-hidden="true"><path d="M30 25.146l-2.612 2.711L15 15 27.388 2.143 30 4.853 20.224 15zm-15 0l-2.612 2.711L0 15 12.388 2.143 15 4.853 5.224 15z"/></symbol><symbol id="fg-clock" fill="currentColor" viewBox="0 0 100 100" aria-hidden="true"><path d="M14.895 5.304c-.566 0-1.025.46-1.025 1.025v9.228c0 .38.206.71.512.887l7.402 4.272c.49.283 1.116.117 1.399-.374a1.022 1.022 0 00-.374-1.399L15.92 14.97V6.33c0-.567-.459-1.026-1.025-1.026zm.105 22.5A12.788 12.788 0 012.195 15C2.195 7.915 7.915 2.195 15 2.195S27.805 7.915 27.805 15 22.085 27.805 15 27.805zM15 0C6.729 0 0 6.73 0 15s6.729 15 15 15 15-6.729 15-15S23.271 0 15 0z"/></symbol><symbol id="fg-timer" fill="currentColor" viewBox="0 0 100 100" aria-hidden="true"><path d="M19.408 19.679l-4.262-2.802L10.64 19.7c-.758.476-1.211 1.264-1.211 2.106v5.64H20.57v-5.694c0-.823-.433-1.595-1.163-2.074zm1.247-11.244V2.553H9.512V8.49c0 .823.433 1.595 1.163 2.075l4.262 2.802 4.503-2.834c.756-.474 1.21-1.258 1.215-2.097zm2.702 13.318v5.694h2.438c.769 0 1.392.571 1.392 1.276 0 .705-.623 1.277-1.392 1.277H4.205c-.769 0-1.392-.572-1.392-1.277s.623-1.276 1.392-1.276h2.438v-5.64c.002-1.688.914-3.266 2.437-4.216l3.83-2.41-3.868-2.552c-1.46-.959-2.325-2.504-2.326-4.15V2.554h-2.51c-.77 0-1.393-.571-1.393-1.276C2.813.572 3.436 0 4.205 0h21.59c.769 0 1.392.572 1.392 1.277s-.623 1.276-1.392 1.276H23.44v5.882c-.002 1.688-.915 3.266-2.438 4.216l-3.837 2.413 3.865 2.553c1.456.956 2.32 2.495 2.326 4.136z"/></symbol><symbol id="fg-location" fill="currentColor" viewBox="0 0 100 100" aria-hidden="true"><path d="M15 0c6.706 0 12.143 5.596 12.143 12.5 0 4.214-2.189 8.345-5.797 12.266a38.237 38.237 0 01-5.165 4.658c-.237.176-.41.299-.507.366-.408.28-.94.28-1.348 0a17.88 17.88 0 01-.507-.366 38.223 38.223 0 01-5.165-4.658C5.046 20.845 2.857 16.714 2.857 12.5 2.857 5.596 8.294 0 15 0zm0 2.5c-5.365 0-9.714 4.477-9.714 10 0 3.442 1.91 7.046 5.131 10.547A35.802 35.802 0 0015 27.216a35.802 35.802 0 004.583-4.17c3.222-3.5 5.131-7.104 5.131-10.546 0-5.523-4.349-10-9.714-10zm0 5c2.683 0 4.857 2.239 4.857 5s-2.175 5-4.857 5c-2.683 0-4.857-2.239-4.857-5s2.174-5 4.857-5zm0 2.5c-1.341 0-2.429 1.12-2.429 2.5S13.66 15 15 15c1.341 0 2.429-1.12 2.429-2.5S16.34 10 15 10z"/></symbol><symbol id="fg-search" fill="currentColor" viewBox="0 0 100 100" aria-hidden="true"><path d="M21.215 20.04l-.507-.491a11.829 11.829 0 002.844-7.707C23.552 5.302 18.28 0 11.776 0S0 5.302 0 11.842c0 6.54 5.272 11.843 11.776 11.843 2.917 0 5.599-1.075 7.664-2.86l.49.51v1.439l6.853 6.73c.677.665 1.773.655 2.419.007l.315-.318c.659-.662.638-1.745-.032-2.406l-6.838-6.746h-1.432zm-9.439 0c-4.51 0-8.152-3.661-8.152-8.198 0-4.536 3.641-8.198 8.152-8.198 4.512 0 8.153 3.662 8.153 8.198 0 4.537-3.641 8.199-8.153 8.199z"/></symbol><symbol id="fg-map" fill="currentColor" viewBox="0 0 100 100" aria-hidden="true"><path d="M2.908 9.352c0-.473.447-.79.894-.663l6.125 1.894V30l-6.54-2.02a.683.683 0 01-.479-.664zm10.943.505l3.733 5.715c.224.347.543.631.925.789v11.46L11.491 30V10.583l2.36-.726zm10.88-.031l1.882.568a.683.683 0 01.479.663v17.964c0 .474-.447.79-.894.663l-6.157-1.894V16.33c.383-.127.734-.41.957-.758l3.733-5.746zM19.3 0l.294.007c2.935.158 5.296 2.589 5.36 5.462a5.576 5.576 0 01-.766 2.968l-4.243 6.503a.81.81 0 01-1.34 0l-4.243-6.503a5.622 5.622 0 01-.766-2.81c0-3.22 2.744-5.778 5.998-5.62zm-.025 2.848c-1.531 0-2.776 1.232-2.776 2.747s1.245 2.747 2.776 2.747c1.532 0 2.776-1.232 2.776-2.747s-1.245-2.747-2.776-2.747z"/></symbol><symbol id="fg-megamenu" fill="currentColor" viewBox="0 0 100 100" aria-hidden="true"><path d="M5.455 7.5c1.13 0 2.045-.916 2.045-2.045v-3.41C7.5.915 6.584 0 5.455 0h-3.41C.915 0 0 .916 0 2.045v3.41C0 6.585.916 7.5 2.045 7.5zm11.25 0c1.13 0 2.045-.916 2.045-2.045v-3.41C18.75.915 17.834 0 16.705 0h-3.41c-1.13 0-2.045.916-2.045 2.045v3.41c0 1.13.916 2.045 2.045 2.045zm11.25 0C29.085 7.5 30 6.584 30 5.455v-3.41C30 .915 29.084 0 27.955 0h-3.41C23.415 0 22.5.916 22.5 2.045v3.41c0 1.13.916 2.045 2.045 2.045zm-22.5 11.25c1.13 0 2.045-.916 2.045-2.045v-3.41c0-1.13-.916-2.045-2.045-2.045h-3.41C.915 11.25 0 12.166 0 13.295v3.41c0 1.13.916 2.045 2.045 2.045zm11.25 0c1.13 0 2.045-.916 2.045-2.045v-3.41c0-1.13-.916-2.045-2.045-2.045h-3.41c-1.13 0-2.045.916-2.045 2.045v3.41c0 1.13.916 2.045 2.045 2.045zm11.25 0c1.13 0 2.045-.916 2.045-2.045v-3.41c0-1.13-.916-2.045-2.045-2.045h-3.41c-1.13 0-2.045.916-2.045 2.045v3.41c0 1.13.916 2.045 2.045 2.045zM5.455 30c1.13 0 2.045-.916 2.045-2.045v-3.41c0-1.13-.916-2.045-2.045-2.045h-3.41C.915 22.5 0 23.416 0 24.545v3.41C0 29.085.916 30 2.045 30zm11.25 0c1.13 0 2.045-.916 2.045-2.045v-3.41c0-1.13-.916-2.045-2.045-2.045h-3.41c-1.13 0-2.045.916-2.045 2.045v3.41c0 1.13.916 2.045 2.045 2.045zm11.25 0c1.13 0 2.045-.916 2.045-2.045v-3.41c0-1.13-.916-2.045-2.045-2.045h-3.41c-1.13 0-2.045.916-2.045 2.045v3.41c0 1.13.916 2.045 2.045 2.045z"/></symbol><symbol id="fg-calendar" fill="currentColor" viewBox="0 0 100 100" aria-hidden="true"><path d="M10.5 13.5h-3v3h3zm6 0h-3v3h3zm6 0h-3v3h3zm3-10.5H24V0h-3v3H9V0H6v3H4.5a2.986 2.986 0 00-2.985 3L1.5 27a3 3 0 003 3h21c1.65 0 3-1.35 3-3V6c0-1.65-1.35-3-3-3zm0 24h-21V10.5h21z"/></symbol><symbol id="fg-double-angle-right" fill="currentColor" viewBox="0 0 100 100" aria-hidden="true"><path d="M0 25.146l2.612 2.711L15 15 2.612 2.143 0 4.853 9.776 15zm15 0l2.612 2.711L30 15 17.612 2.143 15 4.853 24.776 15z"/></symbol><symbol id="fg-pro" fill="currentColor" viewBox="0 0 100 100" aria-hidden="true"><path d="M15.77 15.297c.483 1.37.79 1.28-.264 2.076l.791 6.048 4.486-7.594c4.689 1.27 8.18-.265 8.18 7.683V30H1.037v-6.49c0-7.948 2.618-6.413 8.18-7.683l4.486 7.594.791-6.048c-1.1-.795-.747-.707-.307-2.076zM15 0c3.375 0 6.108 3.222 6.108 7.199S18.375 14.398 15 14.398c-3.375 0-6.11-3.222-6.11-7.199S11.625 0 15 0z"/></symbol><symbol id="fg-user" fill="currentColor" viewBox="0 0 100 100" aria-hidden="true"><path d="M20.902 15.999c2.591 0 4.573.858 5.945 2.574 1.258 1.574 1.972 3.227 2.143 4.96l.032.475V30H.978v-5.992c.077-1.907.802-3.718 2.175-5.435C4.525 16.857 6.507 16 9.098 16h11.804zM14.977 0C18.36 0 21.1 3.23 21.1 7.218s-2.74 7.218-6.124 7.218c-3.384 0-6.125-3.23-6.125-7.218S11.592 0 14.977 0z"/></symbol><symbol id="fg-arrow-left" fill="currentColor" viewBox="0 0 100 100" aria-hidden="true"><path d="M13.054 28.054L0 15 13.054 1.946 15.806 4.7l-8.355 8.357L30 13.054v3.892l-22.546.001 8.352 8.354-2.752 2.753z"/></symbol><symbol id="fg-arrow-right" fill="currentColor" viewBox="0 0 100 100" aria-hidden="true"><path d="M16.946 28.054L30 15 16.946 1.946 14.194 4.7l8.355 8.357L0 13.054v3.892l22.546.001-8.352 8.354 2.752 2.753z"/></symbol><symbol id="fg-burger" fill="currentColor" viewBox="0 0 100 100" aria-hidden="true"><path d="M28.5 8.25a1.5 1.5 0 001.5-1.5v-1.5a1.5 1.5 0 00-1.5-1.5h-27A1.5 1.5 0 000 5.25v1.5a1.5 1.5 0 001.5 1.5zm0 9a1.5 1.5 0 001.5-1.5v-1.5a1.5 1.5 0 00-1.5-1.5h-27a1.5 1.5 0 00-1.5 1.5v1.5a1.5 1.5 0 001.5 1.5zm0 9a1.5 1.5 0 001.5-1.5v-1.5a1.5 1.5 0 00-1.5-1.5h-27a1.5 1.5 0 00-1.5 1.5v1.5a1.5 1.5 0 001.5 1.5z"/></symbol><symbol id="fg-fullscreen" fill="currentColor" viewBox="0 0 100 100" aria-hidden="true"><path d="M17.84 30v-2.767h9.466v-9.466h2.767V30zM-.073 30V17.767h2.767v9.466h9.466V30zm27.379-17.767V2.767H17.84V0h12.233v12.233zm-27.379 0V0H12.16v2.767H2.694v9.466z"/></symbol><symbol id="fg-article" fill="currentColor" viewBox="0 0 100 100" aria-hidden="true"><path d="M27 0H3C1.35 0 0 1.35 0 3v27l6-6h21c1.65 0 3-1.35 3-3V3c0-1.65-1.35-3-3-3zm-9 19.5H6v-3h12zm6-6H6v-3h18zm0-6H6v-3h18z"/></symbol><symbol id="fg-diaporama" fill="currentColor" viewBox="0 0 100 100" aria-hidden="true"><path d="M27 0H9C7.35 0 6 1.35 6 3v18c0 1.65 1.35 3 3 3h18c1.65 0 3-1.35 3-3V3c0-1.65-1.35-3-3-3zM9.75 20.7l4.2-5.1 3 3.45 4.2-5.4 5.4 7.05zM3 6H0v21c0 1.65 1.35 3 3 3h21v-3H3z"/></symbol><symbol id="fg-dossier" fill="currentColor" viewBox="0 0 100 100" aria-hidden="true"><path d="M3 6H0v21c0 1.65 1.35 3 3 3h21v-3H3zm24-6H9C7.35 0 6 1.35 6 3v18c0 1.65 1.35 3 3 3h18c1.65 0 3-1.35 3-3V3c0-1.65-1.35-3-3-3zm-1.5 13.5h-15v-3h15zm-6 6h-9v-3h9zm6-12h-15v-3h15z"/></symbol><symbol id="fg-infographie" fill="currentColor" viewBox="0 0 100 100" aria-hidden="true"><path d="M26.667 0H3.333A3.343 3.343 0 000 3.333v23.334C0 28.5 1.5 30 3.333 30h23.334C28.5 30 30 28.5 30 26.667V3.333C30 1.5 28.5 0 26.667 0zM15 24.833c-5.5 0-10-4.5-10-10C5 9.5 9.167 5.167 14.5 5v10c0 .167.167.5.5.5h9.833c-.166 5.167-4.5 9.333-9.833 9.333zm1.333-11.166v-9.5c5.167.166 9.167 4.333 9.5 9.5z"/></symbol><symbol id="fg-video" fill="currentColor" viewBox="0 0 100 100" aria-hidden="true"><path d="M15 30C6.75 30 0 23.25 0 15S6.75 0 15 0s15 6.75 15 15-6.75 15-15 15zM12 8.25v13.5L21 15z"/></symbol><symbol id="fg-mail" fill="currentColor" viewBox="0 0 100 100" aria-hidden="true"><path d="M0 11.697l14.995 8.235L30 11.804V22.5a3 3 0 01-3 3H3a3 3 0 01-3-3V11.697zM27 4.5a3 3 0 013 3v.891l-14.995 8.124L0 8.274V7.5a3 3 0 013-3h24z"/></symbol><symbol id="fg-pause" fill="currentColor" viewBox="0 0 100 100" aria-hidden="true"><path d="M1.992 30H9.8V0H1.992v30zm18.213 0h7.803V0h-7.803v30z"/></symbol><symbol id="fg-play" fill="currentColor" viewBox="0 0 100 100" aria-hidden="true"><path d="M2.01 0l25.98 14.999L2.01 30z"/></symbol><symbol id="fg-share" fill="currentColor" viewBox="0 0 100 100" aria-hidden="true"><g data-name="Groupe 10"><path data-name="Combined Shape" d="M6 30a4.5 4.5 0 01-4.5-4.5V15a1.5 1.5 0 112.999 0v10.5A1.501 1.501 0 006 27h18a1.5 1.5 0 001.5-1.5V15a1.501 1.501 0 013 0v10.5A4.5 4.5 0 0124 30zm7.5-10.5V5.12l-3.44 3.441A1.5 1.5 0 017.94 6.44L13.93.449a1.506 1.506 0 01.154-.14l.029-.02.03-.02.03-.021.032-.02.031-.02.031-.019a1.501 1.501 0 011.46 0l.027.016.022.012.025.014.015.01.019.012h.009l.022.015.026.019a1.517 1.517 0 01.163.14l6 6a1.5 1.5 0 11-2.122 2.122L16.5 5.12V19.5a1.5 1.5 0 01-3 0z"/></g></symbol><symbol id="fg-repeat" fill="currentColor" viewBox="0 0 100 100" aria-hidden="true"><g data-name="Groupe 10"><path data-name="Combined Shape" d="M5 16.25v2.5C5 19.786 5.42 20.72 6.1 21.4A3.733 3.733 0 008.75 22.5h14.482l-2.866-2.866a1.25 1.25 0 111.767-1.767l5 4.999a1.247 1.247 0 010 1.768l-5 5a1.25 1.25 0 11-1.767-1.767l2.866-2.867H8.75a6.24 6.24 0 01-4.42-1.83 6.233 6.233 0 01-1.83-4.42v-2.5a1.25 1.25 0 012.5 0zm20-2.5v-2.5A3.733 3.733 0 0023.9 8.6 3.733 3.733 0 0021.25 7.5H6.768l2.866 2.866a1.25 1.25 0 11-1.767 1.767l-5-5A1.26 1.26 0 012.5 6.25c0-.32.123-.64.366-.884l5-5a1.25 1.25 0 111.767 1.767L6.769 5.001H21.25a6.24 6.24 0 014.42 1.83 6.233 6.233 0 011.83 4.42v2.5a1.25 1.25 0 01-2.5 0z"/></g></symbol><symbol id="fg-comment" fill="currentColor" viewBox="0 0 100 100" aria-hidden="true"><g data-name="Groupe 10"><path data-name="Combined Shape" d="M15 4.286c-6.964 0-12.857 3.917-12.857 8.571 0 2.495 1.674 4.872 4.57 6.512l1.457.837-.452 1.608a12.065 12.065 0 01-1.172 2.879 16.591 16.591 0 004.604-2.863l.72-.636.954.1c.72.084 1.456.135 2.176.135 6.964 0 12.857-3.918 12.857-8.572 0-4.654-5.893-8.571-12.857-8.571zm15 8.571c0 5.926-6.713 10.714-15 10.714-.82 0-1.64-.05-2.427-.134-2.194 1.942-4.805 3.315-7.701 4.052-.603.167-1.256.284-1.909.368H2.88c-.334 0-.636-.268-.72-.636v-.017c-.083-.418.201-.67.453-.97 1.054-1.19 2.26-2.194 3.047-4.99C2.209 19.286 0 16.256 0 12.857 0 6.931 6.713 2.143 15 2.143c8.287 0 15 4.788 15 10.714z"/></g></symbol><symbol id="fg-heart" fill="currentColor" viewBox="0 0 100 100" aria-hidden="true"><g data-name="Groupe 10"><path data-name="Combined Shape" d="M27.857 9.978c0-4.705-3.18-5.692-5.86-5.692-2.494 0-5.306 2.695-6.177 3.733-.401.485-1.239.485-1.64 0-.87-1.038-3.683-3.733-6.178-3.733-2.678 0-5.86.987-5.86 5.692 0 3.063 3.098 5.91 3.131 5.943L15 25.296l9.71-9.359c.05-.05 3.147-2.896 3.147-5.96zm2.143 0c0 4.018-3.683 7.382-3.834 7.533l-10.43 10.045c-.2.2-.468.301-.736.301s-.536-.1-.737-.301L3.817 17.478C3.683 17.36 0 13.996 0 9.978c0-4.905 2.997-7.835 8.002-7.835 2.93 0 5.675 2.31 6.998 3.616 1.323-1.306 4.068-3.616 6.998-3.616 5.005 0 8.002 2.93 8.002 7.835z"/></g></symbol></svg>