<?xml version="1.0" encoding="UTF-8" standalone="no"?>
<svg
   xmlns:dc="http://purl.org/dc/elements/1.1/"
   xmlns:cc="http://creativecommons.org/ns#"
   xmlns:rdf="http://www.w3.org/1999/02/22-rdf-syntax-ns#"
   xmlns:svg="http://www.w3.org/2000/svg"
   xmlns="http://www.w3.org/2000/svg"
   xmlns:sodipodi="http://sodipodi.sourceforge.net/DTD/sodipodi-0.dtd"
   xmlns:inkscape="http://www.inkscape.org/namespaces/inkscape"
   version="1.1"
   viewBox="0 0 30 30"
   height="30"
   width="30"
   id="icon-share2"
   sodipodi:docname="uE905-check.svg"
   inkscape:version="0.92.4 (5da689c313, 2019-01-14)">
  <sodipodi:namedview
     pagecolor="#ffffff"
     bordercolor="#666666"
     borderopacity="1"
     objecttolerance="10"
     gridtolerance="10"
     guidetolerance="10"
     inkscape:pageopacity="0"
     inkscape:pageshadow="2"
     inkscape:window-width="1280"
     inkscape:window-height="971"
     id="namedview6"
     showgrid="false"
     inkscape:zoom="3.9333333"
     inkscape:cx="11.534302"
     inkscape:cy="-53.503971"
     inkscape:window-x="-8"
     inkscape:window-y="-8"
     inkscape:window-maximized="1"
     inkscape:current-layer="icon-share2" />
  <metadata
     id="metadata12">
    <rdf:RDF>
      <cc:Work
         rdf:about="">
        <dc:format>image/svg+xml</dc:format>
        <dc:type
           rdf:resource="http://purl.org/dc/dcmitype/StillImage" />
        <dc:title />
      </cc:Work>
    </rdf:RDF>
  </metadata>
  <defs
     id="defs4" />
  <path
     d="m 28.033535,3.33927 c -0.505547,0.0258 -0.954609,0.24817 -1.275879,0.59165 l -9.67e-4,10e-4 L 10.076953,21.26287 3.2316211,14.1505 C 2.8896094,13.79102 2.4076465,13.5674 1.873418,13.5674 0.83874023,13.5674 0,14.40614 0,15.44082 c 0,0.50877 0.20279297,0.9701 0.53194336,1.30772 L 0.5315625,16.74816 10.076953,26.66304 29.456748,6.52959 C 29.79252,6.19112 30,5.72498 30,5.21038 30,4.1757 29.16126,3.33696 28.126582,3.33696 c -0.03275,0 -0.06527,8.2e-4 -0.09759,0.002 l 0.0045,-1.8e-4 z"
     id="path5"
     inkscape:connector-curvature="0"
     style="stroke-width:0.00000002" />
</svg>
