<?xml version="1.0" encoding="UTF-8" standalone="no"?>
<svg
   xmlns:dc="http://purl.org/dc/elements/1.1/"
   xmlns:cc="http://creativecommons.org/ns#"
   xmlns:rdf="http://www.w3.org/1999/02/22-rdf-syntax-ns#"
   xmlns:svg="http://www.w3.org/2000/svg"
   xmlns="http://www.w3.org/2000/svg"
   xmlns:sodipodi="http://sodipodi.sourceforge.net/DTD/sodipodi-0.dtd"
   xmlns:inkscape="http://www.inkscape.org/namespaces/inkscape"
   version="1.1"
   viewBox="0 0 30 30"
   height="30"
   width="30"
   id="icon-share2"
   sodipodi:docname="uE900-access.svg"
   inkscape:version="0.92.4 (5da689c313, 2019-01-14)">
  <sodipodi:namedview
     pagecolor="#ffffff"
     bordercolor="#666666"
     borderopacity="1"
     objecttolerance="10"
     gridtolerance="10"
     guidetolerance="10"
     inkscape:pageopacity="0"
     inkscape:pageshadow="2"
     inkscape:window-width="1280"
     inkscape:window-height="971"
     id="namedview6"
     showgrid="false"
     inkscape:zoom="3.9333333"
     inkscape:cx="-30.796205"
     inkscape:cy="-34.181937"
     inkscape:window-x="-8"
     inkscape:window-y="-8"
     inkscape:window-maximized="1"
     inkscape:current-layer="icon-share2" />
  <metadata
     id="metadata12">
    <rdf:RDF>
      <cc:Work
         rdf:about="">
        <dc:format>image/svg+xml</dc:format>
        <dc:type
           rdf:resource="http://purl.org/dc/dcmitype/StillImage" />
        <dc:title />
      </cc:Work>
    </rdf:RDF>
  </metadata>
  <defs
     id="defs4" />
  <path
     d="m 14.837915,21.832015 -2.327405,2.39282 -0.116103,-0.0267 c -0.606534,-0.14075 -1.223498,-0.32962 -1.835246,-0.56125 l -0.317139,-0.11938 2.155842,-2.21822 0.131719,0.0517 c 0.596162,0.23696 1.216553,0.38488 1.843917,0.4401 l 0.464444,0.041 z m -3.635834,-1.208 -2.2390449,2.30198 -0.1403615,-0.0731 c -0.5233892,-0.27258 -1.0346201,-0.5666 -1.5198354,-0.87659 l -0.2287796,-0.14789 2.5908131,-2.66544 0.1525197,0.18709 c 0.3431256,0.42226 0.7400106,0.79998 1.1767106,1.1207 z m -3.7086069,-1.09752 -1.5042495,1.54474 -0.1490333,-0.11403 c -0.4471294,-0.34031 -0.8404989,-0.65745 -1.200968,-0.97101 -0.04333,-0.0392 -0.079717,-0.0713 -0.1178322,-0.10157 l -0.1871486,-0.1568 1.4973062,-1.53405 0.1525196,0.13363 c 0.4072563,0.35458 0.847413,0.70734 1.3032142,1.04587 l 0.019043,0.0143 -0.024258,-0.0463 c -0.3032816,-0.56124 -0.5476471,-1.14384 -0.7192097,-1.73183 l -0.039844,-0.12651 1.7728728,-1.82267 0.069316,0.42404 c 0.1005177,0.61647 0.2842092,1.21691 0.5407036,1.78172 l 0.064102,0.14253 -1.4782632,1.51802 h 0.00173 z m -2.6185572,-2.20752 -1.4834194,1.52692 -0.1542482,-0.15146 c -0.3933989,-0.38842 -0.7885262,-0.7982 -1.1749817,-1.22224 l -0.1438478,-0.15858 1.4834195,-1.52514 0.1542482,0.16746 c 0.3829691,0.42226 0.7729109,0.82852 1.1576378,1.20621 l 0.1611623,0.1568 z m 18.8376751,-2.36253 c 0,-1.69084 -0.466173,-3.34782 -1.332687,-4.7732 2.370734,1.6926 4.171322,3.72733 4.975434,4.71082 -0.78504,0.96569 -2.544026,2.96122 -4.861059,4.63776 0.800626,-1.38261 1.218282,-2.94516 1.218282,-4.57541 v 0 z m -5.15567,-0.066 c 0,-2.04897 -1.622081,-3.71839 -3.616761,-3.71839 -0.592706,0 -1.178439,0.15501 -1.706984,0.44543 l -2.169699,-2.22891 c 1.140294,-0.84451 2.478195,-1.28994 3.881898,-1.28994 3.684379,0 6.678962,3.07878 6.678962,6.86491 0,1.44319 -0.433243,2.81865 -1.258156,3.99102 l -2.242473,-2.3073 c 0.285938,-0.53989 0.433243,-1.14384 0.433243,-1.75676 v 0 z m 10.975089,-0.63252 -0.0087,-0.0143 c -0.282451,-0.38487 -1.814445,-2.40527 -4.17308,-4.43467 -3.43307,-2.95407 -7.011716,-4.51486 -10.35291,-4.51486 -2.018967,0 -4.126264,0.57194 -6.2647916,1.6962 l -3.4833433,-3.58122 -1.4799917,1.52159 3.0951593,3.1839 c -0.7590255,0.50964 -1.5076785,1.07979 -2.2251304,1.69807 -2.3586058,2.02937 -3.89057023,4.04983 -4.18345137,4.44713 L 0,14.897615 l 0.47484421,0.661 c 0.0485157,0.0677 0.20103536,0.27436 0.44885786,0.58084 l 0.15076183,0.18709 6.8678974,-7.0627 0.9080868,0.93364 -2.3395335,2.40351 -0.039844,0.0446 -0.015586,0.057 c -0.1837209,0.74475 -0.2790237,1.50554 -0.2790237,2.26099 0,0.16391 0.00346,0.32604 0.013857,0.4882 l 0.031201,0.48999 2.1593283,-2.22 0.013858,-0.0677 c 0.1854201,-0.98707 0.5927056,-1.93312 1.1836535,-2.75273 l 2.1749143,2.2396 c -0.285938,0.54164 -0.436699,1.14565 -0.436699,1.75676 0,0.0303 0.0017,0.0605 0.0035,0.0908 l 0.0035,0.59686 1.384659,-1.42356 0.906358,0.93363 -1.741671,1.7906 0.107461,0.15501 c 0.34834,0.50065 0.811055,0.91046 1.343058,1.18128 l 0.138633,0.0713 1.632482,-1.67836 0.930616,0.9532 -1.088321,1.11712 0.701866,-0.14434 c 0.350068,-0.0731 0.68628,-0.19779 1.005147,-0.37594 l 2.254631,2.31978 c -0.575332,0.43832 -1.206183,0.77502 -1.87509,1.0031 l -2.939153,2.98793 0.488702,0.0249 c 0.817999,0.0392 1.682726,-0.0303 2.585627,-0.20133 l 0.06586,-0.0143 2.661887,-2.73492 1.169767,1.20266 0.136904,0.0909 3.644477,3.7469 1.478263,-1.52159 -3.238978,-3.33179 c 0.781583,-0.52562 1.54758,-1.11 2.278889,-1.74074 2.358606,-2.02936 3.89057,-4.04983 4.183451,-4.44891 L 30,14.908305 29.532099,14.257975 Z"
     id="path5"
     inkscape:connector-curvature="0"
     style="stroke-width:0" />
</svg>
