<?xml version="1.0" encoding="UTF-8" standalone="no"?>
<svg
   xmlns:dc="http://purl.org/dc/elements/1.1/"
   xmlns:cc="http://creativecommons.org/ns#"
   xmlns:rdf="http://www.w3.org/1999/02/22-rdf-syntax-ns#"
   xmlns:svg="http://www.w3.org/2000/svg"
   xmlns="http://www.w3.org/2000/svg"
   xmlns:sodipodi="http://sodipodi.sourceforge.net/DTD/sodipodi-0.dtd"
   xmlns:inkscape="http://www.inkscape.org/namespaces/inkscape"
   version="1.1"
   viewBox="0 0 30 30"
   height="30"
   width="30"
   id="icon-share2"
   sodipodi:docname="uE90E-instagram.svg"
   inkscape:version="0.92.4 (5da689c313, 2019-01-14)">
  <sodipodi:namedview
     pagecolor="#ffffff"
     bordercolor="#666666"
     borderopacity="1"
     objecttolerance="10"
     gridtolerance="10"
     guidetolerance="10"
     inkscape:pageopacity="0"
     inkscape:pageshadow="2"
     inkscape:window-width="1280"
     inkscape:window-height="971"
     id="namedview6"
     showgrid="false"
     inkscape:zoom="7.8666667"
     inkscape:cx="-10.32961"
     inkscape:cy="16.328381"
     inkscape:window-x="-8"
     inkscape:window-y="-8"
     inkscape:window-maximized="1"
     inkscape:current-layer="icon-share2" />
  <metadata
     id="metadata12">
    <rdf:RDF>
      <cc:Work
         rdf:about="">
        <dc:format>image/svg+xml</dc:format>
        <dc:type
           rdf:resource="http://purl.org/dc/dcmitype/StillImage" />
        <dc:title />
      </cc:Work>
    </rdf:RDF>
  </metadata>
  <defs
     id="defs4" />
  <path
     d="m 16.173455,-3e-5 c 3.019948,0.004 3.579606,0.0243 5.011108,0.0897 1.59662,0.0728 2.687049,0.32642 3.641159,0.69726 0.986395,0.38329 1.822908,0.89619 2.656902,1.7301 0.833905,0.83396 1.346834,1.67051 1.730183,2.6569 0.370752,0.95411 0.624375,2.04454 0.697207,3.64116 0.06533,1.4315 0.08601,1.99113 0.08965,5.01114 v 2.34694 c -0.0036,3.01995 -0.02432,3.5796 -0.08965,5.01111 -0.0728,1.59662 -0.326426,2.68704 -0.697207,3.64116 -0.383349,0.98639 -0.896249,1.8229 -1.730183,2.6569 -0.833964,0.8339 -1.670507,1.34683 -2.656902,1.73018 -0.95411,0.37075 -2.044539,0.62438 -3.641159,0.69721 -1.599959,0.073 -2.11075,0.0903 -6.184535,0.0903 -4.073873,0 -4.584663,-0.0173 -6.1846225,-0.0903 C 7.218786,29.83693 6.1283574,29.5833 5.174247,29.21252 4.1878514,28.82917 3.3513386,28.31627 2.5173453,27.48234 1.6834398,26.64837 1.1705106,25.81183 0.78724929,24.82544 0.41640981,23.87132 0.16281631,22.7809 0.08998435,21.18428 0.02465238,19.75277 0.00396881,19.19315 3.36e-4,16.17317 V 13.82623 C 0.0039688,10.80622 0.02465238,10.24659 0.08998435,8.81509 0.16278705,7.21847 0.41640981,6.12804 0.78724929,5.17393 1.1705399,4.18754 1.6834398,3.35102 2.5173453,2.51703 3.3513093,1.68312 4.1878514,1.17019 5.174247,0.78693 6.1283574,0.41609 7.218786,0.1625 8.8154055,0.08967 10.246908,0.02437 10.806536,0.00367 13.826543,-3e-5 Z m 0.0076,2.70272 h -2.362129 c -2.939704,0.003 -3.469625,0.0225 -4.8803565,0.0869 C 7.4760416,2.85629 6.6818041,3.10066 6.1532304,3.30606 5.4530358,3.57817 4.953378,3.90325 4.4284957,4.42816 3.9035548,4.95304 3.5785063,5.45273 3.3063972,6.15289 3.1009677,6.68147 2.8566027,7.47571 2.7899231,8.93823 c -0.064365,1.41071 -0.083496,1.94063 -0.086865,4.88036 v 2.36212 c 0.00337,2.93967 0.0225,3.46959 0.086865,4.88029 0.06668,1.46253 0.3110739,2.25677 0.5164741,2.78534 0.2721091,0.7002 0.5972162,1.19986 1.1220985,1.72474 0.5248823,0.52494 1.0245694,0.84999 1.7247347,1.1221 0.5285737,0.20543 1.3228112,0.44979 2.7853391,0.51647 1.4105555,0.0644 1.9403885,0.0835 4.8802685,0.0869 h 2.362293 c 2.93988,-0.003 3.469742,-0.0225 4.88021,-0.0869 1.462528,-0.0667 2.256765,-0.31107 2.785339,-0.51647 0.700195,-0.27211 1.199852,-0.59719 1.724735,-1.1221 0.52494,-0.52488 0.849989,-1.02457 1.122098,-1.72474 0.20543,-0.52857 0.449795,-1.32281 0.516474,-2.78534 0.06436,-1.4107 0.0835,-1.94062 0.08686,-4.88029 v -2.36212 c -0.0034,-2.9397 -0.0225,-3.46963 -0.08686,-4.88036 C 27.143307,7.47571 26.898913,6.68147 26.693513,6.15289 26.421404,5.4527 26.096326,4.95304 25.571415,4.42816 25.046532,3.90322 24.546845,3.57817 23.84668,3.30606 23.318106,3.10063 22.523869,2.85627 21.061341,2.78959 19.650639,2.72519 19.120718,2.70609 16.181043,2.70269 Z m -1.181044,4.59413 c 4.254137,0 7.702786,3.44865 7.702786,7.70284 0,4.25414 -3.448649,7.70279 -7.702786,7.70279 -4.254224,0 -7.702844,-3.44865 -7.702844,-7.70279 0,-4.25422 3.448649,-7.70284 7.702844,-7.70284 z m 0,2.70272 c -2.761491,0 -5.000093,2.2386 -5.000093,5.00009 0,2.76149 2.238602,5.00004 5.000093,5.00004 2.761462,0 5.000034,-2.2386 5.000034,-5.00004 0,-2.76149 -2.238601,-5.00009 -5.000034,-5.00009 z m 8.00715,-4.80714 c 0.99413,0 1.800057,0.80592 1.800057,1.80005 0,0.99413 -0.805927,1.8 -1.800057,1.8 -0.9941,0 -1.799998,-0.80587 -1.799998,-1.8 0,-0.99413 0.805927,-1.80005 1.799998,-1.80005 z"
     style="fill:#091625;stroke-width:0"
     id="path5"
     inkscape:connector-curvature="0" />
</svg>
