<?xml version="1.0" encoding="UTF-8" standalone="no"?>
<svg
   xmlns:dc="http://purl.org/dc/elements/1.1/"
   xmlns:cc="http://creativecommons.org/ns#"
   xmlns:rdf="http://www.w3.org/1999/02/22-rdf-syntax-ns#"
   xmlns:svg="http://www.w3.org/2000/svg"
   xmlns="http://www.w3.org/2000/svg"
   xmlns:sodipodi="http://sodipodi.sourceforge.net/DTD/sodipodi-0.dtd"
   xmlns:inkscape="http://www.inkscape.org/namespaces/inkscape"
   version="1.1"
   viewBox="0 0 30 30"
   height="30"
   width="30"
   id="icon-share2"
   sodipodi:docname="uE90B-ecosystem.svg"
   inkscape:version="0.92.4 (5da689c313, 2019-01-14)"><sodipodi:namedview
   pagecolor="#ffffff"
   bordercolor="#666666"
   borderopacity="1"
   objecttolerance="10"
   gridtolerance="10"
   guidetolerance="10"
   inkscape:pageopacity="0"
   inkscape:pageshadow="2"
   inkscape:window-width="1280"
   inkscape:window-height="971"
   id="namedview6"
   showgrid="false"
   inkscape:zoom="3.9333333"
   inkscape:cx="13.059724"
   inkscape:cy="-21.72431"
   inkscape:window-x="-8"
   inkscape:window-y="-8"
   inkscape:window-maximized="1"
   inkscape:current-layer="icon-share2" />
<metadata
   id="metadata12">
  <rdf:RDF>
    <cc:Work
       rdf:about="">
      <dc:format>image/svg+xml</dc:format>
      <dc:type
         rdf:resource="http://purl.org/dc/dcmitype/StillImage" />
      <dc:title />
    </cc:Work>
  </rdf:RDF>
</metadata>
<defs
   id="defs4" />
<path
   d="m 14.949404,3.80855 c 2.67855,0 4.849913,2.19823 4.849913,4.90985 -6.74e-4,0.46403 -0.0648,0.91298 -0.18413,1.3384 l 0.04289,0.0359 5.45003,5.12006 c 1.312937,-0.65971 2.890453,-0.40998 3.915696,0.61989 v 0 c 1.218894,1.22991 1.304939,3.1753 0.209736,4.52524 -1.095204,1.34994 -3.020737,1.67191 -4.469055,0.74725 -1.448318,-0.92464 -1.955358,-2.79966 -1.176853,-4.35178 v 0 L 18.541517,12.0129 c -0.658476,0.7352 -1.533718,1.26779 -2.523658,1.49434 l 5.57e-4,6.03497 c 1.567439,0.53063 2.523745,2.1334 2.258228,3.78483 -0.265517,1.65143 -1.674518,2.86449 -3.327269,2.86449 -1.652751,0 -3.061752,-1.21303 -3.327269,-2.86449 -0.265518,-1.65146 0.690789,-3.25426 2.258228,-3.78483 v 0 l -1.17e-4,-6.03365 c -1.006288,-0.22922 -1.894186,-0.77505 -2.556236,-1.52877 l -4.8874129,4.72423 c 0.733153,1.48354 0.2760054,3.29311 -1.0795,4.27309 -1.3555053,0.97998 -3.2095547,0.84143 -4.37823427,-0.32724 -1.16867953,-1.16868 -1.3072535,-3.02273 -0.3272455,-4.37824 0.98000807,-1.3555 2.78955557,-1.81265 4.27308797,-1.0795 v 0 L 10.271874,10.0206 C 10.159462,9.60584 10.099433,9.1692 10.099433,8.71832 c 0,-2.71162 2.171392,-4.90985 4.849913,-4.90985 z m 0,17.71787 c -0.680946,0 -1.232957,0.55883 -1.232957,1.24819 0,0.68935 0.552011,1.24819 1.232957,1.24819 0.680946,0 1.232957,-0.55884 1.232957,-1.24819 0,-0.68936 -0.552011,-1.24819 -1.232957,-1.24819 z m 12.543815,-4.1632 c -0.481522,-0.48152 -1.267029,-0.47669 -1.75444,0.0108 -0.487411,0.48747 -0.492274,1.27298 -0.01078,1.75444 0.481523,0.48152 1.267029,0.47669 1.75444,-0.0108 0.487411,-0.48747 0.492275,-1.27298 0.01078,-1.75444 z M 4.277656,17.35112 c -0.4815225,-0.48152 -1.2670289,-0.47669 -1.7544402,0.0108 -0.4874112,0.48747 -0.4922745,1.27298 -0.010781,1.75444 0.4815226,0.48152 1.267029,0.47669 1.7544402,-0.0108 0.4874112,-0.48747 0.4922745,-1.27298 0.010781,-1.75444 z M 14.949404,5.97305 c -1.497712,0 -2.711802,1.22915 -2.711802,2.74535 0,1.5162 1.214149,2.74535 2.711802,2.74535 1.496863,-0.002 2.709839,-1.22994 2.711802,-2.74535 0,-1.5162 -1.214148,-2.74535 -2.711802,-2.74535 z"
   id="path5"
   inkscape:connector-curvature="0"
   style="stroke-width:0.00088599" />
</svg>
