<?xml version="1.0" encoding="UTF-8" standalone="no"?>
<svg
   xmlns:dc="http://purl.org/dc/elements/1.1/"
   xmlns:cc="http://creativecommons.org/ns#"
   xmlns:rdf="http://www.w3.org/1999/02/22-rdf-syntax-ns#"
   xmlns:svg="http://www.w3.org/2000/svg"
   xmlns="http://www.w3.org/2000/svg"
   xmlns:sodipodi="http://sodipodi.sourceforge.net/DTD/sodipodi-0.dtd"
   xmlns:inkscape="http://www.inkscape.org/namespaces/inkscape"
   version="1.1"
   viewBox="0 0 30 30"
   height="30"
   width="30"
   id="icon-share2"
   sodipodi:docname="uE90F-linkedin.svg"
   inkscape:version="0.92.4 (5da689c313, 2019-01-14)">
  <sodipodi:namedview
     pagecolor="#ffffff"
     bordercolor="#666666"
     borderopacity="1"
     objecttolerance="10"
     gridtolerance="10"
     guidetolerance="10"
     inkscape:pageopacity="0"
     inkscape:pageshadow="2"
     inkscape:window-width="1280"
     inkscape:window-height="971"
     id="namedview6"
     showgrid="false"
     inkscape:zoom="7.8666667"
     inkscape:cx="-21.325373"
     inkscape:cy="4.3792281"
     inkscape:window-x="-8"
     inkscape:window-y="-8"
     inkscape:window-maximized="1"
     inkscape:current-layer="icon-share2" />
  <metadata
     id="metadata12">
    <rdf:RDF>
      <cc:Work
         rdf:about="">
        <dc:format>image/svg+xml</dc:format>
        <dc:type
           rdf:resource="http://purl.org/dc/dcmitype/StillImage" />
        <dc:title />
      </cc:Work>
    </rdf:RDF>
  </metadata>
  <defs
     id="defs4" />
  <path
     d="m 10.714285,9.64286 h 5.929888 v 3.03957 h 0.08478 c 0.825,-1.47971 2.844576,-3.03957 5.854085,-3.03957 6.259351,0 7.416963,3.89652 7.416963,8.96431 v 10.3214 h -6.181138 v -9.14993 c 0,-2.1825 -0.04467,-4.98971 -3.215224,-4.98971 -3.219241,0 -3.710491,2.37676 -3.710491,4.83121 v 9.30843 h -6.178861 z m -10.7142865,0 h 6.428571 V 28.92857 H -1.5e-6 Z M 6.4285695,4.28572 C 6.4285695,6.06094 4.9895075,7.5 3.2142845,7.5 1.4390605,7.5 -1.5e-6,6.06094 -1.5e-6,4.28572 c 0,-1.77523 1.439062,-3.21429 3.214286,-3.21429 1.775223,0 3.214285,1.43906 3.214285,3.21429 z"
     style="fill:#091625;stroke-width:0"
     id="path5"
     inkscape:connector-curvature="0" />
</svg>
