<?xml version="1.0" encoding="UTF-8" standalone="no"?>
<svg
   xmlns:dc="http://purl.org/dc/elements/1.1/"
   xmlns:cc="http://creativecommons.org/ns#"
   xmlns:rdf="http://www.w3.org/1999/02/22-rdf-syntax-ns#"
   xmlns:svg="http://www.w3.org/2000/svg"
   xmlns="http://www.w3.org/2000/svg"
   xmlns:sodipodi="http://sodipodi.sourceforge.net/DTD/sodipodi-0.dtd"
   xmlns:inkscape="http://www.inkscape.org/namespaces/inkscape"
   version="1.1"
   viewBox="0 0 30 30"
   height="30"
   width="30"
   id="icon-share2"
   sodipodi:docname="uE901-external-link.svg"
   inkscape:version="0.92.4 (5da689c313, 2019-01-14)">
  <sodipodi:namedview
     pagecolor="#ffffff"
     bordercolor="#666666"
     borderopacity="1"
     objecttolerance="10"
     gridtolerance="10"
     guidetolerance="10"
     inkscape:pageopacity="0"
     inkscape:pageshadow="2"
     inkscape:window-width="1280"
     inkscape:window-height="971"
     id="namedview6"
     showgrid="false"
     inkscape:zoom="3.9333333"
     inkscape:cx="15.6021"
     inkscape:cy="-34.181937"
     inkscape:window-x="-8"
     inkscape:window-y="-8"
     inkscape:window-maximized="1"
     inkscape:current-layer="icon-share2" />
  <metadata
     id="metadata12">
    <rdf:RDF>
      <cc:Work
         rdf:about="">
        <dc:format>image/svg+xml</dc:format>
        <dc:type
           rdf:resource="http://purl.org/dc/dcmitype/StillImage" />
        <dc:title />
      </cc:Work>
    </rdf:RDF>
  </metadata>
  <defs
     id="defs4" />
  <path
     d="m 3.0175195,0 c -1.6544824,0.0033 -2.994082,1.34531 -2.994082,3 0,0 0,0 0,0 v 0 24 c 0,0 0,0 0,0 0,1.65469 1.3396875,2.99675 2.9937012,3 H 26.982452 c 1.654482,-0.003 2.994082,-1.34531 2.994082,-3 0,0 0,0 0,0 v 0 -9 h -2.994082 v 9 H 3.0174902 V 3 h 8.9822468 l 0.0059,-3 H 3.0174902 Z M 17.994317,0 v 3 h 6.867187 L 6.8849414,21 9.0120703,23.12121 10.072442,22.06084 26.98248,5.12121 V 12 h 2.994082 V 3 c 0,-1.65671 -1.343291,-3 -3,-3 v 0 z"
     id="path5"
     inkscape:connector-curvature="0"
     style="stroke-width:0" />
</svg>
