<?xml version="1.0" encoding="UTF-8" standalone="no"?>
<svg
   xmlns:dc="http://purl.org/dc/elements/1.1/"
   xmlns:cc="http://creativecommons.org/ns#"
   xmlns:rdf="http://www.w3.org/1999/02/22-rdf-syntax-ns#"
   xmlns:svg="http://www.w3.org/2000/svg"
   xmlns="http://www.w3.org/2000/svg"
   version="1.1"
   viewBox="0 0 30 30"
   height="30"
   width="30"
   id="icon-share2">
  <metadata
     id="metadata12">
    <rdf:RDF>
      <cc:Work
         rdf:about="">
        <dc:format>image/svg+xml</dc:format>
        <dc:type
           rdf:resource="http://purl.org/dc/dcmitype/StillImage" />
        <dc:title></dc:title>
      </cc:Work>
    </rdf:RDF>
  </metadata>
  <defs
     id="defs4" />
  <path
     d="M 28.500088,8.2498119 C 29.328545,8.2498119 30,7.5783259 30,6.7498959 V 5.2499884 C 30,4.4215288 29.328516,3.7500731 28.500088,3.7500731 H 1.4999121 C 0.6714551,3.7500731 0,4.4215588 0,5.2499884 v 1.4999075 c 0,0.82846 0.6714844,1.499916 1.4999121,1.499916 z m 0,9.0000541 C 29.328545,17.249866 30,16.578387 30,15.749958 V 14.250042 C 30,13.42159 29.328516,12.750135 28.500088,12.750135 H 1.4999121 C 0.6714551,12.750135 0,13.421613 0,14.250042 v 1.499916 c 0,0.828452 0.6714844,1.499908 1.4999121,1.499908 z m 0,9.000061 C 29.328545,26.249927 30,25.578441 30,24.750012 v -1.499908 c 0,-0.82846 -0.671484,-1.499915 -1.499912,-1.499915 H 1.4999121 C 0.6714551,21.750189 0,22.421674 0,23.250104 v 1.499908 c 0,0.828459 0.6714844,1.499915 1.4999121,1.499915 z"
     style="fill:#091625;stroke-width:0"
     id="path5" />
</svg>
