<?xml version="1.0" encoding="UTF-8" standalone="no"?>
<svg
   xmlns:dc="http://purl.org/dc/elements/1.1/"
   xmlns:cc="http://creativecommons.org/ns#"
   xmlns:rdf="http://www.w3.org/1999/02/22-rdf-syntax-ns#"
   xmlns:svg="http://www.w3.org/2000/svg"
   xmlns="http://www.w3.org/2000/svg"
   xmlns:sodipodi="http://sodipodi.sourceforge.net/DTD/sodipodi-0.dtd"
   xmlns:inkscape="http://www.inkscape.org/namespaces/inkscape"
   version="1.1"
   viewBox="0 0 30 30"
   height="30"
   width="30"
   id="icon-share2"
   sodipodi:docname="uE916-megamenu.svg"
   inkscape:version="0.92.4 (5da689c313, 2019-01-14)">
  <sodipodi:namedview
     pagecolor="#ffffff"
     bordercolor="#666666"
     borderopacity="1"
     objecttolerance="10"
     gridtolerance="10"
     guidetolerance="10"
     inkscape:pageopacity="0"
     inkscape:pageshadow="2"
     inkscape:window-width="1280"
     inkscape:window-height="971"
     id="namedview6"
     showgrid="false"
     inkscape:zoom="7.8666667"
     inkscape:cx="10.835644"
     inkscape:cy="0.4385502"
     inkscape:window-x="-8"
     inkscape:window-y="-8"
     inkscape:window-maximized="1"
     inkscape:current-layer="icon-share2" />
  <metadata
     id="metadata12">
    <rdf:RDF>
      <cc:Work
         rdf:about="">
        <dc:format>image/svg+xml</dc:format>
        <dc:type
           rdf:resource="http://purl.org/dc/dcmitype/StillImage" />
        <dc:title />
      </cc:Work>
    </rdf:RDF>
  </metadata>
  <defs
     id="defs4" />
  <path
     d="M 5.4545508,7.5 C 6.584209,7.5 7.5,6.58421 7.5,5.45455 V 2.04545 C 7.5,0.91579 6.584209,0 5.4545508,0 H 2.0454492 C 0.91579102,0 0,0.91579 0,2.04545 v 3.4091 C 0,6.58421 0.91579102,7.5 2.0454492,7.5 Z m 11.2500002,0 C 17.834209,7.5 18.75,6.58421 18.75,5.45455 V 2.04545 C 18.75,0.91579 17.834209,0 16.704551,0 H 13.295449 C 12.165791,0 11.25,0.91579 11.25,2.04545 v 3.4091 C 11.25,6.58421 12.165791,7.5 13.295449,7.5 Z m 11.25,0 C 29.084209,7.5 30,6.58421 30,5.45455 V 2.04545 C 30,0.91579 29.084209,0 27.954551,0 H 24.545449 C 23.415791,0 22.5,0.91579 22.5,2.04545 v 3.4091 C 22.5,6.58421 23.415791,7.5 24.545449,7.5 Z M 5.4545508,18.75 C 6.584209,18.75 7.5,17.83421 7.5,16.70455 v -3.4091 C 7.5,12.16579 6.584209,11.25 5.4545508,11.25 H 2.0454492 C 0.91579102,11.25 0,12.16579 0,13.29545 v 3.4091 C 0,17.83421 0.91579102,18.75 2.0454492,18.75 Z m 11.2500002,0 C 17.834209,18.75 18.75,17.83421 18.75,16.70455 v -3.4091 C 18.75,12.16579 17.834209,11.25 16.704551,11.25 H 13.295449 C 12.165791,11.25 11.25,12.16579 11.25,13.29545 v 3.4091 c 0,1.12966 0.915791,2.04545 2.045449,2.04545 z m 11.25,0 C 29.084209,18.75 30,17.83421 30,16.70455 v -3.4091 C 30,12.16579 29.084209,11.25 27.954551,11.25 H 24.545449 C 23.415791,11.25 22.5,12.16579 22.5,13.29545 v 3.4091 c 0,1.12966 0.915791,2.04545 2.045449,2.04545 z M 5.4545508,30 C 6.584209,30 7.5,29.08421 7.5,27.95455 v -3.4091 C 7.5,23.41579 6.584209,22.5 5.4545508,22.5 H 2.0454492 C 0.91579102,22.5 0,23.41579 0,24.54545 v 3.4091 C 0,29.08421 0.91579102,30 2.0454492,30 Z M 16.704551,30 C 17.834209,30 18.75,29.08421 18.75,27.95455 v -3.4091 C 18.75,23.41579 17.834209,22.5 16.704551,22.5 H 13.295449 C 12.165791,22.5 11.25,23.41579 11.25,24.54545 v 3.4091 C 11.25,29.08421 12.165791,30 13.295449,30 Z m 11.25,0 C 29.084209,30 30,29.08421 30,27.95455 v -3.4091 C 30,23.41579 29.084209,22.5 27.954551,22.5 H 24.545449 C 23.415791,22.5 22.5,23.41579 22.5,24.54545 v 3.4091 C 22.5,29.08421 23.415791,30 24.545449,30 Z"
     style="fill:#091625;stroke-width:0"
     id="path5"
     inkscape:connector-curvature="0" />
</svg>
