<?xml version="1.0" encoding="UTF-8" standalone="no"?>
<svg
   xmlns:dc="http://purl.org/dc/elements/1.1/"
   xmlns:cc="http://creativecommons.org/ns#"
   xmlns:rdf="http://www.w3.org/1999/02/22-rdf-syntax-ns#"
   xmlns:svg="http://www.w3.org/2000/svg"
   xmlns="http://www.w3.org/2000/svg"
   xmlns:sodipodi="http://sodipodi.sourceforge.net/DTD/sodipodi-0.dtd"
   xmlns:inkscape="http://www.inkscape.org/namespaces/inkscape"
   version="1.1"
   viewBox="0 0 30 30"
   height="30"
   width="30"
   id="icon-share2"
   sodipodi:docname="uE913-location.svg"
   inkscape:version="0.92.4 (5da689c313, 2019-01-14)">
  <sodipodi:namedview
     pagecolor="#ffffff"
     bordercolor="#666666"
     borderopacity="1"
     objecttolerance="10"
     gridtolerance="10"
     guidetolerance="10"
     inkscape:pageopacity="0"
     inkscape:pageshadow="2"
     inkscape:window-width="1280"
     inkscape:window-height="971"
     id="namedview6"
     showgrid="false"
     inkscape:zoom="7.8666667"
     inkscape:cx="-18.71944"
     inkscape:cy="4.6334655"
     inkscape:window-x="-8"
     inkscape:window-y="-8"
     inkscape:window-maximized="1"
     inkscape:current-layer="icon-share2" />
  <metadata
     id="metadata12">
    <rdf:RDF>
      <cc:Work
         rdf:about="">
        <dc:format>image/svg+xml</dc:format>
        <dc:type
           rdf:resource="http://purl.org/dc/dcmitype/StillImage" />
        <dc:title />
      </cc:Work>
    </rdf:RDF>
  </metadata>
  <defs
     id="defs4" />
  <path
     d="m 14.999975,-1.25e-6 c 6.70631,0 12.14287,5.59643005 12.14287,12.50000025 0,4.2145 -2.18862,8.34504 -5.79706,12.26593 -1.23729,1.34443 -2.55934,2.56927 -3.88177,3.65334 -0.4636,0.380009 -0.89493,0.715869 -1.28347,1.004739 -0.23675,0.17601 -0.40928,0.29903 -0.50698,0.36606 -0.40787,0.279911 -0.93923,0.279911 -1.34713,0 -0.0977,-0.067 -0.2702,-0.19005 -0.50698,-0.36606 -0.38854,-0.28884 -0.81987,-0.624699 -1.28347,-1.004739 -1.32243,-1.084011 -2.64448,-2.30885 -3.88177,-3.65334 -3.608438,-3.92092 -5.79706,-8.05143 -5.79706,-12.26593 0,-6.9035403 5.43653,-12.50000025 12.14287,-12.50000025 z m 0,2.49999005 c -5.36505,0 -9.714286,4.47717 -9.714286,10.0000102 0,3.44174 1.909596,7.04563 5.131516,10.546579 1.15333,1.2532 2.39268,2.401411 3.63161,3.41698 0.33818,0.27721 0.65696,0.52846 0.95119,0.7522 0.29422,-0.223769 0.61297,-0.47502 0.95118,-0.7522 1.23893,-1.01557 2.47828,-2.16378 3.63161,-3.41698 3.22192,-3.500969 5.13152,-7.104809 5.13152,-10.546579 0,-5.5228402 -4.34924,-10.0000102 -9.71429,-10.0000102 z m 0,5.0000399 c 2.68253,0 4.85715,2.23857 4.85715,4.9999703 0,2.76141 -2.17465,4.99998 -4.85715,4.99998 -2.68254,0 -4.85716,-2.23857 -4.85716,-4.99998 0,-2.7614002 2.17465,-4.9999703 4.85716,-4.9999703 z m 0,2.4999601 c -1.34127,0 -2.42857,1.1192802 -2.42857,2.5000102 0,1.38074 1.0873,2.50002 2.42857,2.50002 1.34127,0 2.42856,-1.11928 2.42856,-2.50002 0,-1.38073 -1.08729,-2.5000102 -2.42856,-2.5000102 z"
     style="fill:#091625;stroke-width:0"
     id="path5"
     inkscape:connector-curvature="0" />
</svg>
