<?xml version="1.0" encoding="UTF-8" standalone="no"?>
<svg
   xmlns:dc="http://purl.org/dc/elements/1.1/"
   xmlns:cc="http://creativecommons.org/ns#"
   xmlns:rdf="http://www.w3.org/1999/02/22-rdf-syntax-ns#"
   xmlns:svg="http://www.w3.org/2000/svg"
   xmlns="http://www.w3.org/2000/svg"
   xmlns:sodipodi="http://sodipodi.sourceforge.net/DTD/sodipodi-0.dtd"
   xmlns:inkscape="http://www.inkscape.org/namespaces/inkscape"
   version="1.1"
   viewBox="0 0 30 30"
   height="30"
   width="30"
   id="icon-share2"
   sodipodi:docname="uE912-timer.svg"
   inkscape:version="0.92.4 (5da689c313, 2019-01-14)">
  <sodipodi:namedview
     pagecolor="#ffffff"
     bordercolor="#666666"
     borderopacity="1"
     objecttolerance="10"
     gridtolerance="10"
     guidetolerance="10"
     inkscape:pageopacity="0"
     inkscape:pageshadow="2"
     inkscape:window-width="1280"
     inkscape:window-height="971"
     id="namedview6"
     showgrid="false"
     inkscape:zoom="7.8666667"
     inkscape:cx="33.462763"
     inkscape:cy="-6.1716192"
     inkscape:window-x="-8"
     inkscape:window-y="-8"
     inkscape:window-maximized="1"
     inkscape:current-layer="icon-share2" />
  <metadata
     id="metadata12">
    <rdf:RDF>
      <cc:Work
         rdf:about="">
        <dc:format>image/svg+xml</dc:format>
        <dc:type
           rdf:resource="http://purl.org/dc/dcmitype/StillImage" />
        <dc:title />
      </cc:Work>
    </rdf:RDF>
  </metadata>
  <defs
     id="defs4" />
  <path
     d="m 19.408395,19.67869 -4.26212,-2.80213 -4.50589,2.82446 c -0.75841,0.47584 -1.21178,1.26381 -1.21178,2.10639 v 5.63936 h 11.14288 v -5.69359 c -3.5e-4,-0.8231 -0.43316,-1.59543 -1.16306,-2.07449 z M 20.655015,8.43506 V 2.55314 H 9.512125 v 5.93588 c 3.5e-4,0.82339 0.43316,1.59542 1.16306,2.07449 l 4.26212,2.80242 4.50241,-2.83403 c 0.75665,-0.47359 1.21073,-1.25746 1.21527,-2.09682 z m 2.70214,13.31812 v 5.69359 h 2.4375 c 0.76922,0 1.39284,0.57159 1.39284,1.27662 0,0.70503 -0.62367,1.27661 -1.39284,1.27661 H 4.20534 c -0.769221,0 -1.392835,-0.57158 -1.392835,-1.27661 0,-0.70503 0.623673,-1.27662 1.392835,-1.27662 h 2.437505 v -5.63936 c 0.0021,-1.6883 0.91442,-3.2662 2.4375,-4.21595 l 3.83037,-2.40956 -3.86869,-2.55316 C 7.582665,11.67002 6.716673,10.12534 6.71597,8.47982 V 2.55323 H 4.20534 C 3.436119,2.55323 2.812505,1.98164 2.812505,1.27661 2.812505,0.57158 3.436178,0 4.20534,0 h 21.589315 c 0.76922,0 1.39284,0.57158 1.39284,1.27661 0,0.70503 -0.62367,1.27662 -1.39284,1.27662 h -2.35392 v 5.88191 c -0.002,1.6883 -0.91476,3.2662 -2.4375,4.21595 l -3.83731,2.41278 3.86517,2.55317 c 1.45556,0.95584 2.32084,2.49478 2.32606,4.13617 z"
     style="fill:#091625;stroke-width:0"
     id="path5"
     inkscape:connector-curvature="0" />
</svg>
