<?xml version="1.0" encoding="UTF-8" standalone="no"?>
<svg
   xmlns:dc="http://purl.org/dc/elements/1.1/"
   xmlns:cc="http://creativecommons.org/ns#"
   xmlns:rdf="http://www.w3.org/1999/02/22-rdf-syntax-ns#"
   xmlns:svg="http://www.w3.org/2000/svg"
   xmlns="http://www.w3.org/2000/svg"
   xmlns:sodipodi="http://sodipodi.sourceforge.net/DTD/sodipodi-0.dtd"
   xmlns:inkscape="http://www.inkscape.org/namespaces/inkscape"
   version="1.1"
   viewBox="0 0 30 30"
   height="30"
   width="30"
   id="icon-share2"
   sodipodi:docname="uE915-map.svg"
   inkscape:version="0.92.4 (5da689c313, 2019-01-14)">
  <sodipodi:namedview
     pagecolor="#ffffff"
     bordercolor="#666666"
     borderopacity="1"
     objecttolerance="10"
     gridtolerance="10"
     guidetolerance="10"
     inkscape:pageopacity="0"
     inkscape:pageshadow="2"
     inkscape:window-width="1280"
     inkscape:window-height="971"
     id="namedview6"
     showgrid="false"
     inkscape:zoom="7.8666667"
     inkscape:cx="-12.363508"
     inkscape:cy="0.4385502"
     inkscape:window-x="-8"
     inkscape:window-y="-8"
     inkscape:window-maximized="1"
     inkscape:current-layer="icon-share2" />
  <metadata
     id="metadata12">
    <rdf:RDF>
      <cc:Work
         rdf:about="">
        <dc:format>image/svg+xml</dc:format>
        <dc:type
           rdf:resource="http://purl.org/dc/dcmitype/StillImage" />
        <dc:title />
      </cc:Work>
    </rdf:RDF>
  </metadata>
  <defs
     id="defs4" />
  <path
     d="m 2.90839,9.35214 c 0,-0.47356 0.446631,-0.78929 0.89332,-0.66302 v 0 L 9.92728,10.5834 V 30.00002 L 3.386954,27.97944 C 3.099816,27.88473 2.90839,27.63216 2.90839,27.31643 v 0 z m 10.94306,0.50514 3.73277,5.71447 c 0.22333,0.34728 0.54237,0.63143 0.92522,0.78929 v 0 11.46052 l -7.01888,2.17843 V 10.58337 l 2.36089,-0.72612 z m 10.87927,-0.0316 1.88233,0.5683 c 0.28714,0.0947 0.47856,0.34729 0.47856,0.66302 v 0 17.96432 c 0,0.47355 -0.44663,0.78929 -0.89332,0.66302 v 0 L 20.04082,27.79006 V 16.32953 c 0.38285,-0.1263 0.7338,-0.41045 0.9571,-0.7577 v 0 l 3.73277,-5.74606 z m -5.4309,-9.8257 0.29437,0.007 c 2.9352,0.15786 5.29608,2.58888 5.35986,5.46191 0.0319,1.07344 -0.25523,2.08374 -0.7657,2.96774 v 0 l -4.24324,6.50376 c -0.31901,0.47356 -1.02094,0.47356 -1.33995,0 v 0 L 14.36192,8.43663 C 13.88335,7.61576 13.59621,6.63704 13.59621,5.62677 c 0,-3.22031 2.74374,-5.77764 5.99795,-5.61976 z m -0.0247,2.84836 c -1.53141,0 -2.77565,1.23132 -2.77565,2.74673 0,1.51541 1.24427,2.74673 2.77565,2.74673 1.5314,0 2.77564,-1.23132 2.77564,-2.74673 0,-1.51541 -1.24427,-2.74673 -2.77564,-2.74673 z"
     style="fill:#091625;stroke-width:0"
     id="path5"
     inkscape:connector-curvature="0" />
</svg>
