<?xml version="1.0" encoding="UTF-8" standalone="no"?>
<svg
   xmlns:dc="http://purl.org/dc/elements/1.1/"
   xmlns:cc="http://creativecommons.org/ns#"
   xmlns:rdf="http://www.w3.org/1999/02/22-rdf-syntax-ns#"
   xmlns:svg="http://www.w3.org/2000/svg"
   xmlns="http://www.w3.org/2000/svg"
   xmlns:sodipodi="http://sodipodi.sourceforge.net/DTD/sodipodi-0.dtd"
   xmlns:inkscape="http://www.inkscape.org/namespaces/inkscape"
   version="1.1"
   viewBox="0 0 30 30"
   height="30"
   width="30"
   id="icon-share2"
   sodipodi:docname="uE919-pro.svg"
   inkscape:version="0.92.4 (5da689c313, 2019-01-14)">
  <sodipodi:namedview
     pagecolor="#ffffff"
     bordercolor="#666666"
     borderopacity="1"
     objecttolerance="10"
     gridtolerance="10"
     guidetolerance="10"
     inkscape:pageopacity="0"
     inkscape:pageshadow="2"
     inkscape:window-width="1280"
     inkscape:window-height="971"
     id="namedview6"
     showgrid="false"
     inkscape:zoom="7.8666667"
     inkscape:cx="8.2297119"
     inkscape:cy="-3.7563651"
     inkscape:window-x="-8"
     inkscape:window-y="-8"
     inkscape:window-maximized="1"
     inkscape:current-layer="icon-share2" />
  <metadata
     id="metadata12">
    <rdf:RDF>
      <cc:Work
         rdf:about="">
        <dc:format>image/svg+xml</dc:format>
        <dc:type
           rdf:resource="http://purl.org/dc/dcmitype/StillImage" />
        <dc:title />
      </cc:Work>
    </rdf:RDF>
  </metadata>
  <defs
     id="defs4" />
  <path
     d="m 15.7693,15.29749 c 0.48379,1.36869 0.79164,1.28036 -0.26375,2.07505 v 0 l 0.79164,6.04882 4.48584,-7.59422 c 4.68901,1.26998 8.1797,-0.26503 8.1797,7.68255 v 0 V 30 H 1.03727 v -6.49031 c 0,-7.9472 2.61812,-6.41253 8.1797,-7.68255 v 0 l 4.48585,7.59422 0.79164,-6.04882 C 13.3949,16.57785 13.74692,16.66618 14.18654,15.29749 v 0 z M 14.9996,0 c 3.37507,0 6.10875,3.22153 6.10875,7.199 0,3.97747 -2.73361,7.199 -6.10875,7.199 -3.37507,0 -6.10874,-3.22153 -6.10874,-7.199 C 8.89086,3.22153 11.62446,0 14.9996,0 Z"
     style="fill:#091625;stroke-width:0"
     id="path5"
     inkscape:connector-curvature="0" />
</svg>
