<?xml version="1.0" encoding="UTF-8" standalone="no"?>
<svg
   xmlns:dc="http://purl.org/dc/elements/1.1/"
   xmlns:cc="http://creativecommons.org/ns#"
   xmlns:rdf="http://www.w3.org/1999/02/22-rdf-syntax-ns#"
   xmlns:svg="http://www.w3.org/2000/svg"
   xmlns="http://www.w3.org/2000/svg"
   xmlns:sodipodi="http://sodipodi.sourceforge.net/DTD/sodipodi-0.dtd"
   xmlns:inkscape="http://www.inkscape.org/namespaces/inkscape"
   version="1.1"
   viewBox="0 0 30 30"
   height="30"
   width="30"
   id="icon-share2"
   sodipodi:docname="uE91A-user.svg"
   inkscape:version="0.92.4 (5da689c313, 2019-01-14)">
  <sodipodi:namedview
     pagecolor="#ffffff"
     bordercolor="#666666"
     borderopacity="1"
     objecttolerance="10"
     gridtolerance="10"
     guidetolerance="10"
     inkscape:pageopacity="0"
     inkscape:pageshadow="2"
     inkscape:window-width="1280"
     inkscape:window-height="971"
     id="namedview6"
     showgrid="false"
     inkscape:zoom="7.8666667"
     inkscape:cx="28.339267"
     inkscape:cy="-2.4849906"
     inkscape:window-x="-8"
     inkscape:window-y="-8"
     inkscape:window-maximized="1"
     inkscape:current-layer="icon-share2" />
  <metadata
     id="metadata12">
    <rdf:RDF>
      <cc:Work
         rdf:about="">
        <dc:format>image/svg+xml</dc:format>
        <dc:type
           rdf:resource="http://purl.org/dc/dcmitype/StillImage" />
        <dc:title />
      </cc:Work>
    </rdf:RDF>
  </metadata>
  <defs
     id="defs4" />
  <path
     d="m 20.90175,15.99895 c 2.59168,0 4.57355,0.85801 5.9457,2.57438 1.25781,1.57323 1.97172,3.22634 2.14217,4.95976 l 0.0328,0.47473 V 30 H 0.97758 v -5.99218 c 0.0778,-1.90663 0.80285,-3.71809 2.17496,-5.43449 1.37212,-1.71641 3.35403,-2.57438 5.9457,-2.57438 H 20.90183 Z M 14.97675,0 c 3.38374,0 6.12471,3.22971 6.12471,7.21776 0,3.98805 -2.74065,7.21776 -6.12471,7.21776 -3.38373,0 -6.12467,-3.22971 -6.12467,-7.21776 C 8.85208,3.22971 11.59273,0 14.97675,0 Z"
     style="fill:#091625;stroke-width:0"
     id="path5"
     inkscape:connector-curvature="0" />
</svg>
