<?xml version="1.0" encoding="UTF-8" standalone="no"?>
<svg
   xmlns:dc="http://purl.org/dc/elements/1.1/"
   xmlns:cc="http://creativecommons.org/ns#"
   xmlns:rdf="http://www.w3.org/1999/02/22-rdf-syntax-ns#"
   xmlns:svg="http://www.w3.org/2000/svg"
   xmlns="http://www.w3.org/2000/svg"
   xmlns:sodipodi="http://sodipodi.sourceforge.net/DTD/sodipodi-0.dtd"
   xmlns:inkscape="http://www.inkscape.org/namespaces/inkscape"
   id="icon-share2"
   width="30"
   height="30"
   viewBox="0 0 30 30"
   version="1.1"
   sodipodi:docname="uE921-dossier.svg"
   inkscape:version="0.92.4 (5da689c313, 2019-01-14)">
  <metadata
     id="metadata12">
    <rdf:RDF>
      <cc:Work
         rdf:about="">
        <dc:format>image/svg+xml</dc:format>
        <dc:type
           rdf:resource="http://purl.org/dc/dcmitype/StillImage" />
        <dc:title />
      </cc:Work>
    </rdf:RDF>
  </metadata>
  <sodipodi:namedview
     pagecolor="#ffffff"
     bordercolor="#666666"
     borderopacity="1"
     objecttolerance="10"
     gridtolerance="10"
     guidetolerance="10"
     inkscape:pageopacity="0"
     inkscape:pageshadow="2"
     inkscape:window-width="1280"
     inkscape:window-height="971"
     id="namedview10"
     showgrid="false"
     inkscape:zoom="0.12291667"
     inkscape:cx="-229.7698"
     inkscape:cy="-746.20208"
     inkscape:window-x="-8"
     inkscape:window-y="-8"
     inkscape:window-maximized="1"
     inkscape:current-layer="icon-share2" />
  <defs
     id="defs4" />
  <path
     id="path5"
     style="fill:#091625;stroke-width:0"
     inkscape:connector-curvature="0"
     d="M 3,6 H 0 v 21 c 0,1.65 1.35,3 3,3 H 24 V 27 H 3 Z M 27,0 H 9 C 7.35,0 6,1.35 6,3 v 18 c 0,1.65 1.35,3 3,3 h 18 c 1.65,0 3,-1.35 3,-3 V 3 C 30,1.35 28.65,0 27,0 Z M 25.500029,13.5 H 10.5 v -3 H 25.500029 Z M 19.5,19.50003 h -9 v -3 h 9 z m 6.000029,-12 H 10.5 v -3 h 15.000029 z" />
</svg>
