<?xml version="1.0" encoding="UTF-8" standalone="no"?>
<svg
   xmlns:dc="http://purl.org/dc/elements/1.1/"
   xmlns:cc="http://creativecommons.org/ns#"
   xmlns:rdf="http://www.w3.org/1999/02/22-rdf-syntax-ns#"
   xmlns:svg="http://www.w3.org/2000/svg"
   xmlns="http://www.w3.org/2000/svg"
   xmlns:sodipodi="http://sodipodi.sourceforge.net/DTD/sodipodi-0.dtd"
   xmlns:inkscape="http://www.inkscape.org/namespaces/inkscape"
   id="icon-share2"
   width="30"
   height="30"
   viewBox="0 0 30 30"
   version="1.1"
   sodipodi:docname="uE922-infographie.svg"
   inkscape:version="0.92.4 (5da689c313, 2019-01-14)">
  <metadata
     id="metadata12">
    <rdf:RDF>
      <cc:Work
         rdf:about="">
        <dc:format>image/svg+xml</dc:format>
        <dc:type
           rdf:resource="http://purl.org/dc/dcmitype/StillImage" />
        <dc:title />
      </cc:Work>
    </rdf:RDF>
  </metadata>
  <sodipodi:namedview
     pagecolor="#ffffff"
     bordercolor="#666666"
     borderopacity="1"
     objecttolerance="10"
     gridtolerance="10"
     guidetolerance="10"
     inkscape:pageopacity="0"
     inkscape:pageshadow="2"
     inkscape:window-width="1280"
     inkscape:window-height="971"
     id="namedview10"
     showgrid="false"
     inkscape:zoom="5.5625736"
     inkscape:cx="-15.445185"
     inkscape:cy="28.635812"
     inkscape:window-x="-8"
     inkscape:window-y="-8"
     inkscape:window-maximized="1"
     inkscape:current-layer="icon-share2" />
  <defs
     id="defs4" />
  <path
     id="path5"
     style="fill:#091625;stroke-width:0.00000002"
     inkscape:connector-curvature="0"
     d="M 26.666686,0 H 3.3333138 C 1.5000015,0 0,1.5 0,3.33331 V 26.66669 C 0,28.5 1.5000015,30 3.3333138,30 H 26.666686 C 28.499999,30 30,28.5 30,26.66669 V 3.33331 C 30,1.5 28.499999,0 26.666686,0 Z m -11.66673,24.83337 c -5.5000248,0 -10.0000292,-4.5 -10.0000292,-10.00003 0,-5.33332 4.1666935,-9.66668 9.5000192,-9.83333 v 10.00003 c 0,0.16667 0.16667,0.50001 0.50001,0.50001 h 9.83333 c -0.16667,5.16669 -4.500004,9.33335 -9.83333,9.33335 z M 16.333287,13.66671 V 4.16669 c 5.166685,0.16667 9.166709,4.33334 9.500019,9.50002 z" />
</svg>
