<?xml version="1.0" encoding="UTF-8" standalone="no"?>
<svg
   xmlns:dc="http://purl.org/dc/elements/1.1/"
   xmlns:cc="http://creativecommons.org/ns#"
   xmlns:rdf="http://www.w3.org/1999/02/22-rdf-syntax-ns#"
   xmlns:svg="http://www.w3.org/2000/svg"
   xmlns="http://www.w3.org/2000/svg"
   xmlns:sodipodi="http://sodipodi.sourceforge.net/DTD/sodipodi-0.dtd"
   xmlns:inkscape="http://www.inkscape.org/namespaces/inkscape"
   id="icon-configuration"
   width="30"
   height="30"
   viewBox="0 0 30 30"
   version="1.1"
   sodipodi:docname="configuration.svg"
   inkscape:version="0.92.4 (5da689c313, 2019-01-14)">
  <metadata
     id="metadata8">
    <rdf:RDF>
      <cc:Work
         rdf:about="">
        <dc:format>image/svg+xml</dc:format>
        <dc:type
           rdf:resource="http://purl.org/dc/dcmitype/StillImage" />
      </cc:Work>
    </rdf:RDF>
  </metadata>
  <defs
     id="defs6" />
  <sodipodi:namedview
     pagecolor="#ffffff"
     bordercolor="#666666"
     borderopacity="1"
     objecttolerance="10"
     gridtolerance="10"
     guidetolerance="10"
     inkscape:pageopacity="0"
     inkscape:pageshadow="2"
     inkscape:window-width="1280"
     inkscape:window-height="971"
     id="namedview4"
     showgrid="false"
     inkscape:zoom="7.8666667"
     inkscape:cx="15"
     inkscape:cy="15"
     inkscape:window-x="-8"
     inkscape:window-y="-8"
     inkscape:window-maximized="1"
     inkscape:current-layer="icon-configuration" />
  <path
     id="Combined_Shape-2"
     data-name="Combined Shape"
     d="m 15.099,30 a 3.75,3.75 0 0 1 -3.75,-3.75 0.8715,0.8715 0 0 0 -0.6,-0.8565 0.8235,0.8235 0 0 0 -0.33,-0.069 0.801,0.801 0 0 0 -0.5565,0.222 L 9.789,25.62 a 3.75,3.75 0 0 1 -5.3055,0 3.771,3.771 0 0 1 -1.098,-2.652 3.7275,3.7275 0 0 1 1.098,-2.652 L 4.545,20.25 A 0.825,0.825 0 0 0 4.695,19.341 0.8115,0.8115 0 0 0 3.9555,18.849 H 3.75 a 3.75,3.75 0 0 1 0,-7.5 0.8715,0.8715 0 0 0 0.8565,-0.6 0.813,0.813 0 0 0 -0.15,-0.888 L 4.383,9.7875 a 3.75,3.75 0 0 1 2.649,-6.408 3.777,3.777 0 0 1 2.652,1.098 L 9.75,4.545 a 0.813,0.813 0 0 0 0.9,0.162 1.2,1.2 0 0 1 0.249,-0.0795 0.8115,0.8115 0 0 0 0.351,-0.666 V 3.75 a 3.75,3.75 0 0 1 7.5,0 v 0.108 a 0.8385,0.8385 0 0 0 0.8355,0.819 0.7935,0.7935 0 0 0 0.555,-0.222 L 20.217,4.3815 a 3.75,3.75 0 0 1 5.304,0 3.7245,3.7245 0 0 1 1.0995,2.655 3.777,3.777 0 0 1 -1.098,2.652 L 25.455,9.75 a 0.8085,0.8085 0 0 0 -0.162,0.9 1.215,1.215 0 0 1 0.0795,0.249 0.8115,0.8115 0 0 0 0.6645,0.3555 h 0.213 a 3.75,3.75 0 0 1 0,7.5 h -0.108 a 0.828,0.828 0 0 0 -0.6,1.3905 l 0.0735,0.0765 a 3.771,3.771 0 0 1 1.098,2.652 3.7185,3.7185 0 0 1 -1.098,2.6505 3.7665,3.7665 0 0 1 -2.652,1.0995 3.7275,3.7275 0 0 1 -2.652,-1.098 L 20.25,25.455 A 0.804,0.804 0 0 0 19.6845,25.224 0.852,0.852 0 0 0 19.341,25.2975 0.8115,0.8115 0 0 0 18.849,26.037 V 26.25 A 3.75,3.75 0 0 1 15.099,30 Z m -4.668,-7.1835 a 3.075,3.075 0 0 1 1.251,0.2595 3.315,3.315 0 0 1 2.169,3.0615 V 26.25 a 1.251,1.251 0 0 0 2.5005,0 v -0.2175 a 3.3255,3.3255 0 0 1 5.658,-2.3535 l 0.0765,0.0765 a 1.2585,1.2585 0 0 0 0.8835,0.366 1.245,1.245 0 0 0 0.8865,-0.3675 1.2585,1.2585 0 0 0 0.366,-0.8835 1.245,1.245 0 0 0 -0.3675,-0.8865 L 23.7705,21.9 a 3.3285,3.3285 0 0 1 2.3685,-5.6475 h 0.111 a 1.251,1.251 0 0 0 0,-2.5005 h -0.2175 a 3.309,3.309 0 0 1 -3.033,-2.0085 1.173,1.173 0 0 1 -0.09,-0.3285 3.3,3.3 0 0 1 0.768,-3.4215 L 23.754,7.92 A 1.2585,1.2585 0 0 0 24.12,7.0365 1.245,1.245 0 0 0 23.7525,6.15 a 1.2525,1.2525 0 0 0 -1.77,0 l -0.084,0.084 a 3.2925,3.2925 0 0 1 -2.319,0.9465 3.2415,3.2415 0 0 1 -1.323,-0.279 3.312,3.312 0 0 1 -2.007,-3.036 V 3.75 a 1.251,1.251 0 1 0 -2.5005,0 V 3.9675 A 3.312,3.312 0 0 1 11.742,6.999 1.2975,1.2975 0 0 1 11.4135,7.089 3.318,3.318 0 0 1 7.992,6.321 L 7.9185,6.2445 A 1.2585,1.2585 0 0 0 7.035,5.8785 1.251,1.251 0 0 0 6.15,8.016 l 0.084,0.0855 a 3.27,3.27 0 0 1 0.693,3.579 3.318,3.318 0 0 1 -3.0645,2.169 H 3.75 a 1.251,1.251 0 0 0 0,2.5005 h 0.2175 a 3.3285,3.3285 0 0 1 2.3535,5.658 l -0.0765,0.0765 a 1.2585,1.2585 0 0 0 -0.366,0.8835 1.251,1.251 0 0 0 2.136,0.8835 L 8.1,23.7675 a 3.3525,3.3525 0 0 1 2.331,-0.951 z M 15,19.9995 A 4.9995,4.9995 0 1 1 19.9995,15 5.0055,5.0055 0 0 1 15,19.9995 Z m 0,-7.5 A 2.5005,2.5005 0 1 0 17.499,15 2.5035,2.5035 0 0 0 15,12.4995 Z"
/>
</svg>
