<?xml version="1.0" encoding="UTF-8" standalone="no"?>
<svg
   xmlns:dc="http://purl.org/dc/elements/1.1/"
   xmlns:cc="http://creativecommons.org/ns#"
   xmlns:rdf="http://www.w3.org/1999/02/22-rdf-syntax-ns#"
   xmlns:svg="http://www.w3.org/2000/svg"
   xmlns="http://www.w3.org/2000/svg"
   xmlns:sodipodi="http://sodipodi.sourceforge.net/DTD/sodipodi-0.dtd"
   xmlns:inkscape="http://www.inkscape.org/namespaces/inkscape"
   id="icon-credit-card"
   width="30"
   height="30"
   viewBox="0 0 30 30"
   version="1.1"
   sodipodi:docname="credit-card.svg"
   inkscape:version="0.92.4 (5da689c313, 2019-01-14)">
  <metadata
     id="metadata8">
    <rdf:RDF>
      <cc:Work
         rdf:about="">
        <dc:format>image/svg+xml</dc:format>
        <dc:type
           rdf:resource="http://purl.org/dc/dcmitype/StillImage" />
      </cc:Work>
    </rdf:RDF>
  </metadata>
  <defs
     id="defs6" />
  <sodipodi:namedview
     pagecolor="#ffffff"
     bordercolor="#666666"
     borderopacity="1"
     objecttolerance="10"
     gridtolerance="10"
     guidetolerance="10"
     inkscape:pageopacity="0"
     inkscape:pageshadow="2"
     inkscape:window-width="1280"
     inkscape:window-height="971"
     id="namedview4"
     showgrid="false"
     inkscape:zoom="7.8666667"
     inkscape:cx="15"
     inkscape:cy="15"
     inkscape:window-x="-8"
     inkscape:window-y="-8"
     inkscape:window-maximized="1"
     inkscape:current-layer="icon-credit-card" />
  <path
     id="Combined_Shape-2"
     data-name="Combined Shape"
     d="M 3.7500418,26.399958 A 3.779986,3.779986 0 0 1 5.5639997e-5,22.599572 V 7.4004282 A 3.779986,3.779986 0 0 1 3.7500418,3.6000423 H 26.249958 a 3.779986,3.779986 0 0 1 3.749986,3.8003859 V 22.599572 a 3.779986,3.779986 0 0 1 -3.749986,3.800386 z M 2.5008464,22.599572 a 1.2587953,1.2587953 0 0 0 1.2503954,1.267195 H 26.249958 a 1.2587953,1.2587953 0 0 0 1.250395,-1.267195 V 13.732805 H 2.5008464 Z M 27.500353,11.199614 V 7.4004282 A 1.2587953,1.2587953 0 0 0 26.249958,6.1332329 H 3.7500418 A 1.2587953,1.2587953 0 0 0 2.5008464,7.4004282 v 3.8003858 z"
     inkscape:connector-curvature="0"
     style="stroke-width:1.19999552" />
</svg>
