<?xml version="1.0" encoding="UTF-8" standalone="no"?>
<svg
   xmlns:dc="http://purl.org/dc/elements/1.1/"
   xmlns:cc="http://creativecommons.org/ns#"
   xmlns:rdf="http://www.w3.org/1999/02/22-rdf-syntax-ns#"
   xmlns:svg="http://www.w3.org/2000/svg"
   xmlns="http://www.w3.org/2000/svg"
   xmlns:sodipodi="http://sodipodi.sourceforge.net/DTD/sodipodi-0.dtd"
   xmlns:inkscape="http://www.inkscape.org/namespaces/inkscape"
   id="icon-compass"
   width="30"
   height="30"
   viewBox="0 0 30 30"
   version="1.1"
   sodipodi:docname="compass.svg"
   inkscape:version="0.92.4 (5da689c313, 2019-01-14)">
  <metadata
     id="metadata8">
    <rdf:RDF>
      <cc:Work
         rdf:about="">
        <dc:format>image/svg+xml</dc:format>
        <dc:type
           rdf:resource="http://purl.org/dc/dcmitype/StillImage" />
      </cc:Work>
    </rdf:RDF>
  </metadata>
  <defs
     id="defs6" />
  <sodipodi:namedview
     pagecolor="#ffffff"
     bordercolor="#666666"
     borderopacity="1"
     objecttolerance="10"
     gridtolerance="10"
     guidetolerance="10"
     inkscape:pageopacity="0"
     inkscape:pageshadow="2"
     inkscape:window-width="1280"
     inkscape:window-height="971"
     id="namedview4"
     showgrid="false"
     inkscape:zoom="7.8666667"
     inkscape:cx="15"
     inkscape:cy="15"
     inkscape:window-x="-8"
     inkscape:window-y="-8"
     inkscape:window-maximized="1"
     inkscape:current-layer="icon-compass" />
  <path
     id="Combined_Shape"
     data-name="Combined Shape"
     d="M 15,30 A 15,15 0 1 1 30,15 15.0165,15.0165 0 0 1 15,30 Z M 15,2.727 A 12.273,12.273 0 1 0 27.273,15 12.2865,12.2865 0 0 0 15,2.727 Z M 9.2115,22.1475 A 1.368,1.368 0 0 1 8.106,21.573 1.341,1.341 0 0 1 7.923,20.3505 l 2.892,-8.673 a 1.377,1.377 0 0 1 0.8625,-0.8625 l 8.673,-2.8905 a 1.38,1.38 0 0 1 0.438,-0.072 1.3665,1.3665 0 0 1 1.101,0.5715 1.35,1.35 0 0 1 0.1845,1.2255 l -2.889,8.673 a 1.377,1.377 0 0 1 -0.8625,0.8625 l -8.673,2.8905 a 1.3965,1.3965 0 0 1 -0.438,0.072 z M 18.624,11.373 v 0 l -5.436,1.815 -1.815,5.436 5.439,-1.812 z"
     />
</svg>
