<?xml version="1.0" encoding="UTF-8" standalone="no"?>
<svg
   xmlns:dc="http://purl.org/dc/elements/1.1/"
   xmlns:cc="http://creativecommons.org/ns#"
   xmlns:rdf="http://www.w3.org/1999/02/22-rdf-syntax-ns#"
   xmlns:svg="http://www.w3.org/2000/svg"
   xmlns="http://www.w3.org/2000/svg"
   xmlns:sodipodi="http://sodipodi.sourceforge.net/DTD/sodipodi-0.dtd"
   xmlns:inkscape="http://www.inkscape.org/namespaces/inkscape"
   id="icon-arrow-down-right"
   width="30"
   height="30"
   viewBox="0 0 30 30"
   version="1.1"
   sodipodi:docname="arrow-down-right.svg"
   inkscape:version="0.92.4 (5da689c313, 2019-01-14)">
  <metadata
     id="metadata12">
    <rdf:RDF>
      <cc:Work
         rdf:about="">
        <dc:format>image/svg+xml</dc:format>
        <dc:type
           rdf:resource="http://purl.org/dc/dcmitype/StillImage" />
      </cc:Work>
    </rdf:RDF>
  </metadata>
  <sodipodi:namedview
     pagecolor="#ffffff"
     bordercolor="#666666"
     borderopacity="1"
     objecttolerance="10"
     gridtolerance="10"
     guidetolerance="10"
     inkscape:pageopacity="0"
     inkscape:pageshadow="2"
     inkscape:window-width="1280"
     inkscape:window-height="971"
     id="namedview10"
     showgrid="false"
     inkscape:zoom="7.8666667"
     inkscape:cx="15"
     inkscape:cy="15"
     inkscape:window-x="-8"
     inkscape:window-y="-8"
     inkscape:window-maximized="1"
     inkscape:current-layer="icon-arrow-down-right" />
  <path
     d="m 15.989768,29.632161 a 1.249933,1.249933 0 0 1 0,-1.767405 l 4.11603,-4.11603 H 11.874989 A 6.249665,6.249665 0 0 1 5.6253237,17.499062 V 1.2499328 a 1.249933,1.249933 0 0 1 2.499866,0 V 17.499062 a 3.749799,3.749799 0 0 0 3.7497993,3.749798 h 8.232059 l -4.11728,-4.116029 a 1.2501864,1.2501864 0 0 1 1.768656,-1.767405 l 6.249664,6.249665 a 1.249933,1.249933 0 0 1 0,1.768655 l -6.249664,6.249665 a 1.249933,1.249933 0 0 1 -1.768656,0 z"
 />
</svg>
