<?xml version="1.0" encoding="UTF-8" standalone="no"?>
<svg
   xmlns:dc="http://purl.org/dc/elements/1.1/"
   xmlns:cc="http://creativecommons.org/ns#"
   xmlns:rdf="http://www.w3.org/1999/02/22-rdf-syntax-ns#"
   xmlns:svg="http://www.w3.org/2000/svg"
   xmlns="http://www.w3.org/2000/svg"
   xmlns:sodipodi="http://sodipodi.sourceforge.net/DTD/sodipodi-0.dtd"
   xmlns:inkscape="http://www.inkscape.org/namespaces/inkscape"
   id="icon-add"
   width="30"
   height="30"
   viewBox="0 0 30 30"
   version="1.1"
   sodipodi:docname="uEA01-add.svg"
   inkscape:version="0.92.4 (5da689c313, 2019-01-14)">
  <metadata
     id="metadata12">
    <rdf:RDF>
      <cc:Work
         rdf:about="">
        <dc:format>image/svg+xml</dc:format>
        <dc:type
           rdf:resource="http://purl.org/dc/dcmitype/StillImage" />
      </cc:Work>
    </rdf:RDF>
  </metadata>
  <sodipodi:namedview
     pagecolor="#ffffff"
     bordercolor="#666666"
     borderopacity="1"
     objecttolerance="10"
     gridtolerance="10"
     guidetolerance="10"
     inkscape:pageopacity="0"
     inkscape:pageshadow="2"
     inkscape:window-width="1280"
     inkscape:window-height="971"
     id="namedview10"
     showgrid="false"
     inkscape:zoom="7.8666667"
     inkscape:cx="-10.23305"
     inkscape:cy="2.161017"
     inkscape:window-x="-8"
     inkscape:window-y="-8"
     inkscape:window-maximized="1"
     inkscape:current-layer="icon-add" />
  <defs
     id="defs4" />
  <g
     id="g5" />
  <path
     id="Combined_Shape-2"
     data-name="Combined Shape"
     d="M 0,15 A 15,15 0 1 1 15,30 15.016957,15.016957 0 0 1 0,15 Z m 2.7273913,0 A 12.272609,12.272609 0 1 0 15,2.7273913 12.285652,12.285652 0 0 0 2.7273913,15 Z M 13.636957,20.453478 V 16.363043 H 9.5465217 a 1.3636957,1.3636957 0 0 1 0,-2.727391 H 13.636957 V 9.5465217 a 1.3636957,1.3636957 0 0 1 2.727391,0 v 4.0904353 h 4.090435 a 1.3636957,1.3636957 0 0 1 0,2.727391 h -4.09174 v 4.090435 a 1.3636957,1.3636957 0 0 1 -2.727391,0 z"
     inkscape:connector-curvature="0"
     style="fill:#091625;stroke-width:1.30434787;stroke:none" />
</svg>
