<?xml version="1.0" encoding="UTF-8" standalone="no"?>
<svg
   xmlns:dc="http://purl.org/dc/elements/1.1/"
   xmlns:cc="http://creativecommons.org/ns#"
   xmlns:rdf="http://www.w3.org/1999/02/22-rdf-syntax-ns#"
   xmlns:svg="http://www.w3.org/2000/svg"
   xmlns="http://www.w3.org/2000/svg"
   xmlns:sodipodi="http://sodipodi.sourceforge.net/DTD/sodipodi-0.dtd"
   xmlns:inkscape="http://www.inkscape.org/namespaces/inkscape"
   id="icon-gallery"
   width="30"
   height="30"
   viewBox="0 0 30 30"
   version="1.1"
   sodipodi:docname="uEA04-gallery.svg"
   inkscape:version="0.92.4 (5da689c313, 2019-01-14)">
  <metadata
     id="metadata12">
    <rdf:RDF>
      <cc:Work
         rdf:about="">
        <dc:format>image/svg+xml</dc:format>
        <dc:type
           rdf:resource="http://purl.org/dc/dcmitype/StillImage" />
      </cc:Work>
    </rdf:RDF>
  </metadata>
  <sodipodi:namedview
     pagecolor="#ffffff"
     bordercolor="#666666"
     borderopacity="1"
     objecttolerance="10"
     gridtolerance="10"
     guidetolerance="10"
     inkscape:pageopacity="0"
     inkscape:pageshadow="2"
     inkscape:window-width="1280"
     inkscape:window-height="971"
     id="namedview10"
     showgrid="false"
     inkscape:zoom="7.8666667"
     inkscape:cx="-31.398305"
     inkscape:cy="15"
     inkscape:window-x="-8"
     inkscape:window-y="-8"
     inkscape:window-maximized="1"
     inkscape:current-layer="icon-gallery" />
  <defs
     id="defs4" />
  <path
     d="M 28.5,30 H 18 A 1.5,1.5 0 0 1 16.5,28.5 V 18 A 1.5,1.5 0 0 1 18,16.5 H 28.5 A 1.5,1.5 0 0 1 30,18 V 28.5 A 1.5,1.5 0 0 1 28.5,30 Z m -9,-10.5 V 27 H 27 V 19.5 Z M 12,30 H 1.5 A 1.5,1.5 0 0 1 0,28.5 V 18 A 1.5,1.5 0 0 1 1.5,16.5 H 12 A 1.5,1.5 0 0 1 13.5,18 V 28.5 A 1.5,1.5 0 0 1 12,30 Z M 3,19.5 V 27 h 7.5 v -7.5 z m 25.5,-6 H 18 A 1.5,1.5 0 0 1 16.5,12 V 1.5 A 1.5,1.5 0 0 1 18,0 H 28.5 A 1.5,1.5 0 0 1 30,1.5 V 12 a 1.5,1.5 0 0 1 -1.5,1.5 z M 19.5,3 v 7.5 H 27 V 3 Z M 12,13.5 H 1.5 A 1.5,1.5 0 0 1 0,12 V 1.5 A 1.5,1.5 0 0 1 1.5,0 H 12 a 1.5,1.5 0 0 1 1.5,1.5 V 12 A 1.5,1.5 0 0 1 12,13.5 Z M 3,3 v 7.5 h 7.5 V 3 Z"
     inkscape:connector-curvature="0"
     style="fill:#091625;stroke-width:1.5;stroke:none"
     id="path5" />
</svg>
