<?xml version="1.0" encoding="UTF-8" standalone="no"?>
<svg
   xmlns:dc="http://purl.org/dc/elements/1.1/"
   xmlns:cc="http://creativecommons.org/ns#"
   xmlns:rdf="http://www.w3.org/1999/02/22-rdf-syntax-ns#"
   xmlns:svg="http://www.w3.org/2000/svg"
   xmlns="http://www.w3.org/2000/svg"
   xmlns:sodipodi="http://sodipodi.sourceforge.net/DTD/sodipodi-0.dtd"
   xmlns:inkscape="http://www.inkscape.org/namespaces/inkscape"
   id="icon-flag"
   width="30"
   height="30"
   viewBox="0 0 30 30"
   version="1.1"
   sodipodi:docname="flag.svg"
   inkscape:version="0.92.4 (5da689c313, 2019-01-14)">
  <metadata
     id="metadata8">
    <rdf:RDF>
      <cc:Work
         rdf:about="">
        <dc:format>image/svg+xml</dc:format>
        <dc:type
           rdf:resource="http://purl.org/dc/dcmitype/StillImage" />
      </cc:Work>
    </rdf:RDF>
  </metadata>
  <defs
     id="defs6" />
  <sodipodi:namedview
     pagecolor="#ffffff"
     bordercolor="#666666"
     borderopacity="1"
     objecttolerance="10"
     gridtolerance="10"
     guidetolerance="10"
     inkscape:pageopacity="0"
     inkscape:pageshadow="2"
     inkscape:window-width="1280"
     inkscape:window-height="971"
     id="namedview4"
     showgrid="false"
     inkscape:zoom="7.8666667"
     inkscape:cx="15"
     inkscape:cy="15"
     inkscape:window-x="-8"
     inkscape:window-y="-8"
     inkscape:window-maximized="1"
     inkscape:current-layer="icon-flag" />
  <path
     id="Combined_Shape-2"
     data-name="Combined Shape"
     d="M 2.732403,28.632085 V 2.7318115 a 1.3726299,1.3726299 0 0 1 0.3986516,-0.963408 5.0329764,5.0329764 0 0 1 1.6519881,-0.9845486 12.888225,12.888225 0 0 1 4.7656986,-0.7791823 14.330317,14.330317 0 0 1 5.9586337,1.4617221 12.264577,12.264577 0 0 0 4.946903,1.2654168 10.284909,10.284909 0 0 0 3.75397,-0.584387 2.9038145,2.9038145 0 0 0 0.735391,-0.379021 1.342429,1.342429 0 0 1 0.952838,-0.4046918 1.3590395,1.3590395 0 0 1 1.37263,1.3590395 V 19.090117 a 1.3665897,1.3665897 0 0 1 -0.398652,0.963408 4.8759318,4.8759318 0 0 1 -1.648968,0.983039 12.904835,12.904835 0 0 1 -4.767209,0.779183 14.365048,14.365048 0 0 1 -5.960143,-1.460213 12.220785,12.220785 0 0 0 -4.9469037,-1.265417 10.284909,10.284909 0 0 0 -3.7524592,0.582877 c -0.1298638,0.05134 -0.241607,0.101173 -0.3367398,0.151005 v 8.812616 a 1.3635697,1.3635697 0 0 1 -2.7271393,0 z M 15.507375,17.82319 a 12.231356,12.231356 0 0 0 4.946903,1.266927 10.31662,10.31662 0 0 0 3.75397,-0.584387 q 0.193285,-0.07852 0.336739,-0.151004 V 4.915335 A 14.008677,14.008677 0 0 1 20.454278,5.4559307 14.365048,14.365048 0 0 1 14.495645,3.9972283 12.252496,12.252496 0 0 0 9.5487413,2.7318115 10.268299,10.268299 0 0 0 5.7962822,3.3161985 C 5.6724586,3.3660305 5.5576952,3.4128415 5.4595424,3.4672029 V 16.906594 a 13.979987,13.979987 0 0 1 4.0891989,-0.540596 14.362028,14.362028 0 0 1 5.9586337,1.457192 z"
     inkscape:connector-curvature="0"
     style="stroke-width:1.51004398" />
</svg>
