<?xml version="1.0" encoding="UTF-8" standalone="no"?>
<svg
   xmlns:dc="http://purl.org/dc/elements/1.1/"
   xmlns:cc="http://creativecommons.org/ns#"
   xmlns:rdf="http://www.w3.org/1999/02/22-rdf-syntax-ns#"
   xmlns:svg="http://www.w3.org/2000/svg"
   xmlns="http://www.w3.org/2000/svg"
   xmlns:sodipodi="http://sodipodi.sourceforge.net/DTD/sodipodi-0.dtd"
   xmlns:inkscape="http://www.inkscape.org/namespaces/inkscape"
   id="icon-cart"
   width="30"
   height="30"
   viewBox="0 0 30 30"
   version="1.1"
   sodipodi:docname="cart.svg"
   inkscape:version="0.92.4 (5da689c313, 2019-01-14)">
  <metadata
     id="metadata8">
    <rdf:RDF>
      <cc:Work
         rdf:about="">
        <dc:format>image/svg+xml</dc:format>
        <dc:type
           rdf:resource="http://purl.org/dc/dcmitype/StillImage" />
      </cc:Work>
    </rdf:RDF>
  </metadata>
  <defs
     id="defs6" />
  <sodipodi:namedview
     pagecolor="#ffffff"
     bordercolor="#666666"
     borderopacity="1"
     objecttolerance="10"
     gridtolerance="10"
     guidetolerance="10"
     inkscape:pageopacity="0"
     inkscape:pageshadow="2"
     inkscape:window-width="1280"
     inkscape:window-height="971"
     id="namedview4"
     showgrid="false"
     inkscape:zoom="7.8666667"
     inkscape:cx="15.762712"
     inkscape:cy="22.372881"
     inkscape:window-x="-8"
     inkscape:window-y="-8"
     inkscape:window-maximized="1"
     inkscape:current-layer="icon-cart" />
  <path
     id="Combined_Shape"
     data-name="Combined Shape"
     d="M 18.758872,25.23076 A 3.923428,3.923428 0 1 1 22.6823,29.154187 3.9271944,3.9271944 0 0 1 18.758872,25.23076 Z m 2.6152,0.0088 a 1.3044614,1.3044614 0 0 0 1.306972,1.299439 h 0.06529 a 1.2642855,1.2642855 0 0 0 0.890147,-0.390459 1.2780959,1.2780959 0 0 0 0.35405,-0.907724 1.3145053,1.3145053 0 0 0 -1.309484,-1.318272 1.3358487,1.3358487 0 0 0 -1.305716,1.315761 z M 8.9157756,27.979042 a 3.8794856,3.8794856 0 0 1 -1.1299473,-2.783437 3.9347275,3.9347275 0 0 1 3.9246837,-3.89204 h 0.03389 a 3.92845,3.92845 0 0 1 3.89204,3.958582 3.915895,3.915895 0 0 1 -6.7206752,2.716895 z m 1.8455804,-3.653495 a 1.2831179,1.2831179 0 0 0 -0.365349,0.932833 v 0.0088 a 1.2743295,1.2743295 0 0 0 1.273074,1.273073 h 0.06278 a 1.3082278,1.3082278 0 1 0 -0.969243,-2.213441 z m 0.283743,-3.251738 A 4.4833796,4.4833796 0 0 1 6.7035899,17.49941 L 4.0934118,4.3531011 1.0626421,3.7843609 A 1.5065963,1.5065963 0 0 1 0.02560166,2.0680965 1.5442612,1.5442612 0 0 1 1.5434974,0.83770946 1.5279398,1.5279398 0 0 1 1.8197068,0.86156446 L 5.6514835,1.5910082 A 1.6221021,1.6221021 0 0 1 6.8504831,2.7686644 L 7.6288912,6.7573781 H 28.501528 a 1.5442612,1.5442612 0 0 1 1.199,0.5524187 v 0.010044 a 1.5543052,1.5543052 0 0 1 0.2511,1.3019504 l -2.700575,9.2718438 a 4.4482257,4.4482257 0 0 1 -4.244834,3.177663 z M 9.6640516,16.970845 a 1.4099231,1.4099231 0 0 0 1.3810474,1.129947 H 23.02254 a 1.3107389,1.3107389 0 0 0 1.328315,-1.004397 L 26.492733,9.7755924 H 8.2277633 Z"
     inkscape:connector-curvature="0"
     style="stroke-width:1.25549698" />
</svg>
