<?xml version="1.0" encoding="UTF-8" standalone="no"?>
<svg
   xmlns:dc="http://purl.org/dc/elements/1.1/"
   xmlns:cc="http://creativecommons.org/ns#"
   xmlns:rdf="http://www.w3.org/1999/02/22-rdf-syntax-ns#"
   xmlns:svg="http://www.w3.org/2000/svg"
   xmlns="http://www.w3.org/2000/svg"
   xmlns:sodipodi="http://sodipodi.sourceforge.net/DTD/sodipodi-0.dtd"
   xmlns:inkscape="http://www.inkscape.org/namespaces/inkscape"
   id="icon-delivery"
   width="30"
   height="30"
   viewBox="0 0 30 30"
   version="1.1"
   sodipodi:docname="uEA03-delivery.svg"
   inkscape:version="0.92.4 (5da689c313, 2019-01-14)">
  <metadata
     id="metadata12">
    <rdf:RDF>
      <cc:Work
         rdf:about="">
        <dc:format>image/svg+xml</dc:format>
        <dc:type
           rdf:resource="http://purl.org/dc/dcmitype/StillImage" />
      </cc:Work>
    </rdf:RDF>
  </metadata>
  <sodipodi:namedview
     pagecolor="#ffffff"
     bordercolor="#666666"
     borderopacity="1"
     objecttolerance="10"
     gridtolerance="10"
     guidetolerance="10"
     inkscape:pageopacity="0"
     inkscape:pageshadow="2"
     inkscape:window-width="1280"
     inkscape:window-height="971"
     id="namedview10"
     showgrid="false"
     inkscape:zoom="7.8666667"
     inkscape:cx="22.754237"
     inkscape:cy="9.2796611"
     inkscape:window-x="-8"
     inkscape:window-y="-8"
     inkscape:window-maximized="1"
     inkscape:current-layer="icon-delivery" />
  <defs
     id="defs4" />
  <g
     id="g5" />
  <path
     id="Combined_Shape-2"
     data-name="Combined Shape"
     d="M 13.282043,29.597294 3.0790523,24.494552 A 3.8435753,3.8435753 0 0 1 0.97462303,21.06114 V 8.9220253 A 3.8024342,3.8024342 0 0 1 3.0940127,5.4998345 L 7.9474148,3.0737568 A 1.2803606,1.2803606 0 0 1 8.1643405,2.9652939 L 13.297003,0.39958577 a 3.8261215,3.8261215 0 0 1 3.404737,0 L 26.905978,5.4985878 a 3.8024342,3.8024342 0 0 1 2.11939,3.4246842 v 12.151582 a 3.7999408,3.7999408 0 0 1 -2.11939,3.422191 l -10.199251,5.099002 a 3.8286149,3.8286149 0 0 1 -3.423437,0 z M 3.5241241,21.068621 a 1.2803606,1.2803606 0 0 0 0.6981518,1.14447 l 9.5023451,4.751173 V 14.497267 L 3.5241241,9.4044981 Z m 12.7499979,5.890656 9.492372,-4.747433 a 1.2666469,1.2666469 0 0 0 0.708126,-1.14073 V 9.4057448 l -4.51804,2.2590202 -0.0187,0.0087 -5.66251,2.831255 z M 14.999995,12.291855 18.524415,10.530268 8.631853,5.5833634 5.1074328,7.3461968 Z M 21.375618,9.1003034 24.892558,7.3424567 15.56101,2.6822931 a 1.2716337,1.2716337 0 0 0 -1.130756,0 l -2.948445,1.4760925 z"
     inkscape:connector-curvature="0"
     style="fill:#091625;stroke-width:1.24669981;stroke:none" />
</svg>
