<?xml version="1.0" encoding="UTF-8" standalone="no"?>
<svg
   xmlns:dc="http://purl.org/dc/elements/1.1/"
   xmlns:cc="http://creativecommons.org/ns#"
   xmlns:rdf="http://www.w3.org/1999/02/22-rdf-syntax-ns#"
   xmlns:svg="http://www.w3.org/2000/svg"
   xmlns="http://www.w3.org/2000/svg"
   xmlns:sodipodi="http://sodipodi.sourceforge.net/DTD/sodipodi-0.dtd"
   xmlns:inkscape="http://www.inkscape.org/namespaces/inkscape"
   id="icon-delete"
   width="30"
   height="30"
   viewBox="0 0 30 30"
   version="1.1"
   sodipodi:docname="uEA02-delete.svg"
   inkscape:version="0.92.4 (5da689c313, 2019-01-14)">
  <metadata
     id="metadata12">
    <rdf:RDF>
      <cc:Work
         rdf:about="">
        <dc:format>image/svg+xml</dc:format>
        <dc:type
           rdf:resource="http://purl.org/dc/dcmitype/StillImage" />
      </cc:Work>
    </rdf:RDF>
  </metadata>
  <sodipodi:namedview
     pagecolor="#ffffff"
     bordercolor="#666666"
     borderopacity="1"
     objecttolerance="10"
     gridtolerance="10"
     guidetolerance="10"
     inkscape:pageopacity="0"
     inkscape:pageshadow="2"
     inkscape:window-width="1280"
     inkscape:window-height="971"
     id="namedview10"
     showgrid="false"
     inkscape:zoom="7.8666667"
     inkscape:cx="-31.398305"
     inkscape:cy="15"
     inkscape:window-x="-8"
     inkscape:window-y="-8"
     inkscape:window-maximized="1"
     inkscape:current-layer="icon-delete" />
  <defs
     id="defs4" />
  <g
     id="g5" />
  <path
     id="Combined_Shape-2"
     data-name="Combined Shape"
     d="M 8.1818181,30 A 4.0909091,4.0909091 0 0 1 4.090909,25.909091 V 8.1818182 H 2.7272727 a 1.3636364,1.3636364 0 1 1 0,-2.7272727 H 8.1818181 V 4.0909091 A 4.0909091,4.0909091 0 0 1 12.272727,0 h 5.454545 a 4.0909091,4.0909091 0 0 1 4.090909,4.0909091 v 1.3636364 h 5.454546 a 1.3636364,1.3636364 0 1 1 0,2.7272727 H 25.909091 V 25.909091 A 4.0909091,4.0909091 0 0 1 21.818181,30 Z M 6.8181818,25.909091 a 1.3636364,1.3636364 0 0 0 1.3636363,1.363636 H 21.818181 a 1.3636364,1.3636364 0 0 0 1.363637,-1.363636 V 8.1818182 H 6.8181818 Z M 19.090909,5.4545455 V 4.0909091 A 1.3636364,1.3636364 0 0 0 17.727272,2.7272727 H 12.272727 A 1.3636364,1.3636364 0 0 0 10.909091,4.0909091 V 5.4545455 Z M 16.363636,21.818182 v -8.181818 a 1.3636365,1.3636365 0 1 1 2.727273,0 v 8.181818 a 1.3636365,1.3636365 0 1 1 -2.727273,0 z m -5.454545,0 v -8.181818 a 1.3636364,1.3636364 0 0 1 2.727272,0 v 8.181818 a 1.3636364,1.3636364 0 1 1 -2.727272,0 z"
     inkscape:connector-curvature="0"
     style="fill:#091625;stroke-width:1.36363637;stroke:none" />
</svg>
