<?xml version="1.0" encoding="UTF-8" standalone="no"?>
<svg
   xmlns:dc="http://purl.org/dc/elements/1.1/"
   xmlns:cc="http://creativecommons.org/ns#"
   xmlns:rdf="http://www.w3.org/1999/02/22-rdf-syntax-ns#"
   xmlns:svg="http://www.w3.org/2000/svg"
   xmlns="http://www.w3.org/2000/svg"
   xmlns:sodipodi="http://sodipodi.sourceforge.net/DTD/sodipodi-0.dtd"
   xmlns:inkscape="http://www.inkscape.org/namespaces/inkscape"
   id="icon-drag_n-drop"
   data-name="icon-drag'n-drop"
   width="30"
   height="30"
   viewBox="0 0 30 30"
   version="1.1"
   sodipodi:docname="drag-n-drop.svg"
   inkscape:version="0.92.4 (5da689c313, 2019-01-14)">
  <metadata
     id="metadata8">
    <rdf:RDF>
      <cc:Work
         rdf:about="">
        <dc:format>image/svg+xml</dc:format>
        <dc:type
           rdf:resource="http://purl.org/dc/dcmitype/StillImage" />
      </cc:Work>
    </rdf:RDF>
  </metadata>
  <defs
     id="defs6" />
  <sodipodi:namedview
     pagecolor="#ffffff"
     bordercolor="#666666"
     borderopacity="1"
     objecttolerance="10"
     gridtolerance="10"
     guidetolerance="10"
     inkscape:pageopacity="0"
     inkscape:pageshadow="2"
     inkscape:window-width="1280"
     inkscape:window-height="971"
     id="namedview4"
     showgrid="false"
     inkscape:zoom="7.8666667"
     inkscape:cx="15"
     inkscape:cy="15"
     inkscape:window-x="-8"
     inkscape:window-y="-8"
     inkscape:window-maximized="1"
     inkscape:current-layer="icon-drag_n-drop" />
  <path
     id="Combined_Shape-2"
     data-name="Combined Shape"
     d="m 15.031566,30 h -0.133781 -0.02104 -0.01203 -0.02255 -0.01052 -0.02255 -0.01052 -0.02255 -0.01052 -0.02255 -0.01202 -0.01954 -0.01503 -0.01653 -0.01804 -0.01202 -0.02255 v 0 l -0.02856,-0.009 v 0 A 1.3633631,1.3633631 0 0 1 14.069546,29.66179 L 9.9659284,25.499549 A 1.3668794,1.3668794 0 0 1 11.898988,23.56649 l 1.766209,1.773724 V 16.334803 H 4.6597855 l 1.7677122,1.767712 A 1.3663694,1.3663694 0 1 1 4.5004509,20.034072 L 0.42839964,15.960517 A 1.3738852,1.3738852 0 0 1 0.19090089,15.659886 v 0 l -0.0150316,-0.02706 v 0 l -0.0135284,-0.02555 v 0 l -0.0120253,-0.03758 v 0 l -0.0120252,-0.02555 v 0 l -0.0120253,-0.02706 v 0 l -0.0120253,-0.02856 v 0 l -0.0120253,-0.03006 v 0 A 1.352841,1.352841 0 0 1 0,15.099208 v 0 -0.03006 0 c 0,-0.009 0,-0.01654 0,-0.02555 v -0.01353 c 0,0 0,-0.01353 0,-0.01954 0,-0.006 0,-0.02856 0,-0.04209 v 0 0 c 0,-0.01202 0,-0.02255 0,-0.03457 v -0.01052 c 0,0 0,-0.01503 0,-0.02255 v -0.06614 -0.02255 -0.01052 -0.02555 0 -0.02555 -0.01353 -0.02405 -0.009 -0.02255 -0.01202 -0.02104 -0.01353 -0.01804 -0.01653 -0.01353 -0.02104 -0.009 l 0.07064836,-0.02405 v 0 A 1.3633631,1.3633631 0 0 1 0.39833651,14.00491 L 4.5004509,9.9027959 A 1.3663694,1.3663694 0 1 1 6.4320072,11.834352 L 4.6597855,13.602064 H 13.665197 V 4.596653 L 11.897485,6.3688746 A 1.3663694,1.3663694 0 0 1 9.9659284,4.4373184 L 14.065037,0.3382102 a 1.3633631,1.3633631 0 0 1 0.527608,-0.3291913 v 0 L 14.621205,0 h 0.009 0.02104 0.01353 0.01653 0.01804 0.01353 0.02104 0.01203 0.02255 0.0075 0.02405 0.0075 0.02555 v 0 h 0.02555 0.02255 0.02255 0.232989 0.03006 v 0 a 1.352841,1.352841 0 0 1 0.351739,0.081171 v 0 l 0.03006,0.012025 v 0 l 0.02856,0.012025 v 0 l 0.02706,0.012025 v 0 l 0.02856,-0.040585 v 0 l 0.03157,0.010522 v 0 l 0.02555,0.013528 v 0 l 0.02706,0.015032 v 0 a 1.3738852,1.3738852 0 0 1 0.300631,0.2374987 l 4.073555,4.0720513 a 1.3668796,1.3668796 0 1 1 -1.93306,1.9330594 L 16.397936,4.596653 v 9.005411 h 9.005411 l -1.772222,-1.767712 a 1.3663694,1.3663694 0 0 1 1.931557,-1.9315561 l 4.099108,4.0991081 a 1.3633631,1.3633631 0 0 1 0.329191,0.529111 v 0 L 30,14.559575 v 0 0.02255 0.01202 0.01804 0.01653 0.01503 0.01954 0.01203 0.02255 0.01503 0.02255 0.009 0.02255 0.01052 0.02255 0.01804 0.02104 0.06614 c 0,0.0075 0,0.01503 0,0.02405 v 0.01052 c 0,0.01202 0,0.02255 0,0.03457 v 0 0 c 0,0.01052 0,0.02104 0,0.03006 0,0.009 0,0.01202 0,0.01804 v 0.01503 c 0,0.0075 0,0.01653 0,0.02405 v 0.0075 0.02856 0 0.03157 0 a 1.352841,1.352841 0 0 1 -0.06764,0.288606 v 0 l -0.01052,0.03157 v 0 l -0.01202,0.03006 v 0 l -0.01203,0.02856 v 0 l -0.01202,0.02555 v 0 l -0.01203,0.02405 v 0 l -0.01203,0.02255 v 0 l -0.01203,0.02405 v 0 l -0.01353,0.02405 v 0 l -0.01653,0.02706 v 0 a 1.3738852,1.3738852 0 0 1 -0.220964,0.269065 l -4.072051,4.073555 a 1.3668796,1.3668796 0 0 1 -1.93306,-1.93306 l 1.809801,-1.730133 h -9.005411 v 9.005411 l 1.767712,-1.767712 a 1.3668795,1.3668795 0 0 1 1.933059,1.93306 l -4.073554,4.072051 a 1.3738852,1.3738852 0 0 1 -0.269065,0.220964 v 0 l -0.02706,0.01653 v 0 l -0.02405,0.01353 v 0 l -0.02405,0.01203 v 0 l -0.0481,0.009 v 0 l -0.02405,0.01203 v 0 l -0.02555,0.01203 v 0 l -0.02856,0.01203 v 0 l -0.03006,0.01202 v 0 l -0.03157,0.01052 v 0 a 1.352841,1.352841 0 0 1 -0.288606,0.06764 v 0 h -0.03157 v 0 h -0.02856 -0.112737 z"
 />
</svg>
