<?xml version="1.0" encoding="UTF-8" standalone="no"?>
<svg
   xmlns:dc="http://purl.org/dc/elements/1.1/"
   xmlns:cc="http://creativecommons.org/ns#"
   xmlns:rdf="http://www.w3.org/1999/02/22-rdf-syntax-ns#"
   xmlns:svg="http://www.w3.org/2000/svg"
   xmlns="http://www.w3.org/2000/svg"
   xmlns:sodipodi="http://sodipodi.sourceforge.net/DTD/sodipodi-0.dtd"
   xmlns:inkscape="http://www.inkscape.org/namespaces/inkscape"
   id="icon-fullscreen"
   width="30"
   height="30"
   viewBox="0 0 30 30"
   version="1.1"
   sodipodi:docname="fullscreen-alt.svg"
   inkscape:version="0.92.4 (5da689c313, 2019-01-14)">
  <metadata
     id="metadata8">
    <rdf:RDF>
      <cc:Work
         rdf:about="">
        <dc:format>image/svg+xml</dc:format>
        <dc:type
           rdf:resource="http://purl.org/dc/dcmitype/StillImage" />
      </cc:Work>
    </rdf:RDF>
  </metadata>
  <defs
     id="defs6" />
  <sodipodi:namedview
     pagecolor="#ffffff"
     bordercolor="#666666"
     borderopacity="1"
     objecttolerance="10"
     gridtolerance="10"
     guidetolerance="10"
     inkscape:pageopacity="0"
     inkscape:pageshadow="2"
     inkscape:window-width="1280"
     inkscape:window-height="971"
     id="namedview4"
     showgrid="false"
     inkscape:zoom="7.8666667"
     inkscape:cx="15"
     inkscape:cy="15"
     inkscape:window-x="-8"
     inkscape:window-y="-8"
     inkscape:window-maximized="1"
     inkscape:current-layer="icon-fullscreen" />
  <path
     id="Combined_Shape"
     data-name="Combined Shape"
     d="m 29.248835,29.997501 h -9.74834 a 1.4180918,1.4180918 0 0 1 -1.499744,-1.499745 v -0.149974 a 1.5947284,1.5947284 0 0 1 1.499744,-1.349771 h 5.399081 l -5.998979,-5.998978 a 1.4497531,1.4497531 0 0 1 0,-2.099643 l 0.149975,-0.149974 a 1.4130927,1.4130927 0 0 1 1.949668,0.149974 l 5.998978,5.998979 v -5.399081 a 1.4997446,1.4997446 0 1 1 2.999489,0 v 9.896648 l -0.149974,0.149975 c -0.149975,0.149974 -0.149975,0.301615 -0.301615,0.301615 l 0.149974,-0.149974 -0.149974,0.149974 a 0.14664169,0.14664169 0 0 1 -0.149975,0.149975 z m -27.5953007,0 H 0.6037131 L 0.45373864,29.847526 C 0.30543056,29.697552 0.1554561,29.697552 0.1554561,29.545911 A 0.14664169,0.14664169 0 0 1 0.00548164,29.395936 v -9.896648 a 1.4164255,1.4164255 0 0 1 1.49974466,-1.499744 1.4180918,1.4180918 0 0 1 1.4997446,1.499744 v 5.399081 L 9.0039493,18.89939 a 1.4030944,1.4030944 0 0 1 1.9496677,-0.149974 l 0.149975,0.149974 a 1.4497531,1.4497531 0 0 1 0,2.099643 l -5.9989787,5.998978 h 5.3974147 a 1.5947284,1.5947284 0 0 1 1.499744,1.349771 v 0.149974 a 1.4180918,1.4180918 0 0 1 -1.499744,1.499745 z M 0.45373864,29.847526 Z M 26.999218,10.500821 V 5.1000737 L 21.00024,11.099052 a 1.401428,1.401428 0 0 1 -1.949668,0.148308 l -0.149975,-0.148308 a 1.4497531,1.4497531 0 0 1 0,-2.0996423 L 24.899576,3.0004312 H 19.500495 A 1.5963948,1.5963948 0 0 1 18.000751,1.6506609 v -0.148308 a 1.4164255,1.4164255 0 0 1 1.499744,-1.49974402 h 9.896648 l 0.149975,0.149974 c 0.149974,0.149974 0.301615,0.149974 0.301615,0.298283 a 0.14664169,0.14664169 0 0 1 0.149974,0.15164 V 10.500821 a 1.4997446,1.4997446 0 1 1 -2.999489,0 z m -26.99540275,0 V 0.60250588 l 0.14997447,-0.149974 c 0.15164084,-0.148308 0.15164084,-0.299949 0.29994892,-0.299949 a 0.14664169,0.14664169 0 0 1 0.14997446,-0.149974 h 9.8983149 a 1.4164255,1.4164255 0 0 1 1.499744,1.49974402 v 0.149975 A 1.5963948,1.5963948 0 0 1 10.502028,3.0020976 H 5.1012805 l 5.9989785,5.9989785 a 1.4497531,1.4497531 0 0 1 0,2.0996419 l -0.149974,0.148309 A 1.4114263,1.4114263 0 0 1 9.0022829,11.100718 L 3.0033045,5.1017401 V 10.500821 A 1.4180918,1.4180918 0 0 1 1.5035599,12.000565 1.4164255,1.4164255 0 0 1 0.00381525,10.500821 Z"
     inkscape:connector-curvature="0"
     style="stroke-width:1.66638291" />
</svg>
