<?xml version="1.0" encoding="UTF-8" standalone="no"?>
<svg
   xmlns:dc="http://purl.org/dc/elements/1.1/"
   xmlns:cc="http://creativecommons.org/ns#"
   xmlns:rdf="http://www.w3.org/1999/02/22-rdf-syntax-ns#"
   xmlns:svg="http://www.w3.org/2000/svg"
   xmlns="http://www.w3.org/2000/svg"
   xmlns:sodipodi="http://sodipodi.sourceforge.net/DTD/sodipodi-0.dtd"
   xmlns:inkscape="http://www.inkscape.org/namespaces/inkscape"
   id="icon-help"
   width="30"
   height="30"
   viewBox="0 0 30 30"
   version="1.1"
   sodipodi:docname="help.svg"
   inkscape:version="0.92.4 (5da689c313, 2019-01-14)">
  <metadata
     id="metadata8">
    <rdf:RDF>
      <cc:Work
         rdf:about="">
        <dc:format>image/svg+xml</dc:format>
        <dc:type
           rdf:resource="http://purl.org/dc/dcmitype/StillImage" />
      </cc:Work>
    </rdf:RDF>
  </metadata>
  <defs
     id="defs6" />
  <sodipodi:namedview
     pagecolor="#ffffff"
     bordercolor="#666666"
     borderopacity="1"
     objecttolerance="10"
     gridtolerance="10"
     guidetolerance="10"
     inkscape:pageopacity="0"
     inkscape:pageshadow="2"
     inkscape:window-width="1280"
     inkscape:window-height="971"
     id="namedview4"
     showgrid="false"
     inkscape:zoom="7.8666667"
     inkscape:cx="15"
     inkscape:cy="15"
     inkscape:window-x="-8"
     inkscape:window-y="-8"
     inkscape:window-maximized="1"
     inkscape:current-layer="icon-help" />
  <path
     id="Combined_Shape-2"
     data-name="Combined Shape"
     d="M 0,15 A 15,15 0 1 1 15,30 15.0175,15.0175 0 0 1 0,15 Z m 2.7275,0 A 12.2725,12.2725 0 1 0 15,2.7275 12.28625,12.28625 0 0 0 2.7275,15 Z m 10.675,6.4075 c 0,-1.085 0.48625,-1.625 1.455,-1.655 a 1.34625,1.34625 0 0 1 1.50875,1.48375 1.33125,1.33125 0 0 1 -1.43375,1.49 1.36375,1.36375 0 0 1 -1.53,-1.31875 z M 13.875,18 A 1.22125,1.22125 0 0 1 13.7025,17.3975 4.0425,4.0425 0 0 1 15.355,14 a 12.2675,12.2675 0 0 0 1.3175,-1.1625 1.45875,1.45875 0 0 0 0.34,-0.8175 1.25875,1.25875 0 0 0 -1.315,-1.40875 2.53625,2.53625 0 0 0 -2.5,1.11125 1.22,1.22 0 0 1 -1.26625,0.5825 1.11625,1.11625 0 0 1 -0.89,-1.6725 3.7375,3.7375 0 0 1 1.82125,-1.805 6.325,6.325 0 0 1 2.6375,-0.645 12.985,12.985 0 0 1 1.5375,0.25 3.50875,3.50875 0 0 1 2.5875,3.3275 3.025,3.025 0 0 1 -1.22375,2.7625 v 0 c -0.4125,0.32125 -0.84625,0.6125 -1.2625,0.925 A 2.05125,2.05125 0 0 0 16.215,17.28 a 1.16375,1.16375 0 0 1 -0.83875,1.1625 1.2875,1.2875 0 0 1 -1.5,-0.45 z"
     inkscape:connector-curvature="0"
     style="stroke-width:1.25" />
</svg>
