<?xml version="1.0" encoding="UTF-8" standalone="no"?>
<svg
   xmlns:dc="http://purl.org/dc/elements/1.1/"
   xmlns:cc="http://creativecommons.org/ns#"
   xmlns:rdf="http://www.w3.org/1999/02/22-rdf-syntax-ns#"
   xmlns:svg="http://www.w3.org/2000/svg"
   xmlns="http://www.w3.org/2000/svg"
   xmlns:sodipodi="http://sodipodi.sourceforge.net/DTD/sodipodi-0.dtd"
   xmlns:inkscape="http://www.inkscape.org/namespaces/inkscape"
   id="icon_import"
   width="30"
   height="30"
   viewBox="0 0 30 30"
   version="1.1"
   sodipodi:docname="icon-import.svg"
   inkscape:version="0.92.4 (5da689c313, 2019-01-14)">
  <metadata
     id="metadata10">
    <rdf:RDF>
      <cc:Work
         rdf:about="">
        <dc:format>image/svg+xml</dc:format>
        <dc:type
           rdf:resource="http://purl.org/dc/dcmitype/StillImage" />
      </cc:Work>
    </rdf:RDF>
  </metadata>
  <defs
     id="defs8" />
  <sodipodi:namedview
     pagecolor="#ffffff"
     bordercolor="#666666"
     borderopacity="1"
     objecttolerance="10"
     gridtolerance="10"
     guidetolerance="10"
     inkscape:pageopacity="0"
     inkscape:pageshadow="2"
     inkscape:window-width="1280"
     inkscape:window-height="971"
     id="namedview6"
     showgrid="false"
     inkscape:zoom="7.8666667"
     inkscape:cx="15"
     inkscape:cy="15"
     inkscape:window-x="-8"
     inkscape:window-y="-8"
     inkscape:window-maximized="1"
     inkscape:current-layer="icon_import" />
  <path
     d="M 15.175898,0.88923142 A 1.664569,1.664569 0 0 0 13.577637,2.5026559 V 18.682394 L 7.9640113,14.28187 a 1.6894133,1.6894133 0 0 0 -2.338253,0.25475 1.6086693,1.6086693 0 0 0 0.254752,2.286697 l 9.3590757,7.339262 9.362109,-7.339262 a 1.6117749,1.6117749 0 0 0 0.257783,-2.292762 1.6894133,1.6894133 0 0 0 -2.338252,-0.254752 l -5.616659,4.406591 V 2.5026559 A 1.664569,1.664569 0 0 0 15.175898,0.88923142 Z M 1.6498194,19.022062 A 1.6474886,1.6474886 0 0 0 1.7299423e-6,20.67188 v 6.793367 A 1.6474886,1.6474886 0 0 0 1.6467865,29.112032 H 28.356243 a 1.6474886,1.6474886 0 0 0 1.643752,-1.649818 v -6.505255 a 1.6459358,1.6459358 0 0 0 -1.649818,-1.649818 1.6474886,1.6474886 0 0 0 -1.649817,1.649818 v 4.85847 H 3.2996371 V 20.67188 A 1.6490413,1.6490413 0 0 0 1.6498194,19.022062 Z"
     id="Fill_1"
     inkscape:connector-curvature="0"
     style="stroke-width:1.55276966" />
</svg>
