<?xml version="1.0" encoding="UTF-8" standalone="no"?>
<svg
   xmlns:dc="http://purl.org/dc/elements/1.1/"
   xmlns:cc="http://creativecommons.org/ns#"
   xmlns:rdf="http://www.w3.org/1999/02/22-rdf-syntax-ns#"
   xmlns:svg="http://www.w3.org/2000/svg"
   xmlns="http://www.w3.org/2000/svg"
   xmlns:sodipodi="http://sodipodi.sourceforge.net/DTD/sodipodi-0.dtd"
   xmlns:inkscape="http://www.inkscape.org/namespaces/inkscape"
   id="icon_new"
   width="30"
   height="30"
   viewBox="0 0 30 30"
   version="1.1"
   sodipodi:docname="icon-new.svg"
   inkscape:version="0.92.4 (5da689c313, 2019-01-14)">
  <metadata
     id="metadata13">
    <rdf:RDF>
      <cc:Work
         rdf:about="">
        <dc:format>image/svg+xml</dc:format>
        <dc:type
           rdf:resource="http://purl.org/dc/dcmitype/StillImage" />
      </cc:Work>
    </rdf:RDF>
  </metadata>
  <defs
     id="defs11" />
  <sodipodi:namedview
     pagecolor="#ffffff"
     bordercolor="#666666"
     borderopacity="1"
     objecttolerance="10"
     gridtolerance="10"
     guidetolerance="10"
     inkscape:pageopacity="0"
     inkscape:pageshadow="2"
     inkscape:window-width="1920"
     inkscape:window-height="1177"
     id="namedview9"
     showgrid="false"
     inkscape:zoom="22.250293"
     inkscape:cx="12.863514"
     inkscape:cy="8.8358788"
     inkscape:window-x="1272"
     inkscape:window-y="-8"
     inkscape:window-maximized="1"
     inkscape:current-layer="icon_new" />
  <path
     d="m 22.454236,4.0210349 c -0.167968,-0.0028 -0.3403,0.038052 -0.503049,0.1326219 L 15.578479,7.7893247 8.2476917,4.1239312 h -0.00915 C 8.1283878,4.0697601 8.0085387,4.0357387 7.8864114,4.0233215 H 7.735497 C 7.5820952,4.0355715 7.4347239,4.0826875 7.3033327,4.1628031 L 0.48931367,8.0545683 C 0.18612128,8.230174 -3.700741e-4,8.5548022 -1.5214101e-5,8.9051774 V 24.51111 C -0.00188328,24.77622 0.10559216,25.029901 0.29724066,25.21309 c 0.182428,0.176659 0.42517036,0.276084 0.6791153,0.276678 0.16829664,4.96e-4 0.33397094,-0.04242 0.48018264,-0.125762 l 6.3749948,-3.647102 7.3216396,3.663108 0.01372,0.0069 c 0.05074,0.02745 0.104908,0.05167 0.160061,0.0686 h 0.01143 0.0069 c 0.08475,0.02291 0.172877,0.03389 0.26067,0.0343 0.158325,-0.0072 0.313454,-0.05294 0.450457,-0.132623 h 0.0091 c 0.0022,-0.0011 0.0046,-0.0011 0.0069,0 h 0.0069 0.0069 c 0.0026,-0.0013 0.0066,-0.0013 0.0091,0 l 2.528961,-1.445121 c 0.0014,-0.0025 9.42e-4,-0.0044 0.0023,-0.0069 1.202391,1.27393 2.902494,2.073931 4.788106,2.073931 3.631105,0 6.585361,-2.956559 6.585361,-6.589934 0,-3.631091 -2.954256,-6.58536 -6.585361,-6.58536 V 5.0019823 C 23.417178,4.4372963 22.958215,4.029439 22.454314,4.0210379 Z M 8.7804656,6.5820085 14.634119,9.5088355 V 22.935654 L 8.7804656,20.008827 Z M 21.464145,6.6826182 v 6.4138668 l 0.0023,0.0023 c -2.686468,0.831628 -4.641764,3.336075 -4.641764,6.29039 0,1.049819 0.251882,2.040436 0.690548,2.922255 -0.0024,-0.0026 -0.0068,-0.0042 -0.0091,-0.0069 l -0.921493,0.525915 V 9.4653904 Z M 6.8277233,6.6849052 V 20.043126 L 1.9504406,22.830471 V 9.4722502 Z M 23.4146,14.267216 c 2.823931,0 5.121947,2.298016 5.121947,5.121946 0,2.826215 -2.298016,5.126521 -5.121947,5.126521 -2.823931,0 -5.121947,-2.300306 -5.121947,-5.126521 0,-2.82393 2.298016,-5.121946 5.121947,-5.121946 z m -0.02058,2.126522 a 0.59941416,0.59941416 0 0 0 -0.02515,0.0023 0.59941416,0.59941416 0 0 0 -0.555641,0.599085 v 1.794968 h -1.794968 a 0.59941416,0.59941416 0 0 0 0,1.198171 h 1.794967 v 1.792681 a 0.59941416,0.59941416 0 0 0 1.198171,0 v -1.792681 h 1.792681 a 0.59941416,0.59941416 0 0 0 0,-1.198171 H 24.011399 V 16.99511 a 0.59941416,0.59941416 0 0 0 -0.617378,-0.601372 z"
     id="path829"
 />
</svg>
