<?xml version="1.0" encoding="UTF-8" standalone="no"?>
<svg
   xmlns:dc="http://purl.org/dc/elements/1.1/"
   xmlns:cc="http://creativecommons.org/ns#"
   xmlns:rdf="http://www.w3.org/1999/02/22-rdf-syntax-ns#"
   xmlns:svg="http://www.w3.org/2000/svg"
   xmlns="http://www.w3.org/2000/svg"
   xmlns:sodipodi="http://sodipodi.sourceforge.net/DTD/sodipodi-0.dtd"
   xmlns:inkscape="http://www.inkscape.org/namespaces/inkscape"
   id="icon-lock"
   width="30"
   height="30"
   viewBox="0 0 30 30"
   version="1.1"
   sodipodi:docname="lock.svg"
   inkscape:version="0.92.4 (5da689c313, 2019-01-14)">
  <metadata
     id="metadata8">
    <rdf:RDF>
      <cc:Work
         rdf:about="">
        <dc:format>image/svg+xml</dc:format>
        <dc:type
           rdf:resource="http://purl.org/dc/dcmitype/StillImage" />
      </cc:Work>
    </rdf:RDF>
  </metadata>
  <defs
     id="defs6" />
  <sodipodi:namedview
     pagecolor="#ffffff"
     bordercolor="#666666"
     borderopacity="1"
     objecttolerance="10"
     gridtolerance="10"
     guidetolerance="10"
     inkscape:pageopacity="0"
     inkscape:pageshadow="2"
     inkscape:window-width="1280"
     inkscape:window-height="971"
     id="namedview4"
     showgrid="false"
     inkscape:zoom="7.8666667"
     inkscape:cx="15"
     inkscape:cy="15"
     inkscape:window-x="-8"
     inkscape:window-y="-8"
     inkscape:window-maximized="1"
     inkscape:current-layer="icon-lock" />
  <path
     id="Combined_Shape-2"
     data-name="Combined Shape"
     d="M 5.4545456,30.000452 A 4.0909091,4.0909091 0 0 1 1.3636365,25.909543 V 16.364089 A 4.0909091,4.0909091 0 0 1 5.4545456,12.27318 H 6.818182 V 8.1822705 a 8.1818183,8.1818183 0 1 1 16.363636,0 V 12.27318 h 1.363636 a 4.0909091,4.0909091 0 0 1 4.09091,4.090909 v 9.545454 a 4.0909091,4.0909091 0 0 1 -4.09091,4.090909 z M 4.0909092,16.364089 v 9.545454 a 1.3636364,1.3636364 0 0 0 1.3636364,1.363636 H 24.545454 a 1.3636364,1.3636364 0 0 0 1.363638,-1.363636 V 16.364089 A 1.3636364,1.3636364 0 0 0 24.545454,15.000452 H 5.4545456 A 1.3636364,1.3636364 0 0 0 4.0909092,16.364089 Z M 20.454546,12.27318 V 8.1822705 a 5.4545455,5.4545455 0 0 0 -10.9090913,0 V 12.27318 Z"
     inkscape:connector-curvature="0"
     style="stroke-width:1.36363637" />
</svg>
