<?xml version="1.0" encoding="UTF-8" standalone="no"?>
<svg
   xmlns:dc="http://purl.org/dc/elements/1.1/"
   xmlns:cc="http://creativecommons.org/ns#"
   xmlns:rdf="http://www.w3.org/1999/02/22-rdf-syntax-ns#"
   xmlns:svg="http://www.w3.org/2000/svg"
   xmlns="http://www.w3.org/2000/svg"
   xmlns:sodipodi="http://sodipodi.sourceforge.net/DTD/sodipodi-0.dtd"
   xmlns:inkscape="http://www.inkscape.org/namespaces/inkscape"
   id="icon_map_background"
   width="30"
   height="30"
   viewBox="0 0 30 30"
   version="1.1"
   sodipodi:docname="icon-map-background.svg"
   inkscape:version="0.92.4 (5da689c313, 2019-01-14)">
  <metadata
     id="metadata8">
    <rdf:RDF>
      <cc:Work
         rdf:about="">
        <dc:format>image/svg+xml</dc:format>
        <dc:type
           rdf:resource="http://purl.org/dc/dcmitype/StillImage" />
      </cc:Work>
    </rdf:RDF>
  </metadata>
  <defs
     id="defs6" />
  <sodipodi:namedview
     pagecolor="#ffffff"
     bordercolor="#666666"
     borderopacity="1"
     objecttolerance="10"
     gridtolerance="10"
     guidetolerance="10"
     inkscape:pageopacity="0"
     inkscape:pageshadow="2"
     inkscape:window-width="1280"
     inkscape:window-height="971"
     id="namedview4"
     showgrid="false"
     inkscape:zoom="7.8666667"
     inkscape:cx="15"
     inkscape:cy="15"
     inkscape:window-x="-8"
     inkscape:window-y="-8"
     inkscape:window-maximized="1"
     inkscape:current-layer="icon_map_background" />
  <path
     id="Path"
     d="m 16.615909,0.08907638 a 1.5082088,1.5082088 0 0 1 1.524373,1.01956402 1.8799766,1.8799766 0 0 1 0.90393,0.4724809 1.5281027,1.5281027 0 0 1 0.358091,0.5719506 3.5896114,3.5896114 0 0 1 1.387602,1.1277373 1.5529701,1.5529701 0 0 1 0.67888,-0.164125 c 0.32079,0 1.359005,0.1243371 1.474638,1.7742901 a 5.5441903,5.5441903 0 0 0 0.897714,0.1889924 3.8954806,3.8954806 0 0 1 2.32386,0.9163642 h 0.03108 a 1.2769418,1.2769418 0 0 1 0.731102,0.2126164 c 1.078003,0.072115 2.638433,0.2014261 3.005227,1.3788982 0.21759,0.7000178 -0.09077,1.3900886 -0.916364,2.0528052 a 4.849146,4.849146 0 0 0 -0.220077,1.2545613 6.8783271,6.8783271 0 0 1 -0.288462,1.627572 1.837702,1.837702 0 0 1 -1.474637,1.308026 c -0.207643,0.282245 -0.497349,0.681367 -0.813165,1.109087 a 1.616382,1.616382 0 0 1 0.621685,0.497348 2.5140957,2.5140957 0 0 1 0.518486,2.407166 2.347484,2.347484 0 0 1 0.373011,0.394148 1.3764115,1.3764115 0 0 1 0.05222,1.626329 1.0879494,1.0879494 0 0 1 -0.336954,0.319546 1.3217031,1.3217031 0 0 1 0.138015,0.186506 1.4920449,1.4920449 0 0 1 0.04973,1.350301 4.3368773,4.3368773 0 0 0 0.53465,0.124337 1.2868888,1.2868888 0 0 1 1.035728,0.87782 c 0.297165,0.937501 -0.425233,1.865056 -2.270395,3.705244 l -0.192723,0.193966 a 1.8401888,1.8401888 0 0 1 -1.816565,1.018321 10.896901,10.896901 0 0 1 -3.418026,-0.907661 C 21.17908,26.608931 20.727736,26.436103 20.595939,26.408749 a 5.5354867,5.5354867 0 0 0 -1.044431,-0.115634 c -0.272299,0 -0.754726,0.03481 -0.933772,0.268568 -0.09325,0.124337 -0.278515,0.519729 0.01119,1.582811 a 1.1439011,1.1439011 0 0 1 -0.192723,1.082976 2.1062701,2.1062701 0 0 1 -1.703418,0.681367 7.4602247,7.4602247 0 0 1 -2.398462,-0.514755 2.4755512,2.4755512 0 0 1 -0.726129,0.124337 1.4012789,1.4012789 0 0 1 -1.401279,-1.080489 c -0.160394,0.0099 -0.35809,0.03854 -0.566977,0.06963 a 7.8332359,7.8332359 0 0 1 -1.127736,0.105685 2.6769773,2.6769773 0 0 1 -1.7630995,-0.573194 l -0.038545,-0.0075 A 4.8852038,4.8852038 0 0 1 6.7311117,27.22067 H 6.6863504 A 1.3105128,1.3105128 0 0 1 5.5760203,26.529355 1.1724986,1.1724986 0 0 1 5.4579001,26.109096 1.2881321,1.2881321 0 0 1 4.7877232,24.750092 1.1749854,1.1749854 0 0 1 5.6580828,23.853622 13.322718,13.322718 0 0 0 6.6204517,20.15708 27.504605,27.504605 0 0 0 6.993463,16.643314 3.6381029,3.6381029 0 0 1 5.3111823,13.572189 C 5.1992789,13.418011 5.0525612,13.210368 4.8511351,12.925636 L 4.6248416,12.60609 A 7.4602247,7.4602247 0 0 0 1.9428909,11.618854 L 1.782496,11.600203 1.6357783,11.536791 C 0.46700979,11.030739 -0.08007335,10.39289 0.00944934,9.6431375 A 1.2433708,1.2433708 0 0 1 0.2494199,9.041346 1.4609607,1.4609607 0 0 1 0.11637923,7.8763076 1.7742901,1.7742901 0 0 1 1.5400388,6.7572739 3.0736126,3.0736126 0 0 1 2.2773576,6.6689945 4.5793346,4.5793346 0 0 1 2.9239104,6.7224595 l 0.064655,0.0087 A 1.6400061,1.6400061 0 0 1 4.2406401,6.1094777 2.1037834,2.1037834 0 0 1 5.9813592,7.424964 8.6364534,8.6364534 0 0 1 6.839285,7.2583523 C 6.7087311,6.6478572 6.5321724,5.8981047 6.363074,5.2341447 L 6.0733686,4.0939737 7.2334335,3.893791 A 3.3347204,3.3347204 0 0 1 7.8028973,3.841569 2.290289,2.290289 0 0 1 9.7922906,4.9941737 c 0.2399704,0.341927 0.2698114,0.385445 0.6440664,0.385445 a 2.6968712,2.6968712 0 0 0 0.327006,-0.022381 5.2519982,5.2519982 0 0 1 2.970413,-1.9769596 q -0.01741,-0.038544 -0.03233,-0.078332 A 2.1771422,2.1771422 0 0 1 14.17517,1.1397243 3.76244,3.76244 0 0 1 16.615907,0.08907598 Z M 17.310953,3.1303613 A 1.9172777,1.9172777 0 0 1 16.466705,2.5683577 l -0.234997,0.9312847 a 2.6409195,2.6409195 0 0 1 -1.43485,1.8115913 8.0184981,8.0184981 0 0 0 -1.889924,0.8803065 L 12.725402,6.6727246 12.522733,7.1974271 11.978136,7.3354413 A 6.2839959,6.2839959 0 0 1 10.44506,7.549301 2.8933238,2.8933238 0 0 1 9.0649187,7.2359716 C 9.2949423,8.3798727 9.2787785,8.7976453 8.975396,9.1880637 A 1.1041133,1.1041133 0 0 1 8.0988196,9.61827 1.1289807,1.1289807 0 0 1 7.4124789,9.3845163 6.0378085,6.0378085 0 0 0 6.2026792,9.6132966 2.9741429,2.9741429 0 0 1 5.4666037,9.7500673 H 5.4230857 C 4.7230679,9.7276867 4.4283891,9.1607096 4.2182594,8.7466671 L 4.149874,8.6161132 a 1.7668299,1.7668299 0 0 1 -1.0108604,0.2959222 2.9181912,2.9181912 0 0 1 -0.3431704,-0.022381 1.1762288,1.1762288 0 0 1 0.074602,0.677637 9.3252808,9.3252808 0 0 1 1.9558222,0.6763932 4.9162881,4.9162881 0 0 1 1.414956,0.87036 l 0.01119,0.01368 c 0.064655,0.08455 0.1815321,0.248674 0.3829582,0.534649 0.1616382,0.228781 0.4202593,0.595575 0.5234591,0.731102 a 1.1973661,1.1973661 0 0 1 0.31333,0.794514 c 0.054708,0.956153 0.3245198,1.508209 0.8007308,1.638763 a 1.3826283,1.3826283 0 0 1 0.8977137,1.416199 10.831003,10.831003 0 0 1 -0.026111,1.146388 35.063056,35.063056 0 0 1 -0.6950442,4.824279 9.8947446,9.8947446 0 0 1 -0.9300414,2.77023 1.3018092,1.3018092 0 0 1 0.1392575,0.248674 1.7108782,1.7108782 0 0 1 0.3120861,0.188992 2.7192519,2.7192519 0 0 0 1.183689,0.472481 1.6810373,1.6810373 0 0 1 0.9685858,0.447613 0.57568067,0.57568067 0 0 0 0.391662,0.08828 6.1260878,6.1260878 0 0 0 0.814408,-0.08331 6.9442258,6.9442258 0 0 1 0.988479,-0.09574 1.9023573,1.9023573 0 0 1 1.773047,0.946206 1.4920449,1.4920449 0 0 1 0.307113,-0.03357 1.1986094,1.1986094 0 0 1 0.529676,0.124337 7.0312617,7.0312617 0 0 0 1.403765,0.407825 3.3086096,3.3086096 0 0 1 0.559517,-2.4569 3.1407546,3.1407546 0 0 1 2.6633,-1.119034 7.6914916,7.6914916 0 0 1 1.463448,0.156665 8.9261588,8.9261588 0 0 1 1.269481,0.426476 10.770078,10.770078 0 0 0 2.593672,0.764673 3.9576492,3.9576492 0 0 1 0.519729,-0.574437 q 0.746022,-0.746023 1.182445,-1.243371 a 2.0776726,2.0776726 0 0 1 -1.024537,-0.87036 1.6623867,1.6623867 0 0 1 -0.184019,-1.095409 1.3366236,1.3366236 0 0 1 -0.893984,-0.987237 1.7556395,1.7556395 0 0 1 0.860413,-1.733259 1.4174427,1.4174427 0 0 1 -0.358091,-0.792027 1.3788982,1.3788982 0 0 1 0.238727,-0.882793 0.84051865,0.84051865 0 0 0 0.07833,-0.150448 0.5657337,0.5657337 0 0 0 -0.1032,-0.248674 1.9893932,1.9893932 0 0 0 -0.262351,-0.01492 3.9787865,3.9787865 0 0 0 -0.544597,0.04103 l -2.592428,0.407825 1.540537,-2.122433 c 0,0 0.565733,-0.777107 1.133954,-1.555457 0.284732,-0.390418 0.570707,-0.779594 0.78581,-1.071786 l 0.267325,-0.360577 a 1.173742,1.173742 0 0 1 0.959882,-0.56076 h 0.02238 a 8.8863709,8.8863709 0 0 0 0.124337,-0.963613 4.9647795,4.9647795 0 0 1 0.588114,-2.2691514 q -0.22878,-0.022381 -0.511025,-0.041031 c -0.138014,-0.0087 -0.248674,-0.016164 -0.341927,-0.026111 A 1.3826283,1.3826283 0 0 1 25.854154,8.2033141 1.4025222,1.4025222 0 0 1 24.585916,7.502053 3.7040015,3.7040015 0 0 0 23.504183,7.2334849 5.6424166,5.6424166 0 0 1 21.984784,6.8480399 2.0478317,2.0478317 0 0 1 20.960247,5.865777 1.1488746,1.1488746 0 0 1 20.397,6.0112514 1.1190337,1.1190337 0 0 1 19.314024,5.1856532 2.1286508,2.1286508 0 0 0 19.122545,4.7455 L 19.085245,4.684575 19.059135,4.62365 A 1.6350326,1.6350326 0 0 0 18.141527,3.993261 l -0.88528,-0.2151031 z"
 />
</svg>
