<?xml version="1.0" encoding="UTF-8" standalone="no"?>
<svg
   xmlns:dc="http://purl.org/dc/elements/1.1/"
   xmlns:cc="http://creativecommons.org/ns#"
   xmlns:rdf="http://www.w3.org/1999/02/22-rdf-syntax-ns#"
   xmlns:svg="http://www.w3.org/2000/svg"
   xmlns="http://www.w3.org/2000/svg"
   xmlns:sodipodi="http://sodipodi.sourceforge.net/DTD/sodipodi-0.dtd"
   xmlns:inkscape="http://www.inkscape.org/namespaces/inkscape"
   id="icon_model"
   width="30"
   height="30"
   viewBox="0 0 30 30"
   version="1.1"
   sodipodi:docname="uEA1C-model.svg"
   inkscape:version="0.92.4 (5da689c313, 2019-01-14)">
  <metadata
     id="metadata10">
    <rdf:RDF>
      <cc:Work
         rdf:about="">
        <dc:format>image/svg+xml</dc:format>
        <dc:type
           rdf:resource="http://purl.org/dc/dcmitype/StillImage" />
      </cc:Work>
    </rdf:RDF>
  </metadata>
  <defs
     id="defs8" />
  <sodipodi:namedview
     pagecolor="#ffffff"
     bordercolor="#666666"
     borderopacity="1"
     objecttolerance="10"
     gridtolerance="10"
     guidetolerance="10"
     inkscape:pageopacity="0"
     inkscape:pageshadow="2"
     inkscape:window-width="1280"
     inkscape:window-height="971"
     id="namedview6"
     showgrid="false"
     inkscape:zoom="7.8666667"
     inkscape:cx="-8.1991525"
     inkscape:cy="15"
     inkscape:window-x="-8"
     inkscape:window-y="-8"
     inkscape:window-maximized="1"
     inkscape:current-layer="icon_model" />
  <path
     d="M 3.7505548,3.2614485 A 3.8385064,3.8385064 0 0 0 7.3978086e-4,7.174299 V 22.825701 A 3.8385064,3.8385064 0 0 0 3.7505548,26.738552 H 26.249445 A 3.8385064,3.8385064 0 0 0 29.99926,22.825701 V 7.174299 A 3.8385064,3.8385064 0 0 0 26.249445,3.2614485 Z m 0,2.608567 H 26.249445 a 1.2795021,1.2795021 0 0 1 1.24824,1.3042835 V 9.296307 H 2.5023148 V 7.174299 a 1.2795021,1.2795021 0 0 1 1.24824,-1.3042835 z m -1.24824,6.0348585 H 9.2937597 V 24.129985 H 3.7505548 a 1.2795021,1.2795021 0 0 1 -1.24824,-1.304284 z m 9.4000122,0 h 15.595358 v 10.920827 a 1.2795021,1.2795021 0 0 1 -1.24824,1.304284 H 11.902327 Z"
     id="Ligne_36"
     inkscape:connector-curvature="0"
     style="stroke-width:1.3042835" />
</svg>
