<?xml version="1.0" encoding="UTF-8" standalone="no"?>
<svg
   xmlns:dc="http://purl.org/dc/elements/1.1/"
   xmlns:cc="http://creativecommons.org/ns#"
   xmlns:rdf="http://www.w3.org/1999/02/22-rdf-syntax-ns#"
   xmlns:svg="http://www.w3.org/2000/svg"
   xmlns="http://www.w3.org/2000/svg"
   xmlns:sodipodi="http://sodipodi.sourceforge.net/DTD/sodipodi-0.dtd"
   xmlns:inkscape="http://www.inkscape.org/namespaces/inkscape"
   id="icon-notification"
   width="30"
   height="30"
   viewBox="0 0 30 30"
   version="1.1"
   sodipodi:docname="uEA1E-notification.svg"
   inkscape:version="0.92.4 (5da689c313, 2019-01-14)">
  <defs
     id="defs6" />
  <metadata
     id="metadata12">
    <rdf:RDF>
      <cc:Work
         rdf:about="">
        <dc:format>image/svg+xml</dc:format>
        <dc:type
           rdf:resource="http://purl.org/dc/dcmitype/StillImage" />
      </cc:Work>
    </rdf:RDF>
  </metadata>
  <sodipodi:namedview
     pagecolor="#ffffff"
     bordercolor="#666666"
     borderopacity="1"
     objecttolerance="10"
     gridtolerance="10"
     guidetolerance="10"
     inkscape:pageopacity="0"
     inkscape:pageshadow="2"
     inkscape:window-width="1280"
     inkscape:window-height="971"
     id="namedview10"
     showgrid="false"
     inkscape:zoom="7.8666667"
     inkscape:cx="-8.1991525"
     inkscape:cy="15.127119"
     inkscape:window-x="-8"
     inkscape:window-y="-8"
     inkscape:window-maximized="1"
     inkscape:current-layer="icon-notification" />
  <path
     id="Shape-2"
     data-name="Shape"
     d="m 15,29.405258 a 4.1588826,4.1588826 0 0 1 -3.552597,-1.964208 1.2466172,1.2466172 0 0 1 0,-1.309472 1.3670886,1.3670886 0 0 1 1.186381,-0.654735 h 4.73767 a 1.3670886,1.3670886 0 0 1 1.186381,0.654735 1.2466172,1.2466172 0 0 1 0,1.309472 A 4.1588826,4.1588826 0 0 1 15,29.405258 Z M 28.690528,22.857899 H 1.3094719 a 1.309472,1.309472 0 1 1 0,-2.618944 2.6831078,2.6831078 0 0 0 2.7381057,-2.618944 V 11.072652 A 10.737669,10.737669 0 0 1 15,0.59687728 10.737669,10.737669 0 0 1 25.952423,11.072652 v 6.547359 a 2.6831078,2.6831078 0 0 0 2.738105,2.618944 1.309472,1.309472 0 1 1 0,2.618944 z M 15,3.215821 a 8.0519424,8.0519424 0 0 0 -8.2143168,7.856831 v 6.547359 A 5.0611087,5.0611087 0 0 1 6.0536884,20.238955 H 23.946312 A 5.0624182,5.0624182 0 0 1 23.214317,17.620011 V 11.072652 A 8.0519424,8.0519424 0 0 0 15,3.215821 Z"
     inkscape:connector-curvature="0"
     style="fill:#091625;stroke-width:1.30947185" />
</svg>
