<?xml version="1.0" encoding="UTF-8" standalone="no"?>
<svg
   xmlns:dc="http://purl.org/dc/elements/1.1/"
   xmlns:cc="http://creativecommons.org/ns#"
   xmlns:rdf="http://www.w3.org/1999/02/22-rdf-syntax-ns#"
   xmlns:svg="http://www.w3.org/2000/svg"
   xmlns="http://www.w3.org/2000/svg"
   xmlns:sodipodi="http://sodipodi.sourceforge.net/DTD/sodipodi-0.dtd"
   xmlns:inkscape="http://www.inkscape.org/namespaces/inkscape"
   id="icon-map"
   width="30"
   height="30"
   viewBox="0 0 30 30"
   version="1.1"
   sodipodi:docname="icon-map-alt.svg"
   inkscape:version="0.92.4 (5da689c313, 2019-01-14)">
  <metadata
     id="metadata8">
    <rdf:RDF>
      <cc:Work
         rdf:about="">
        <dc:format>image/svg+xml</dc:format>
        <dc:type
           rdf:resource="http://purl.org/dc/dcmitype/StillImage" />
      </cc:Work>
    </rdf:RDF>
  </metadata>
  <defs
     id="defs6" />
  <sodipodi:namedview
     pagecolor="#ffffff"
     bordercolor="#666666"
     borderopacity="1"
     objecttolerance="10"
     gridtolerance="10"
     guidetolerance="10"
     inkscape:pageopacity="0"
     inkscape:pageshadow="2"
     inkscape:window-width="1920"
     inkscape:window-height="1177"
     id="namedview4"
     showgrid="false"
     inkscape:zoom="7.8666667"
     inkscape:cx="15"
     inkscape:cy="15"
     inkscape:window-x="1272"
     inkscape:window-y="-8"
     inkscape:window-maximized="1"
     inkscape:current-layer="icon-map" />
  <path
     d="M 0.38103,28.397986 A 1.2329987,1.2329987 0 0 1 3.0404249e-5,27.497987 V 7.5000076 A 1.2524987,1.2524987 0 0 1 0.6300298,6.4155087 L 9.3615212,1.4250138 A 1.2419987,1.2419987 0 0 1 9.9165202,1.248014 h 0.1589998 0.0315 v 0 a 1.2419987,1.2419987 0 0 1 0.449999,0.1259998 v 0 h 0.0075 L 19.95601,6.070509 28.131002,1.4145139 A 1.2389987,1.2389987 0 0 1 28.749001,1.2480141 1.2539987,1.2539987 0 0 1 30,2.5005128 V 22.499992 a 1.2539987,1.2539987 0 0 1 -0.63,1.084499 l -8.747991,4.997995 v 0 l -0.027,0.015 h -0.0135 -0.015 a 1.2314987,1.2314987 0 0 1 -0.899999,0.087 h -0.012 -0.012 a 1.2419987,1.2419987 0 0 1 -0.222,-0.09 l -9.38099,-4.676995 -8.1689915,4.667995 a 1.2434987,1.2434987 0 0 1 -0.6179994,0.1665 1.2734987,1.2734987 0 0 1 -0.8714991,-0.354 z M 18.750011,25.477489 V 8.2710068 L 11.250019,4.5210107 V 21.725993 Z m 2.500498,-0.1305 6.248993,-3.571496 V 4.6530105 L 21.250509,8.2245069 Z M 2.4990279,8.2260068 V 25.345489 L 8.7495212,21.775493 V 4.6545105 Z"
 />
</svg>
