<?xml version="1.0" encoding="UTF-8" standalone="no"?>
<svg
   xmlns:dc="http://purl.org/dc/elements/1.1/"
   xmlns:cc="http://creativecommons.org/ns#"
   xmlns:rdf="http://www.w3.org/1999/02/22-rdf-syntax-ns#"
   xmlns:svg="http://www.w3.org/2000/svg"
   xmlns="http://www.w3.org/2000/svg"
   xmlns:sodipodi="http://sodipodi.sourceforge.net/DTD/sodipodi-0.dtd"
   xmlns:inkscape="http://www.inkscape.org/namespaces/inkscape"
   id="icon_info"
   width="30"
   height="30"
   viewBox="0 0 30 30"
   version="1.1"
   sodipodi:docname="info.svg"
   inkscape:version="0.92.4 (5da689c313, 2019-01-14)">
  <metadata
     id="metadata8">
    <rdf:RDF>
      <cc:Work
         rdf:about="">
        <dc:format>image/svg+xml</dc:format>
        <dc:type
           rdf:resource="http://purl.org/dc/dcmitype/StillImage" />
      </cc:Work>
    </rdf:RDF>
  </metadata>
  <defs
     id="defs6" />
  <sodipodi:namedview
     pagecolor="#ffffff"
     bordercolor="#666666"
     borderopacity="1"
     objecttolerance="10"
     gridtolerance="10"
     guidetolerance="10"
     inkscape:pageopacity="0"
     inkscape:pageshadow="2"
     inkscape:window-width="1920"
     inkscape:window-height="1177"
     id="namedview4"
     showgrid="false"
     inkscape:zoom="7.8666667"
     inkscape:cx="15"
     inkscape:cy="15"
     inkscape:window-x="1272"
     inkscape:window-y="-8"
     inkscape:window-maximized="1"
     inkscape:current-layer="icon_info" />
  <path
     id="Combined_Shape-2"
     data-name="Combined Shape"
     d="M 0,15 A 15,15 0 1 1 15,30 15.016957,15.016957 0 0 1 0,15 Z m 2.7273913,0 A 12.272609,12.272609 0 1 0 15,2.7273913 12.285652,12.285652 0 0 0 2.7273913,15 Z M 13.40087,21.182609 v -7.033044 a 1.4836957,1.4836957 0 0 1 2.967391,0 v 7.033044 a 1.4836957,1.4836957 0 1 1 -2.967391,0 z m 0,-11.3478264 c 0,-1.0865217 0.486521,-1.6265217 1.455652,-1.6565217 A 1.346087,1.346087 0 0 1 16.365652,9.6613043 1.3317391,1.3317391 0 0 1 14.93087,11.15087 1.3630435,1.3630435 0 0 1 13.402174,9.8386957 Z"
     inkscape:connector-curvature="0"
     style="stroke-width:1.30434787" />
</svg>
