<?xml version="1.0" encoding="UTF-8" standalone="no"?>
<svg
   xmlns:dc="http://purl.org/dc/elements/1.1/"
   xmlns:cc="http://creativecommons.org/ns#"
   xmlns:rdf="http://www.w3.org/1999/02/22-rdf-syntax-ns#"
   xmlns:svg="http://www.w3.org/2000/svg"
   xmlns="http://www.w3.org/2000/svg"
   xmlns:sodipodi="http://sodipodi.sourceforge.net/DTD/sodipodi-0.dtd"
   xmlns:inkscape="http://www.inkscape.org/namespaces/inkscape"
   id="icon_pencil"
   width="30"
   height="30"
   viewBox="0 0 30 30"
   version="1.1"
   sodipodi:docname="pencil.svg"
   inkscape:version="0.92.4 (5da689c313, 2019-01-14)">
  <metadata
     id="metadata12">
    <rdf:RDF>
      <cc:Work
         rdf:about="">
        <dc:format>image/svg+xml</dc:format>
        <dc:type
           rdf:resource="http://purl.org/dc/dcmitype/StillImage" />
      </cc:Work>
    </rdf:RDF>
  </metadata>
  <defs
     id="defs10" />
  <sodipodi:namedview
     pagecolor="#ffffff"
     bordercolor="#666666"
     borderopacity="1"
     objecttolerance="10"
     gridtolerance="10"
     guidetolerance="10"
     inkscape:pageopacity="0"
     inkscape:pageshadow="2"
     inkscape:window-width="1280"
     inkscape:window-height="971"
     id="namedview8"
     showgrid="false"
     inkscape:zoom="7.8666667"
     inkscape:cx="-8.1991525"
     inkscape:cy="15"
     inkscape:window-x="-8"
     inkscape:window-y="-8"
     inkscape:window-maximized="1"
     inkscape:current-layer="icon_pencil" />
  <path
     style="fill:#091625;stroke-width:1.3698411;stroke:none"
     d="M 22.46875 0.02734375 A 1.1986109 1.1986109 0 0 0 21.603516 0.37890625 L 1.5917969 20.390625 A 1.2054602 1.2054602 0 0 0 1.2558594 21.042969 L 0.015625 28.580078 A 1.1999808 1.1999808 0 0 0 0.34960938 29.621094 A 1.2013506 1.2013506 0 0 0 1.3808594 29.958984 L 8.9726562 28.773438 A 1.1945014 1.1945014 0 0 0 9.6367188 28.435547 L 29.648438 8.4238281 A 1.1986109 1.1986109 0 0 0 29.648438 6.7285156 L 23.298828 0.37890625 A 1.1986109 1.1986109 0 0 0 22.46875 0.02734375 z M 22.451172 2.921875 L 27.105469 7.5761719 L 25.285156 9.3945312 L 20.630859 4.7402344 L 22.451172 2.921875 z M 18.935547 6.4355469 L 23.589844 11.089844 L 9.25 25.431641 L 4.5957031 20.777344 L 18.935547 6.4355469 z M 3.375 22.947266 L 7.0703125 26.640625 L 2.6542969 27.330078 L 3.375 22.947266 z "
     id="Tracé_16" />
</svg>
