<?xml version="1.0" encoding="UTF-8" standalone="no"?>
<svg
   xmlns:dc="http://purl.org/dc/elements/1.1/"
   xmlns:cc="http://creativecommons.org/ns#"
   xmlns:rdf="http://www.w3.org/1999/02/22-rdf-syntax-ns#"
   xmlns:svg="http://www.w3.org/2000/svg"
   xmlns="http://www.w3.org/2000/svg"
   xmlns:sodipodi="http://sodipodi.sourceforge.net/DTD/sodipodi-0.dtd"
   xmlns:inkscape="http://www.inkscape.org/namespaces/inkscape"
   id="icon-star"
   width="30"
   height="30"
   viewBox="0 0 30 30"
   version="1.1"
   sodipodi:docname="star.svg"
   inkscape:version="0.92.4 (5da689c313, 2019-01-14)">
  <metadata
     id="metadata9">
    <rdf:RDF>
      <cc:Work
         rdf:about="">
        <dc:format>image/svg+xml</dc:format>
        <dc:type
           rdf:resource="http://purl.org/dc/dcmitype/StillImage" />
      </cc:Work>
    </rdf:RDF>
  </metadata>
  <defs
     id="defs7" />
  <sodipodi:namedview
     pagecolor="#ffffff"
     bordercolor="#666666"
     borderopacity="1"
     objecttolerance="10"
     gridtolerance="10"
     guidetolerance="10"
     inkscape:pageopacity="0"
     inkscape:pageshadow="2"
     inkscape:window-width="1280"
     inkscape:window-height="971"
     id="namedview5"
     showgrid="false"
     inkscape:zoom="7.8666667"
     inkscape:cx="15"
     inkscape:cy="15"
     inkscape:window-x="-8"
     inkscape:window-y="-8"
     inkscape:window-maximized="1"
     inkscape:current-layer="icon-star" />
  <path
     style="fill:#091625;stroke-width:1.49993992"
     inkscape:connector-curvature="0"
     d="m 23.426557,29.333571 a 1.3499459,1.3499459 0 0 1 -0.634475,-0.158994 l -7.793688,-4.099335 -7.7996882,4.099335 a 1.3499459,1.3499459 0 0 1 -0.634474,0.158994 1.3709451,1.3709451 0 0 1 -1.049958,-0.49198 1.3349465,1.3349465 0 0 1 -0.299988,-1.103956 l 1.48794,-8.675653 -6.29074783,-6.140754 A 1.3649453,1.3649453 0 0 1 1.161448,10.594821 L 9.8805988,9.3213725 13.775943,1.4256886 a 1.3649453,1.3649453 0 0 1 2.446402,0 l 3.899844,7.8956839 8.714651,1.2719495 a 1.3634454,1.3634454 0 0 1 0.74997,2.326406 l -6.299748,6.140754 1.487941,8.675653 a 1.3349465,1.3349465 0 0 1 -0.299988,1.103956 1.372445,1.372445 0 0 1 -1.048458,0.49348 z m -8.428163,-7.162213 a 1.3649453,1.3649453 0 0 1 0.634475,0.149994 l 5.98176,3.149874 -1.139954,-6.655234 a 1.3589456,1.3589456 0 0 1 0.392984,-1.199952 l 4.838806,-4.714311 -6.689732,-0.98546 a 1.3499459,1.3499459 0 0 1 -1.018459,-0.74997 l -2.99988,-6.055258 -2.98788,6.055258 a 1.3634454,1.3634454 0 0 1 -1.025959,0.74997 l -6.6912324,0.97946 4.8388062,4.720311 a 1.3589456,1.3589456 0 0 1 0.392984,1.199952 l -1.141454,6.658234 5.9817602,-3.149874 a 1.3649453,1.3649453 0 0 1 0.632975,-0.152994 z"
     data-name="Shape"
     id="Shape-2" />
</svg>
