<?xml version="1.0" encoding="UTF-8" standalone="no"?>
<svg
   xmlns:dc="http://purl.org/dc/elements/1.1/"
   xmlns:cc="http://creativecommons.org/ns#"
   xmlns:rdf="http://www.w3.org/1999/02/22-rdf-syntax-ns#"
   xmlns:svg="http://www.w3.org/2000/svg"
   xmlns="http://www.w3.org/2000/svg"
   xmlns:sodipodi="http://sodipodi.sourceforge.net/DTD/sodipodi-0.dtd"
   xmlns:inkscape="http://www.inkscape.org/namespaces/inkscape"
   id="icon_text"
   width="30"
   height="30"
   viewBox="0 0 30 30"
   version="1.1"
   sodipodi:docname="text.svg"
   inkscape:version="0.92.4 (5da689c313, 2019-01-14)">
  <metadata
     id="metadata10">
    <rdf:RDF>
      <cc:Work
         rdf:about="">
        <dc:format>image/svg+xml</dc:format>
        <dc:type
           rdf:resource="http://purl.org/dc/dcmitype/StillImage" />
      </cc:Work>
    </rdf:RDF>
  </metadata>
  <defs
     id="defs8" />
  <sodipodi:namedview
     pagecolor="#ffffff"
     bordercolor="#666666"
     borderopacity="1"
     objecttolerance="10"
     gridtolerance="10"
     guidetolerance="10"
     inkscape:pageopacity="0"
     inkscape:pageshadow="2"
     inkscape:window-width="1280"
     inkscape:window-height="971"
     id="namedview6"
     showgrid="false"
     inkscape:zoom="7.8666667"
     inkscape:cx="15"
     inkscape:cy="15"
     inkscape:window-x="-8"
     inkscape:window-y="-8"
     inkscape:window-maximized="1"
     inkscape:current-layer="icon_text" />
  <path
     style="fill:#091625;stroke-width:1.34536219"
     d="m 22.884479,3.2689512 a 1.3456451,1.3456451 0 0 0 0.05518,2.6907243 h 1.510905 V 24.03798 h -1.510905 a 1.3453625,1.3453625 0 0 0 0,2.690725 l 5.715162,0.0026 a 1.3453622,1.3453622 0 0 0 0,-2.690724 H 27.141288 V 5.9596755 h 1.513533 a 1.3453622,1.3453622 0 0 0 0,-2.6907243 h -5.715162 a 1.3453622,1.3453622 0 0 0 -0.05518,0 z M 6.9293243,3.3556639 1.832959e-4,26.731332 H 6.4589723 l 1.040554,-4.777086 h 6.1907677 l 1.040554,4.777086 h 6.5928 L 14.394508,3.3556639 Z M 10.59491,7.7937825 12.712805,17.516127 H 8.4770163 Z"
     id="Tracé_40"
     inkscape:connector-curvature="0" />
</svg>
