<?xml version="1.0" encoding="UTF-8" standalone="no"?>
<svg
   xmlns:dc="http://purl.org/dc/elements/1.1/"
   xmlns:cc="http://creativecommons.org/ns#"
   xmlns:rdf="http://www.w3.org/1999/02/22-rdf-syntax-ns#"
   xmlns:svg="http://www.w3.org/2000/svg"
   xmlns="http://www.w3.org/2000/svg"
   xmlns:sodipodi="http://sodipodi.sourceforge.net/DTD/sodipodi-0.dtd"
   xmlns:inkscape="http://www.inkscape.org/namespaces/inkscape"
   id="icon_tag"
   width="30.001"
   height="29.632"
   viewBox="0 0 30.001 29.632"
   version="1.1"
   sodipodi:docname="tag.svg"
   inkscape:version="0.92.4 (5da689c313, 2019-01-14)">
  <metadata
     id="metadata10">
    <rdf:RDF>
      <cc:Work
         rdf:about="">
        <dc:format>image/svg+xml</dc:format>
        <dc:type
           rdf:resource="http://purl.org/dc/dcmitype/StillImage" />
      </cc:Work>
    </rdf:RDF>
  </metadata>
  <defs
     id="defs8" />
  <sodipodi:namedview
     pagecolor="#ffffff"
     bordercolor="#666666"
     borderopacity="1"
     objecttolerance="10"
     gridtolerance="10"
     guidetolerance="10"
     inkscape:pageopacity="0"
     inkscape:pageshadow="2"
     inkscape:window-width="1280"
     inkscape:window-height="971"
     id="namedview6"
     showgrid="false"
     inkscape:zoom="7.9643629"
     inkscape:cx="15.0005"
     inkscape:cy="14.816"
     inkscape:window-x="-8"
     inkscape:window-y="-8"
     inkscape:window-maximized="1"
     inkscape:current-layer="icon_tag" />
  <path
     style="fill:#091625;stroke-width:1.36214852"
     d="m 17.067619,-0.18371724 a 1.3158355,1.3158355 0 0 0 -0.94978,0.3857648 L 0.38661921,15.933267 a 1.3158355,1.3158355 0 0 0 0,1.862312 L 12.026073,29.435032 a 1.3158355,1.3158355 0 0 0 1.856991,-0.0053 L 29.611623,13.703813 a 1.3158355,1.3158355 0 0 0 0.388425,-0.968402 L 29.65153,1.4364947 A 1.3199219,1.3199219 0 0 0 28.377176,0.15948036 L 17.08092,-0.18371724 a 1.3158355,1.3158355 0 0 0 -0.0133,0 z m 0.508144,2.65512544 9.487152,0.2873282 0.289989,9.4871526 -14.395676,14.395674 -9.7771402,-9.777139 z m 5.17989,2.1602825 a 2.4695753,2.4695753 0 0 0 -1.782499,0.7236414 2.4695753,2.4695753 0 0 0 0,3.4931661 2.4695753,2.4695753 0 1 0 1.782499,-4.2168075 z m -0.05321,1.6494768 a 0.81728912,0.81728912 0 0 1 0.59062,0.2394401 0.81728912,0.81728912 0 1 1 -1.154634,0 0.81728912,0.81728912 0 0 1 0.564014,-0.2394401 z"
     id="Tracé_45"
     inkscape:connector-curvature="0" />
</svg>
