<?xml version="1.0" encoding="UTF-8" standalone="no"?>
<svg
   xmlns:dc="http://purl.org/dc/elements/1.1/"
   xmlns:cc="http://creativecommons.org/ns#"
   xmlns:rdf="http://www.w3.org/1999/02/22-rdf-syntax-ns#"
   xmlns:svg="http://www.w3.org/2000/svg"
   xmlns="http://www.w3.org/2000/svg"
   xmlns:sodipodi="http://sodipodi.sourceforge.net/DTD/sodipodi-0.dtd"
   xmlns:inkscape="http://www.inkscape.org/namespaces/inkscape"
   id="icon-print"
   width="30"
   height="30"
   viewBox="0 0 30 30"
   version="1.1"
   sodipodi:docname="print.svg"
   inkscape:version="0.92.4 (5da689c313, 2019-01-14)">
  <defs
     id="defs6" />
  <metadata
     id="metadata12">
    <rdf:RDF>
      <cc:Work
         rdf:about="">
        <dc:format>image/svg+xml</dc:format>
        <dc:type
           rdf:resource="http://purl.org/dc/dcmitype/StillImage" />
      </cc:Work>
    </rdf:RDF>
  </metadata>
  <sodipodi:namedview
     pagecolor="#ffffff"
     bordercolor="#666666"
     borderopacity="1"
     objecttolerance="10"
     gridtolerance="10"
     guidetolerance="10"
     inkscape:pageopacity="0"
     inkscape:pageshadow="2"
     inkscape:window-width="1280"
     inkscape:window-height="971"
     id="namedview10"
     showgrid="false"
     inkscape:zoom="7.8666667"
     inkscape:cx="-8.1991525"
     inkscape:cy="15"
     inkscape:window-x="-8"
     inkscape:window-y="-8"
     inkscape:window-maximized="1"
     inkscape:current-layer="icon-print" />
  <path
     id="Combined_Shape-2"
     data-name="Combined Shape"
     d="M 23.182174,30 H 6.8178261 A 1.3656522,1.3656522 0 0 1 5.4547826,28.636957 V 24.546522 H 4.0904348 A 4.0956522,4.0956522 0 0 1 0,20.453478 V 13.636957 A 4.0956522,4.0956522 0 0 1 4.0904348,9.5465217 H 5.4534783 V 1.3630435 A 1.3656522,1.3656522 0 0 1 6.8178261,0 H 23.182174 a 1.3656522,1.3656522 0 0 1 1.363043,1.3630435 v 8.1834782 h 1.363044 A 4.0956522,4.0956522 0 0 1 30,13.636957 v 6.817826 a 4.0956522,4.0956522 0 0 1 -4.090435,4.091739 h -1.363043 v 4.090435 A 1.3656522,1.3656522 0 0 1 23.182174,30 Z M 8.1821739,19.090435 v 8.182174 H 21.817826 V 19.090435 Z M 6.8178261,16.363043 H 23.182174 a 1.3656522,1.3656522 0 0 1 1.363043,1.363044 v 4.090435 h 1.363044 a 1.3656522,1.3656522 0 0 0 1.363043,-1.363044 V 13.636957 A 1.3656522,1.3656522 0 0 0 25.908261,12.273913 H 4.0904348 a 1.3656522,1.3656522 0 0 0 -1.3630435,1.363044 v 6.817826 a 1.3656522,1.3656522 0 0 0 1.3630435,1.363043 H 5.4534783 V 17.727391 A 1.3656522,1.3656522 0 0 1 6.8178261,16.363043 Z M 8.1821739,2.7273913 V 9.5465217 H 21.817826 V 2.7273913 Z"
     inkscape:connector-curvature="0"
     style="fill:#091625;stroke-width:1.30434787" />
</svg>
