<?xml version="1.0" encoding="UTF-8" standalone="no"?>
<svg
   xmlns:dc="http://purl.org/dc/elements/1.1/"
   xmlns:cc="http://creativecommons.org/ns#"
   xmlns:rdf="http://www.w3.org/1999/02/22-rdf-syntax-ns#"
   xmlns:svg="http://www.w3.org/2000/svg"
   xmlns="http://www.w3.org/2000/svg"
   xmlns:sodipodi="http://sodipodi.sourceforge.net/DTD/sodipodi-0.dtd"
   xmlns:inkscape="http://www.inkscape.org/namespaces/inkscape"
   id="icon_properties"
   width="30"
   height="30"
   viewBox="0 0 30 30"
   version="1.1"
   sodipodi:docname="properties.svg"
   inkscape:version="0.92.4 (5da689c313, 2019-01-14)">
  <metadata
     id="metadata12">
    <rdf:RDF>
      <cc:Work
         rdf:about="">
        <dc:format>image/svg+xml</dc:format>
        <dc:type
           rdf:resource="http://purl.org/dc/dcmitype/StillImage" />
      </cc:Work>
    </rdf:RDF>
  </metadata>
  <defs
     id="defs10" />
  <sodipodi:namedview
     pagecolor="#ffffff"
     bordercolor="#666666"
     borderopacity="1"
     objecttolerance="10"
     gridtolerance="10"
     guidetolerance="10"
     inkscape:pageopacity="0"
     inkscape:pageshadow="2"
     inkscape:window-width="1280"
     inkscape:window-height="971"
     id="namedview8"
     showgrid="false"
     inkscape:zoom="7.8666667"
     inkscape:cx="15"
     inkscape:cy="15"
     inkscape:window-x="-8"
     inkscape:window-y="-8"
     inkscape:window-maximized="1"
     inkscape:current-layer="icon_properties" />
  <path
     d="M 4.0909094,0 A 1.3636364,1.3636364 0 0 0 2.727273,1.3636364 V 28.636364 A 1.3636364,1.3636364 0 0 0 4.0909094,30 H 25.909091 a 1.3636364,1.3636364 0 0 0 1.363636,-1.363636 V 1.3636364 A 1.3636364,1.3636364 0 0 0 25.909091,0 Z M 5.5317829,2.6633523 H 24.465554 V 27.333985 H 5.5317829 Z M 10.7413,5.9659091 c -0.7554546,0 -1.3636364,0.6081818 -1.3636364,1.3636363 0,0.7554546 0.6081818,1.3636364 1.3636364,1.3636364 h 8.522727 c 0.755455,0 1.363636,-0.6081818 1.363636,-1.3636364 0,-0.7554545 -0.608181,-1.3636363 -1.363636,-1.3636363 z m 0,5.1136359 c -0.7554546,0 -1.3636364,0.608182 -1.3636364,1.363637 0,0.755454 0.6081818,1.363636 1.3636364,1.363636 h 8.522727 c 0.755455,0 1.363636,-0.608182 1.363636,-1.363636 0,-0.755455 -0.608181,-1.363637 -1.363636,-1.363637 z m 0,5.113637 c -0.7554546,0 -1.3636364,0.608182 -1.3636364,1.363636 0,0.755455 0.6081818,1.363637 1.3636364,1.363637 h 8.522727 c 0.755455,0 1.363636,-0.608182 1.363636,-1.363637 0,-0.755454 -0.608181,-1.363636 -1.363636,-1.363636 z m 0,5.113636 c -0.7554546,0 -1.3636364,0.608182 -1.3636364,1.363637 0,0.755454 0.6081818,1.363636 1.3636364,1.363636 h 8.522727 c 0.755455,0 1.363636,-0.608182 1.363636,-1.363636 0,-0.755455 -0.608181,-1.363637 -1.363636,-1.363637 z"
     id="Soustraction_11"
     inkscape:connector-curvature="0"
     style="stroke-width:1.36363637" />
</svg>
