<?xml version="1.0" encoding="UTF-8" standalone="no"?>
<svg
   xmlns:dc="http://purl.org/dc/elements/1.1/"
   xmlns:cc="http://creativecommons.org/ns#"
   xmlns:rdf="http://www.w3.org/1999/02/22-rdf-syntax-ns#"
   xmlns:svg="http://www.w3.org/2000/svg"
   xmlns="http://www.w3.org/2000/svg"
   xmlns:sodipodi="http://sodipodi.sourceforge.net/DTD/sodipodi-0.dtd"
   xmlns:inkscape="http://www.inkscape.org/namespaces/inkscape"
   id="icon-save"
   width="30"
   height="30"
   viewBox="0 0 30 30"
   version="1.1"
   sodipodi:docname="save.svg"
   inkscape:version="0.92.4 (5da689c313, 2019-01-14)">
  <metadata
     id="metadata10">
    <rdf:RDF>
      <cc:Work
         rdf:about="">
        <dc:format>image/svg+xml</dc:format>
        <dc:type
           rdf:resource="http://purl.org/dc/dcmitype/StillImage" />
      </cc:Work>
    </rdf:RDF>
  </metadata>
  <defs
     id="defs8" />
  <sodipodi:namedview
     pagecolor="#ffffff"
     bordercolor="#666666"
     borderopacity="1"
     objecttolerance="10"
     gridtolerance="10"
     guidetolerance="10"
     inkscape:pageopacity="0"
     inkscape:pageshadow="2"
     inkscape:window-width="1280"
     inkscape:window-height="971"
     id="namedview6"
     showgrid="false"
     inkscape:zoom="7.8666667"
     inkscape:cx="15"
     inkscape:cy="15"
     inkscape:window-x="-8"
     inkscape:window-y="-8"
     inkscape:window-maximized="1"
     inkscape:current-layer="icon-save" />
  <path
     d="M 1.363636,3.05e-6 A 1.3636361,1.3636361 0 0 0 -1.0947947e-7,1.3636391 V 28.636361 A 1.3636361,1.3636361 0 0 0 1.363636,29.999997 h 27.272722 a 1.3636361,1.3636361 0 0 0 1.363636,-1.363636 V 7.6145255 A 1.3636361,1.3636361 0 0 0 29.515263,6.5678283 L 22.041898,0.31960525 A 1.3636361,1.3636361 0 0 0 21.165656,3.05e-6 Z M 2.7272721,2.7272753 H 5.5930385 V 10.296521 A 1.3636361,1.3636361 0 0 0 6.956675,11.660157 H 18.033554 A 1.3636361,1.3636361 0 0 0 19.39719,10.296521 V 2.7272753 h 1.275746 l 6.599786,5.5264544 V 27.272725 h -2.8125 V 18.720702 A 1.3636361,1.3636361 0 0 0 23.096586,17.357066 H 6.903408 a 1.3636361,1.3636361 0 0 0 -1.3636365,1.363636 v 8.552023 H 2.7272721 Z M 8.317647,3.188035 h 8.352271 V 8.9328846 H 8.317647 Z m -0.05327,16.89364 h 13.468569 v 7.188387 H 8.264381 Z"
     id="Tracé_8"
     inkscape:connector-curvature="0"
     style="stroke-width:1.36363614" />
</svg>
