<?xml version="1.0" encoding="UTF-8" standalone="no"?>
<svg
   xmlns:dc="http://purl.org/dc/elements/1.1/"
   xmlns:cc="http://creativecommons.org/ns#"
   xmlns:rdf="http://www.w3.org/1999/02/22-rdf-syntax-ns#"
   xmlns:svg="http://www.w3.org/2000/svg"
   xmlns="http://www.w3.org/2000/svg"
   xmlns:sodipodi="http://sodipodi.sourceforge.net/DTD/sodipodi-0.dtd"
   xmlns:inkscape="http://www.inkscape.org/namespaces/inkscape"
   id="icon-support"
   width="30"
   height="30"
   viewBox="0 0 30 30"
   version="1.1"
   sodipodi:docname="support.svg"
   inkscape:version="0.92.4 (5da689c313, 2019-01-14)">
  <metadata
     id="metadata8">
    <rdf:RDF>
      <cc:Work
         rdf:about="">
        <dc:format>image/svg+xml</dc:format>
        <dc:type
           rdf:resource="http://purl.org/dc/dcmitype/StillImage" />
      </cc:Work>
    </rdf:RDF>
  </metadata>
  <defs
     id="defs6" />
  <sodipodi:namedview
     pagecolor="#ffffff"
     bordercolor="#666666"
     borderopacity="1"
     objecttolerance="10"
     gridtolerance="10"
     guidetolerance="10"
     inkscape:pageopacity="0"
     inkscape:pageshadow="2"
     inkscape:window-width="1280"
     inkscape:window-height="971"
     id="namedview4"
     showgrid="false"
     inkscape:zoom="7.8666667"
     inkscape:cx="15"
     inkscape:cy="15"
     inkscape:window-x="-8"
     inkscape:window-y="-8"
     inkscape:window-maximized="1"
     inkscape:current-layer="icon-support" />
  <path
     id="Fill_1"
     data-name="Fill 1"
     d="m 13.697857,30 c -0.163545,0 -0.295639,0 -0.418927,-0.01258 a 3.1111289,3.1111289 0 0 1 -2.404111,-4.877415 3.1526442,3.1526442 0 0 1 2.578978,-1.343585 h 1.654321 0.392508 0.393766 a 3.1652246,3.1652246 0 0 1 2.64188,1.459324 2.5726885,2.5726885 0 0 1 0.236512,0.464217 h 2.761394 0.235253 a 12.001686,12.001686 0 0 0 1.208975,-0.04277 5.3957266,5.3957266 0 0 0 1.050462,-0.288091 5.1177001,5.1177001 0 0 0 0.818983,-0.449119 l 0.236511,-0.174868 a 4.9063497,4.9063497 0 0 0 0.362315,-0.330864 4.5289382,4.5289382 0 0 0 0.337155,-0.366089 c 0.08806,-0.114481 0.135868,-0.183673 0.181157,-0.251608 a 5.0321535,5.0321535 0 0 0 0.338412,-0.59002 h -2.080795 -0.225189 a 4.1276239,4.1276239 0 0 1 -0.990076,-0.08806 2.7261692,2.7261692 0 0 1 -2.025442,-2.61043 c 0,-0.106933 0,-0.217641 0,-0.325832 v -0.08177 -6.109035 a 3.145096,3.145096 0 0 1 0.343445,-1.557451 2.7412656,2.7412656 0 0 1 2.43682,-1.37252 h 0.880627 0.837853 0.84037 A 12.966602,12.966602 0 0 0 25.817799,9.5329737 12.605545,12.605545 0 0 0 24.88056,7.7717199 C 24.703177,7.4949515 24.527051,7.2383117 24.339604,6.9892201 l -0.078,-0.1006431 -0.09435,-0.1169976 C 24.054029,6.6306791 23.958418,6.5199717 23.865323,6.4155546 A 13.398109,13.398109 0 0 0 22.516706,5.085808 C 22.431159,5.0166159 22.343097,4.9436497 22.255034,4.8744575 L 21.93046,4.6228498 C 21.636079,4.4165315 21.388246,4.2529865 21.150476,4.1083121 A 12.347647,12.347647 0 0 0 19.535155,3.2729746 12.718768,12.718768 0 0 0 16.581281,2.4678301 13.052148,13.052148 0 0 0 14.998669,2.3722192 13.296208,13.296208 0 0 0 13.405992,2.4678302 12.889861,12.889861 0 0 0 10.426957,3.2880712 12.83954,12.83954 0 0 0 8.6657034,4.2227937 c -0.251607,0.1585129 -0.503215,0.3296061 -0.7825,0.5409566 a 0.07296623,0.07296623 0 0 1 -0.01384,0.01258 l -0.08429,0.060386 -0.125803,0.1031591 c -0.118256,0.093095 -0.23777,0.1937379 -0.354767,0.3006712 A 13.35911,13.35911 0 0 0 5.9772757,6.5879058 C 5.8640523,6.7225159 5.7759896,6.8319653 5.7005073,6.9300923 l -0.2126085,-0.066676 0.1660611,0.1258039 -0.040257,0.05787 C 5.5822517,7.0898631 5.5508007,7.1326364 5.5206078,7.1728937 5.3344181,7.4345656 5.1645829,7.6886894 4.9997799,7.9516194 A 13.10247,13.10247 0 0 0 4.1644424,9.5707148 12.492321,12.492321 0 0 0 3.6675173,11.052684 h 0.8630143 0.8869171 c 0.3195417,0 0.6101486,0 0.8906911,0 a 2.7286852,2.7286852 0 0 1 2.6091716,1.977636 4.0257228,4.0257228 0 0 1 0.09435,1.052978 v 5.969393 a 5.7945248,5.7945248 0 0 1 -0.05535,0.969947 2.6934602,2.6934602 0 0 1 -2.628042,2.17389 H 4.1116048 3.8851579 A 4.13014,4.13014 0 0 1 2.8938237,23.108466 2.688428,2.688428 0 0 1 0.88976855,20.718193 0.87056256,0.87056256 0 0 1 0.86586585,20.5081 v -6.519154 c 0,-0.144675 0.00881,-0.298156 0.025161,-0.471765 0.030193,-0.603858 0.080514,-1.132234 0.15096455,-1.611547 A 14.069901,14.069901 0 0 1 8.6342524,1.5016566 14.467441,14.467441 0 0 1 17.749999,0.25368256 14.107642,14.107642 0 0 1 27.859595,8.266129 a 14.623438,14.623438 0 0 1 1.211491,4.58555 c 0.02265,0.232737 0.03397,0.469248 0.04529,0.699469 v 0.0088 c 0.0088,0.147191 0.01132,0.300672 0.01132,0.485603 0,0.251608 0,0.503216 0,0.754823 v 5.70772 a 10.753712,10.753712 0 0 1 -0.167319,2.298437 6.7594402,6.7594402 0 0 1 -6.653765,5.266148 H 18.76775 a 3.0670976,3.0670976 0 0 1 -0.143417,0.309478 3.1526442,3.1526442 0 0 1 -2.718621,1.605257 h -0.09184 -1.40397 c -0.125804,0 -0.24406,0 -0.348477,0 H 13.94946 Z m 0.139642,-3.849597 c -0.19248,0 -0.358541,0.0063 -0.503215,0.02013 -0.02516,0 -0.11574,0.02768 -0.216383,0.06416 -0.02516,0.01384 -0.078,0.04529 -0.125804,0.07674 L 12.854971,26.4473 c -0.03774,0.06793 -0.06793,0.125803 -0.100643,0.201286 v 0.01006 c -0.0088,0.03145 -0.02265,0.078 -0.03271,0.125804 -0.01006,0.04781 0,0.13461 0,0.218899 0.0075,0.03019 0.02894,0.108191 0.05913,0.193737 a 1.2580384,1.2580384 0 0 0 0.07548,0.125804 l 0.139642,0.139643 a 1.7298028,1.7298028 0 0 0 0.177384,0.09184 h 0.01384 c 0.03648,0.01258 0.09058,0.02516 0.148449,0.03774 0.139642,0.01258 0.290607,0.01887 0.473022,0.01887 0.125804,0 0.251608,0 0.377412,0 0.125804,0 0.251607,0 0.377411,0 h 1.332263 0.04277 0.0239 a 1.6128052,1.6128052 0 0 0 0.251608,-0.06793 1.4027128,1.4027128 0 0 0 0.125803,-0.07422 l 0.06919,-0.06793 c 0.01761,-0.0151 0.04781,-0.04403 0.07297,-0.07045 0.03648,-0.06416 0.06416,-0.125804 0.0931,-0.183674 a 1.2316196,1.2316196 0 0 0 0.04026,-0.155997 1.8958638,1.8958638 0 0 0 0,-0.215124 c -0.01258,-0.04529 -0.03523,-0.125804 -0.05913,-0.196254 l -0.01887,-0.03145 c -0.01636,-0.02642 -0.03523,-0.05913 -0.05787,-0.09058 l -0.03145,-0.03271 -0.03145,-0.03271 -0.07548,-0.07548 c -0.03774,-0.02139 -0.07297,-0.039 -0.106934,-0.05661 l -0.04655,-0.02265 -0.04781,-0.0239 -0.155996,-0.03648 c -0.125804,-0.01132 -0.285575,-0.01635 -0.470507,-0.01635 -0.1409,0 -0.285574,0 -0.426475,0 -0.1409,0 -0.283058,0 -0.446603,0 h -0.377412 c -0.137126,-0.0075 -0.279284,-0.01006 -0.420185,-0.01006 z M 6.5270385,20.726999 v 0 l 0.1987701,0.08429 -0.162287,-0.13461 0.040257,-0.07045 a 0.11196542,0.11196542 0 0 1 0.00629,-0.03271 c 0,-0.01258 0.00755,-0.02768 0.010064,-0.04152 0.00755,-0.125804 0,-0.279284 0,-0.440313 v -0.09938 -0.275511 -5.535369 c 0,-0.150964 0,-0.325832 0,-0.494409 a 0.1081913,0.1081913 0 0 1 -0.013838,-0.03145 v -0.0151 l -0.055353,-0.09184 0.085547,-0.200028 -0.1258038,0.164803 -0.1434164,-0.05787 H 4.4802101 4.1719907 c -0.1044172,0 -0.1975121,0 -0.2855748,0 -0.1258038,0 -0.2516076,0 -0.3572829,0.01384 l -0.020129,0.0076 -0.050321,0.01636 a 0.55982708,0.55982708 0 0 1 -0.07045,0.04277 l -0.091837,0.125805 c -0.00881,0.191221 -0.013838,0.41012 -0.015096,0.665502 v 0.223931 5.812137 c 0,0.06416 0,0.135867 0.010064,0.223931 v 0 c 0,0 0,0 0.021387,0.05661 a 0.26796218,0.26796218 0 0 1 0.026419,0.039 l 0.026419,0.04152 0.1258038,0.07674 v 0 a 0.14844853,0.14844853 0 0 1 0.041515,0.0088 l 0.023903,0.0075 H 6.315689 a 0.89698137,0.89698137 0 0 0 0.1258038,-0.02768 l 0.07674,-0.05032 z m 17.0590005,0.06542 h 0.01887 l 0.04277,0.01132 h 2.787813 a 0.89698137,0.89698137 0 0 0 0.125804,-0.02768 l 0.125804,-0.125804 0.02768,-0.04906 a 0.10693326,0.10693326 0 0 1 0.0063,-0.03648 l 0.0088,-0.03523 V 19.9684 q 0,-0.125804 0,-0.251608 v -5.608335 c 0,-0.144674 -0.0075,-0.295639 -0.01258,-0.445345 l -0.101905,-0.144673 -0.157255,-0.06793 h -1.887057 -0.305704 c -0.104417,0 -0.19877,0 -0.286832,0 -0.125804,0 -0.251608,0 -0.358541,0.01384 l -0.02265,0.0076 -0.04781,0.01636 -0.03271,0.02139 -0.04906,0.03145 -0.078,0.125804 c 0,0 0,0.0063 -0.01761,0.07297 0,0.139642 0,0.303187 0,0.476796 v 0.06668 0.271737 5.535369 c 0,0.159771 0,0.329606 0.0075,0.503215 v 0 c 0,0 0,0 0.02139,0.05158 0.0075,0.01258 0.03019,0.05158 0.0541,0.08806 l 0.125803,0.078 v 0 z"
     inkscape:connector-curvature="0"
     style="fill:#091625;stroke-width:1.2580384" />
</svg>
